<svg width="219" height="80" viewBox="0 0 219 80" fill="none" xmlns="http://www.w3.org/2000/svg">
<path d="M13.5 78V11.256L24.408 21.624H0.54V2.39999H38.988V78H13.5ZM61.5566 79.08C57.5246 79.08 54.1406 77.784 51.4046 75.192C48.6686 72.528 47.3006 69.144 47.3006 65.04C47.3006 60.864 48.6686 57.516 51.4046 54.996C54.1406 52.476 57.5246 51.216 61.5566 51.216C65.5886 51.216 68.9726 52.476 71.7086 54.996C74.4446 57.516 75.8126 60.864 75.8126 65.04C75.8126 69.144 74.4446 72.528 71.7086 75.192C68.9726 77.784 65.5886 79.08 61.5566 79.08ZM113.727 79.728C107.031 79.728 101.091 78.18 95.9074 75.084C90.7954 71.988 86.7634 67.488 83.8114 61.584C80.9314 55.68 79.4914 48.552 79.4914 40.2C79.4914 31.848 80.9314 24.72 83.8114 18.816C86.7634 12.912 90.7954 8.41199 95.9074 5.316C101.091 2.22 107.031 0.671998 113.727 0.671998C120.423 0.671998 126.327 2.22 131.439 5.316C136.623 8.41199 140.655 12.912 143.535 18.816C146.487 24.72 147.963 31.848 147.963 40.2C147.963 48.552 146.487 55.68 143.535 61.584C140.655 67.488 136.623 71.988 131.439 75.084C126.327 78.18 120.423 79.728 113.727 79.728ZM113.727 59.316C115.383 59.316 116.859 58.74 118.155 57.588C119.451 56.436 120.459 54.456 121.179 51.648C121.971 48.84 122.367 45.024 122.367 40.2C122.367 35.304 121.971 31.488 121.179 28.752C120.459 25.944 119.451 23.964 118.155 22.812C116.859 21.66 115.383 21.084 113.727 21.084C112.071 21.084 110.595 21.66 109.299 22.812C108.003 23.964 106.959 25.944 106.167 28.752C105.447 31.488 105.087 35.304 105.087 40.2C105.087 45.024 105.447 48.84 106.167 51.648C106.959 54.456 108.003 56.436 109.299 57.588C110.595 58.74 112.071 59.316 113.727 59.316ZM165.069 78L193.581 11.472L200.385 22.164H164.529L174.465 10.608V33.18H153.405V2.39999H218.097V18.06L192.933 78H165.069Z" fill="#1B1B1B"/>
</svg>
