<svg width="286" height="80" viewBox="0 0 286 80" fill="none" xmlns="http://www.w3.org/2000/svg">
<path d="M30.16 79.728C24.976 79.728 19.72 79.152 14.392 78C9.064 76.848 4.384 75.156 0.352 72.924L8.992 54.132C12.232 56.004 15.616 57.408 19.144 58.344C22.744 59.208 26.128 59.64 29.296 59.64C32.176 59.64 34.516 59.172 36.316 58.236C38.188 57.228 39.124 55.752 39.124 53.808C39.124 52.152 38.44 50.892 37.072 50.028C35.704 49.092 33.4 48.624 30.16 48.624H20.116V32.964L39.664 13.092L41.932 21.624H4.24V2.39999H60.616V18.06L41.068 37.932L28.864 31.02H35.56C45.064 31.02 52.3 33.144 57.268 37.392C62.236 41.64 64.72 47.112 64.72 53.808C64.72 58.128 63.496 62.268 61.048 66.228C58.672 70.188 54.928 73.428 49.816 75.948C44.776 78.468 38.224 79.728 30.16 79.728ZM80.8398 78V11.256L91.7478 21.624H67.8798V2.39999H106.328V78H80.8398ZM128.896 79.08C124.864 79.08 121.48 77.784 118.744 75.192C116.008 72.528 114.64 69.144 114.64 65.04C114.64 60.864 116.008 57.516 118.744 54.996C121.48 52.476 124.864 51.216 128.896 51.216C132.928 51.216 136.312 52.476 139.048 54.996C141.784 57.516 143.152 60.864 143.152 65.04C143.152 69.144 141.784 72.528 139.048 75.192C136.312 77.784 132.928 79.08 128.896 79.08ZM181.067 79.728C174.371 79.728 168.431 78.18 163.247 75.084C158.135 71.988 154.103 67.488 151.151 61.584C148.271 55.68 146.831 48.552 146.831 40.2C146.831 31.848 148.271 24.72 151.151 18.816C154.103 12.912 158.135 8.41199 163.247 5.316C168.431 2.22 174.371 0.671998 181.067 0.671998C187.763 0.671998 193.667 2.22 198.779 5.316C203.963 8.41199 207.995 12.912 210.875 18.816C213.827 24.72 215.303 31.848 215.303 40.2C215.303 48.552 213.827 55.68 210.875 61.584C207.995 67.488 203.963 71.988 198.779 75.084C193.667 78.18 187.763 79.728 181.067 79.728ZM181.067 59.316C182.723 59.316 184.199 58.74 185.495 57.588C186.791 56.436 187.799 54.456 188.519 51.648C189.311 48.84 189.707 45.024 189.707 40.2C189.707 35.304 189.311 31.488 188.519 28.752C187.799 25.944 186.791 23.964 185.495 22.812C184.199 21.66 182.723 21.084 181.067 21.084C179.411 21.084 177.935 21.66 176.639 22.812C175.343 23.964 174.299 25.944 173.507 28.752C172.787 31.488 172.427 35.304 172.427 40.2C172.427 45.024 172.787 48.84 173.507 51.648C174.299 54.456 175.343 56.436 176.639 57.588C177.935 58.74 179.411 59.316 181.067 59.316ZM232.409 78L260.921 11.472L267.725 22.164H231.869L241.805 10.608V33.18H220.745V2.39999H285.437V18.06L260.273 78H232.409Z" fill="#1B1B1B"/>
</svg>
