<svg width="925" height="238" viewBox="0 0 925 238" fill="none" xmlns="http://www.w3.org/2000/svg">
<path d="M126.377 93.3281C125.19 93.3275 124.029 93.6791 123.041 94.3383C122.054 94.9975 121.284 95.9348 120.829 97.0317C120.374 98.1285 120.255 99.3356 120.486 100.5C120.717 101.665 121.289 102.735 122.128 103.575C122.968 104.414 124.037 104.986 125.202 105.218C126.366 105.45 127.573 105.331 128.67 104.877C129.768 104.423 130.705 103.654 131.365 102.666C132.025 101.679 132.377 100.518 132.377 99.331C132.377 97.7395 131.745 96.2131 130.62 95.0874C129.495 93.9617 127.969 93.3289 126.377 93.3281ZM126.377 93.3281C125.19 93.3275 124.029 93.6791 123.041 94.3383C122.054 94.9975 121.284 95.9348 120.829 97.0317C120.374 98.1285 120.255 99.3356 120.486 100.5C120.717 101.665 121.289 102.735 122.128 103.575C122.968 104.414 124.037 104.986 125.202 105.218C126.366 105.45 127.573 105.331 128.67 104.877C129.768 104.423 130.705 103.654 131.365 102.666C132.025 101.679 132.377 100.518 132.377 99.331C132.377 97.7395 131.745 96.2131 130.62 95.0874C129.495 93.9617 127.969 93.3289 126.377 93.3281ZM126.377 93.3281C125.19 93.3275 124.029 93.6791 123.041 94.3383C122.054 94.9975 121.284 95.9348 120.829 97.0317C120.374 98.1285 120.255 99.3356 120.486 100.5C120.717 101.665 121.289 102.735 122.128 103.575C122.968 104.414 124.037 104.986 125.202 105.218C126.366 105.45 127.573 105.331 128.67 104.877C129.768 104.423 130.705 103.654 131.365 102.666C132.025 101.679 132.377 100.518 132.377 99.331C132.377 97.7395 131.745 96.2131 130.62 95.0874C129.495 93.9617 127.969 93.3289 126.377 93.3281ZM126.377 93.3281C125.19 93.3275 124.029 93.6791 123.041 94.3383C122.054 94.9975 121.284 95.9348 120.829 97.0317C120.374 98.1285 120.255 99.3356 120.486 100.5C120.717 101.665 121.289 102.735 122.128 103.575C122.968 104.414 124.037 104.986 125.202 105.218C126.366 105.45 127.573 105.331 128.67 104.877C129.768 104.423 130.705 103.654 131.365 102.666C132.025 101.679 132.377 100.518 132.377 99.331C132.377 97.7395 131.745 96.2131 130.62 95.0874C129.495 93.9617 127.969 93.3289 126.377 93.3281ZM126.377 93.3281C125.19 93.3275 124.029 93.6791 123.041 94.3383C122.054 94.9975 121.284 95.9348 120.829 97.0317C120.374 98.1285 120.255 99.3356 120.486 100.5C120.717 101.665 121.289 102.735 122.128 103.575C122.968 104.414 124.037 104.986 125.202 105.218C126.366 105.45 127.573 105.331 128.67 104.877C129.768 104.423 130.705 103.654 131.365 102.666C132.025 101.679 132.377 100.518 132.377 99.331C132.377 97.7395 131.745 96.2131 130.62 95.0874C129.495 93.9617 127.969 93.3289 126.377 93.3281ZM126.377 93.3281C125.19 93.3275 124.029 93.6791 123.041 94.3383C122.054 94.9975 121.284 95.9348 120.829 97.0317C120.374 98.1285 120.255 99.3356 120.486 100.5C120.717 101.665 121.289 102.735 122.128 103.575C122.968 104.414 124.037 104.986 125.202 105.218C126.366 105.45 127.573 105.331 128.67 104.877C129.768 104.423 130.705 103.654 131.365 102.666C132.025 101.679 132.377 100.518 132.377 99.331C132.377 97.7395 131.745 96.2131 130.62 95.0874C129.495 93.9617 127.969 93.3289 126.377 93.3281ZM126.377 93.3281C125.19 93.3275 124.029 93.6791 123.041 94.3383C122.054 94.9975 121.284 95.9348 120.829 97.0317C120.374 98.1285 120.255 99.3356 120.486 100.5C120.717 101.665 121.289 102.735 122.128 103.575C122.968 104.414 124.037 104.986 125.202 105.218C126.366 105.45 127.573 105.331 128.67 104.877C129.768 104.423 130.705 103.654 131.365 102.666C132.025 101.679 132.377 100.518 132.377 99.331C132.377 97.7395 131.745 96.2131 130.62 95.0874C129.495 93.9617 127.969 93.3289 126.377 93.3281ZM126.377 93.3281C125.19 93.3275 124.029 93.6791 123.041 94.3383C122.054 94.9975 121.284 95.9348 120.829 97.0317C120.374 98.1285 120.255 99.3356 120.486 100.5C120.717 101.665 121.289 102.735 122.128 103.575C122.968 104.414 124.037 104.986 125.202 105.218C126.366 105.45 127.573 105.331 128.67 104.877C129.768 104.423 130.705 103.654 131.365 102.666C132.025 101.679 132.377 100.518 132.377 99.331C132.377 97.7395 131.745 96.2131 130.62 95.0874C129.495 93.9617 127.969 93.3289 126.377 93.3281ZM126.377 93.3281C125.19 93.3275 124.029 93.6791 123.041 94.3383C122.054 94.9975 121.284 95.9348 120.829 97.0317C120.374 98.1285 120.255 99.3356 120.486 100.5C120.717 101.665 121.289 102.735 122.128 103.575C122.968 104.414 124.037 104.986 125.202 105.218C126.366 105.45 127.573 105.331 128.67 104.877C129.768 104.423 130.705 103.654 131.365 102.666C132.025 101.679 132.377 100.518 132.377 99.331C132.377 97.7395 131.745 96.2131 130.62 95.0874C129.495 93.9617 127.969 93.3289 126.377 93.3281ZM126.377 93.3281C125.19 93.3275 124.029 93.6791 123.041 94.3383C122.054 94.9975 121.284 95.9348 120.829 97.0317C120.374 98.1285 120.255 99.3356 120.486 100.5C120.717 101.665 121.289 102.735 122.128 103.575C122.968 104.414 124.037 104.986 125.202 105.218C126.366 105.45 127.573 105.331 128.67 104.877C129.768 104.423 130.705 103.654 131.365 102.666C132.025 101.679 132.377 100.518 132.377 99.331C132.377 97.7395 131.745 96.2131 130.62 95.0874C129.495 93.9617 127.969 93.3289 126.377 93.3281ZM126.377 93.3281C125.19 93.3275 124.029 93.6791 123.041 94.3383C122.054 94.9975 121.284 95.9348 120.829 97.0317C120.374 98.1285 120.255 99.3356 120.486 100.5C120.717 101.665 121.289 102.735 122.128 103.575C122.968 104.414 124.037 104.986 125.202 105.218C126.366 105.45 127.573 105.331 128.67 104.877C129.768 104.423 130.705 103.654 131.365 102.666C132.025 101.679 132.377 100.518 132.377 99.331C132.377 97.7395 131.745 96.2131 130.62 95.0874C129.495 93.9617 127.969 93.3289 126.377 93.3281ZM126.377 93.3281C125.19 93.3275 124.029 93.6791 123.041 94.3383C122.054 94.9975 121.284 95.9348 120.829 97.0317C120.374 98.1285 120.255 99.3356 120.486 100.5C120.717 101.665 121.289 102.735 122.128 103.575C122.968 104.414 124.037 104.986 125.202 105.218C126.366 105.45 127.573 105.331 128.67 104.877C129.768 104.423 130.705 103.654 131.365 102.666C132.025 101.679 132.377 100.518 132.377 99.331C132.377 97.7395 131.745 96.2131 130.62 95.0874C129.495 93.9617 127.969 93.3289 126.377 93.3281ZM126.377 93.3281C125.19 93.3275 124.029 93.6791 123.041 94.3383C122.054 94.9975 121.284 95.9348 120.829 97.0317C120.374 98.1285 120.255 99.3356 120.486 100.5C120.717 101.665 121.289 102.735 122.128 103.575C122.968 104.414 124.037 104.986 125.202 105.218C126.366 105.45 127.573 105.331 128.67 104.877C129.768 104.423 130.705 103.654 131.365 102.666C132.025 101.679 132.377 100.518 132.377 99.331C132.377 97.7395 131.745 96.2131 130.62 95.0874C129.495 93.9617 127.969 93.3289 126.377 93.3281ZM126.377 93.3281C125.19 93.3275 124.029 93.6791 123.041 94.3383C122.054 94.9975 121.284 95.9348 120.829 97.0317C120.374 98.1285 120.255 99.3356 120.486 100.5C120.717 101.665 121.289 102.735 122.128 103.575C122.968 104.414 124.037 104.986 125.202 105.218C126.366 105.45 127.573 105.331 128.67 104.877C129.768 104.423 130.705 103.654 131.365 102.666C132.025 101.679 132.377 100.518 132.377 99.331C132.377 97.7395 131.745 96.2131 130.62 95.0874C129.495 93.9617 127.969 93.3289 126.377 93.3281ZM126.377 93.3281C125.19 93.3275 124.029 93.6791 123.041 94.3383C122.054 94.9975 121.284 95.9348 120.829 97.0317C120.374 98.1285 120.255 99.3356 120.486 100.5C120.717 101.665 121.289 102.735 122.128 103.575C122.968 104.414 124.037 104.986 125.202 105.218C126.366 105.45 127.573 105.331 128.67 104.877C129.768 104.423 130.705 103.654 131.365 102.666C132.025 101.679 132.377 100.518 132.377 99.331C132.377 97.7395 131.745 96.2131 130.62 95.0874C129.495 93.9617 127.969 93.3289 126.377 93.3281ZM126.377 93.3281C125.19 93.3275 124.029 93.6791 123.041 94.3383C122.054 94.9975 121.284 95.9348 120.829 97.0317C120.374 98.1285 120.255 99.3356 120.486 100.5C120.717 101.665 121.289 102.735 122.128 103.575C122.968 104.414 124.037 104.986 125.202 105.218C126.366 105.45 127.573 105.331 128.67 104.877C129.768 104.423 130.705 103.654 131.365 102.666C132.025 101.679 132.377 100.518 132.377 99.331C132.377 97.7395 131.745 96.2131 130.62 95.0874C129.495 93.9617 127.969 93.3289 126.377 93.3281ZM126.377 93.3281C125.19 93.3275 124.029 93.6791 123.041 94.3383C122.054 94.9975 121.284 95.9348 120.829 97.0317C120.374 98.1285 120.255 99.3356 120.486 100.5C120.717 101.665 121.289 102.735 122.128 103.575C122.968 104.414 124.037 104.986 125.202 105.218C126.366 105.45 127.573 105.331 128.67 104.877C129.768 104.423 130.705 103.654 131.365 102.666C132.025 101.679 132.377 100.518 132.377 99.331C132.377 97.7395 131.745 96.2131 130.62 95.0874C129.495 93.9617 127.969 93.3289 126.377 93.3281ZM126.377 93.3281C125.19 93.3275 124.029 93.6791 123.041 94.3383C122.054 94.9975 121.284 95.9348 120.829 97.0317C120.374 98.1285 120.255 99.3356 120.486 100.5C120.717 101.665 121.289 102.735 122.128 103.575C122.968 104.414 124.037 104.986 125.202 105.218C126.366 105.45 127.573 105.331 128.67 104.877C129.768 104.423 130.705 103.654 131.365 102.666C132.025 101.679 132.377 100.518 132.377 99.331C132.377 97.7395 131.745 96.2131 130.62 95.0874C129.495 93.9617 127.969 93.3289 126.377 93.3281ZM126.377 93.3281C125.19 93.3275 124.029 93.6791 123.041 94.3383C122.054 94.9975 121.284 95.9348 120.829 97.0317C120.374 98.1285 120.255 99.3356 120.486 100.5C120.717 101.665 121.289 102.735 122.128 103.575C122.968 104.414 124.037 104.986 125.202 105.218C126.366 105.45 127.573 105.331 128.67 104.877C129.768 104.423 130.705 103.654 131.365 102.666C132.025 101.679 132.377 100.518 132.377 99.331C132.377 97.7395 131.745 96.2131 130.62 95.0874C129.495 93.9617 127.969 93.3289 126.377 93.3281ZM126.377 93.3281C125.19 93.3275 124.029 93.6791 123.041 94.3383C122.054 94.9975 121.284 95.9348 120.829 97.0317C120.374 98.1285 120.255 99.3356 120.486 100.5C120.717 101.665 121.289 102.735 122.128 103.575C122.968 104.414 124.037 104.986 125.202 105.218C126.366 105.45 127.573 105.331 128.67 104.877C129.768 104.423 130.705 103.654 131.365 102.666C132.025 101.679 132.377 100.518 132.377 99.331C132.377 97.7395 131.745 96.2131 130.62 95.0874C129.495 93.9617 127.969 93.3289 126.377 93.3281ZM126.377 93.3281C125.19 93.3275 124.029 93.6791 123.041 94.3383C122.054 94.9975 121.284 95.9348 120.829 97.0317C120.374 98.1285 120.255 99.3356 120.486 100.5C120.717 101.665 121.289 102.735 122.128 103.575C122.968 104.414 124.037 104.986 125.202 105.218C126.366 105.45 127.573 105.331 128.67 104.877C129.768 104.423 130.705 103.654 131.365 102.666C132.025 101.679 132.377 100.518 132.377 99.331C132.377 97.7395 131.745 96.2131 130.62 95.0874C129.495 93.9617 127.969 93.3289 126.377 93.3281ZM126.377 93.3281C125.19 93.3275 124.029 93.6791 123.041 94.3383C122.054 94.9975 121.284 95.9348 120.829 97.0317C120.374 98.1285 120.255 99.3356 120.486 100.5C120.717 101.665 121.289 102.735 122.128 103.575C122.968 104.414 124.037 104.986 125.202 105.218C126.366 105.45 127.573 105.331 128.67 104.877C129.768 104.423 130.705 103.654 131.365 102.666C132.025 101.679 132.377 100.518 132.377 99.331C132.377 97.7395 131.745 96.2131 130.62 95.0874C129.495 93.9617 127.969 93.3289 126.377 93.3281ZM126.377 93.3281C125.19 93.3275 124.029 93.6791 123.041 94.3383C122.054 94.9975 121.284 95.9348 120.829 97.0317C120.374 98.1285 120.255 99.3356 120.486 100.5C120.717 101.665 121.289 102.735 122.128 103.575C122.968 104.414 124.037 104.986 125.202 105.218C126.366 105.45 127.573 105.331 128.67 104.877C129.768 104.423 130.705 103.654 131.365 102.666C132.025 101.679 132.377 100.518 132.377 99.331C132.377 97.7395 131.745 96.2131 130.62 95.0874C129.495 93.9617 127.969 93.3289 126.377 93.3281ZM126.377 93.3281C125.19 93.3275 124.029 93.6791 123.041 94.3383C122.054 94.9975 121.284 95.9348 120.829 97.0317C120.374 98.1285 120.255 99.3356 120.486 100.5C120.717 101.665 121.289 102.735 122.128 103.575C122.968 104.414 124.037 104.986 125.202 105.218C126.366 105.45 127.573 105.331 128.67 104.877C129.768 104.423 130.705 103.654 131.365 102.666C132.025 101.679 132.377 100.518 132.377 99.331C132.377 97.7395 131.745 96.2131 130.62 95.0874C129.495 93.9617 127.969 93.3289 126.377 93.3281ZM126.377 93.3281C125.19 93.3275 124.029 93.6791 123.041 94.3383C122.054 94.9975 121.284 95.9348 120.829 97.0317C120.374 98.1285 120.255 99.3356 120.486 100.5C120.717 101.665 121.289 102.735 122.128 103.575C122.968 104.414 124.037 104.986 125.202 105.218C126.366 105.45 127.573 105.331 128.67 104.877C129.768 104.423 130.705 103.654 131.365 102.666C132.025 101.679 132.377 100.518 132.377 99.331C132.377 97.7395 131.745 96.2131 130.62 95.0874C129.495 93.9617 127.969 93.3289 126.377 93.3281ZM126.377 93.3281C125.19 93.3275 124.029 93.6791 123.041 94.3383C122.054 94.9975 121.284 95.9348 120.829 97.0317C120.374 98.1285 120.255 99.3356 120.486 100.5C120.717 101.665 121.289 102.735 122.128 103.575C122.968 104.414 124.037 104.986 125.202 105.218C126.366 105.45 127.573 105.331 128.67 104.877C129.768 104.423 130.705 103.654 131.365 102.666C132.025 101.679 132.377 100.518 132.377 99.331C132.377 97.7395 131.745 96.2131 130.62 95.0874C129.495 93.9617 127.969 93.3289 126.377 93.3281ZM126.377 93.3281C125.19 93.3275 124.029 93.6791 123.041 94.3383C122.054 94.9975 121.284 95.9348 120.829 97.0317C120.374 98.1285 120.255 99.3356 120.486 100.5C120.717 101.665 121.289 102.735 122.128 103.575C122.968 104.414 124.037 104.986 125.202 105.218C126.366 105.45 127.573 105.331 128.67 104.877C129.768 104.423 130.705 103.654 131.365 102.666C132.025 101.679 132.377 100.518 132.377 99.331C132.377 97.7395 131.745 96.2131 130.62 95.0874C129.495 93.9617 127.969 93.3289 126.377 93.3281ZM126.377 93.3281C125.19 93.3275 124.029 93.6791 123.041 94.3383C122.054 94.9975 121.284 95.9348 120.829 97.0317C120.374 98.1285 120.255 99.3356 120.486 100.5C120.717 101.665 121.289 102.735 122.128 103.575C122.968 104.414 124.037 104.986 125.202 105.218C126.366 105.45 127.573 105.331 128.67 104.877C129.768 104.423 130.705 103.654 131.365 102.666C132.025 101.679 132.377 100.518 132.377 99.331C132.377 97.7395 131.745 96.2131 130.62 95.0874C129.495 93.9617 127.969 93.3289 126.377 93.3281ZM126.377 93.3281C125.19 93.3275 124.029 93.6791 123.041 94.3383C122.054 94.9975 121.284 95.9348 120.829 97.0317C120.374 98.1285 120.255 99.3356 120.486 100.5C120.717 101.665 121.289 102.735 122.128 103.575C122.968 104.414 124.037 104.986 125.202 105.218C126.366 105.45 127.573 105.331 128.67 104.877C129.768 104.423 130.705 103.654 131.365 102.666C132.025 101.679 132.377 100.518 132.377 99.331C132.377 97.7395 131.745 96.2131 130.62 95.0874C129.495 93.9617 127.969 93.3289 126.377 93.3281ZM126.377 93.3281C125.19 93.3275 124.029 93.6791 123.041 94.3383C122.054 94.9975 121.284 95.9348 120.829 97.0317C120.374 98.1285 120.255 99.3356 120.486 100.5C120.717 101.665 121.289 102.735 122.128 103.575C122.968 104.414 124.037 104.986 125.202 105.218C126.366 105.45 127.573 105.331 128.67 104.877C129.768 104.423 130.705 103.654 131.365 102.666C132.025 101.679 132.377 100.518 132.377 99.331C132.377 97.7395 131.745 96.2131 130.62 95.0874C129.495 93.9617 127.969 93.3289 126.377 93.3281ZM126.377 93.3281C125.19 93.3275 124.029 93.6791 123.041 94.3383C122.054 94.9975 121.284 95.9348 120.829 97.0317C120.374 98.1285 120.255 99.3356 120.486 100.5C120.717 101.665 121.289 102.735 122.128 103.575C122.968 104.414 124.037 104.986 125.202 105.218C126.366 105.45 127.573 105.331 128.67 104.877C129.768 104.423 130.705 103.654 131.365 102.666C132.025 101.679 132.377 100.518 132.377 99.331C132.377 97.7395 131.745 96.2131 130.62 95.0874C129.495 93.9617 127.969 93.3289 126.377 93.3281ZM126.377 93.3281C125.19 93.3275 124.029 93.6791 123.041 94.3383C122.054 94.9975 121.284 95.9348 120.829 97.0317C120.374 98.1285 120.255 99.3356 120.486 100.5C120.717 101.665 121.289 102.735 122.128 103.575C122.968 104.414 124.037 104.986 125.202 105.218C126.366 105.45 127.573 105.331 128.67 104.877C129.768 104.423 130.705 103.654 131.365 102.666C132.025 101.679 132.377 100.518 132.377 99.331C132.377 97.7395 131.745 96.2131 130.62 95.0874C129.495 93.9617 127.969 93.3289 126.377 93.3281ZM126.377 93.3281C125.19 93.3275 124.029 93.6791 123.041 94.3383C122.054 94.9975 121.284 95.9348 120.829 97.0317C120.374 98.1285 120.255 99.3356 120.486 100.5C120.717 101.665 121.289 102.735 122.128 103.575C122.968 104.414 124.037 104.986 125.202 105.218C126.366 105.45 127.573 105.331 128.67 104.877C129.768 104.423 130.705 103.654 131.365 102.666C132.025 101.679 132.377 100.518 132.377 99.331C132.377 97.7395 131.745 96.2131 130.62 95.0874C129.495 93.9617 127.969 93.3289 126.377 93.3281Z" fill="#1B1B1B"/>
<path d="M181.52 161.359L181.396 161.495C177.907 164.984 176.913 168.904 149.509 168.904C131.605 168.891 104.423 186.179 96.2411 214.642C98.6466 200.333 104.064 184.736 115.621 173.157L116.175 172.609C116.739 172.06 117.317 171.526 117.909 171.006C135.144 155.836 146.806 148.53 146.806 140.998V33.7785C146.806 25.7757 139.274 17.423 129.389 17.4199H57.1837C47.2986 17.4199 39.7663 25.7788 39.7663 33.7785V140.988C39.7663 147.109 48.0508 156.124 68.0099 171.947C68.3195 172.192 68.6291 172.442 68.9387 172.693C69.1461 172.863 69.3504 173.04 69.5578 173.216C69.7653 173.393 69.9634 173.572 70.177 173.752C70.3906 173.931 70.5454 174.086 70.7281 174.256C70.9107 174.427 71.0129 174.523 71.1522 174.656L71.4154 174.91L71.564 175.055L71.7126 175.204L72.2141 175.702C82.6379 186.247 88.0371 201.367 90.5664 214.586C81.8763 186.962 55.1466 168.898 37.559 168.898C10.1544 168.898 9.16059 164.978 5.67155 161.489L5.54772 161.353L3.3125 180.653C3.3125 180.653 9.54757 195.822 16.6247 196.658C66.397 193.745 82.4583 216.695 92.7087 237.031L92.6809 234.672L92.653 232.505L92.5632 225.112V225.094L92.5353 222.676V222.283L91.9162 171.616C91.7427 171.444 91.5966 171.247 91.4828 171.031L87.1485 162.83C86.9148 162.384 86.8294 161.876 86.9045 161.379C86.9797 160.882 87.2116 160.421 87.5665 160.065L91.7149 155.92L91.6035 146.663C91.5986 146.262 91.7164 145.869 91.9411 145.537C92.1657 145.205 92.4865 144.95 92.8604 144.805C92.9986 144.75 93.1431 144.711 93.2907 144.691H93.3434C93.4214 144.681 93.5 144.676 93.5787 144.675C93.7246 144.675 93.8701 144.691 94.0121 144.725C94.4547 144.824 94.85 145.072 95.1317 145.428C95.4134 145.783 95.5646 146.225 95.56 146.678L95.4362 155.966L99.5506 160.077C99.9055 160.434 100.137 160.894 100.213 161.391C100.288 161.888 100.202 162.397 99.9685 162.842L95.6343 171.043C95.525 171.253 95.384 171.445 95.2164 171.613L94.5817 219.218V219.264L94.5353 222.939L94.4548 226.988L94.3743 232.936L94.3495 234.945L94.3186 237.137C104.566 216.769 120.593 193.726 170.477 196.646C177.539 195.822 183.789 180.64 183.789 180.64L181.52 161.359ZM35.1751 188.073C27.1011 188.073 21.3181 187.733 17.0891 187.163C13.5846 182.965 12.5629 177.876 13.0645 174.78C14.4902 175.962 16.253 176.664 18.1014 176.786C53.3726 177.953 73.4029 194.983 83.8514 212.475C71.8023 197.058 50.3201 188.073 35.1751 188.073ZM131.587 136.487L117.584 155.127C117.373 155.408 117.088 155.625 116.761 155.753C116.434 155.88 116.077 155.914 115.732 155.849C115.387 155.785 115.066 155.625 114.807 155.388C114.548 155.151 114.36 154.846 114.265 154.508L109.021 135.871C108.942 135.591 108.929 135.297 108.983 135.011C109.037 134.725 109.156 134.456 109.332 134.224C109.507 133.992 109.734 133.804 109.994 133.675C110.254 133.545 110.541 133.478 110.832 133.478H130.082C130.432 133.477 130.774 133.574 131.072 133.758C131.369 133.941 131.61 134.204 131.766 134.517C131.922 134.829 131.988 135.179 131.957 135.527C131.925 135.875 131.797 136.208 131.587 136.487ZM139.797 117.912C139.797 118.661 139.499 119.379 138.97 119.908C138.44 120.438 137.722 120.735 136.973 120.735H107.745C106.736 120.735 105.754 120.41 104.943 119.809C104.132 119.208 103.535 118.363 103.241 117.398L99.1574 103.974C98.4822 101.753 98.1389 99.4444 98.1389 97.123V89.8074C98.1389 89.2626 98.1698 88.696 98.498 88.2595C98.9809 87.6403 99.9685 86.95 101.746 86.8942C103.814 86.8292 120.055 86.8478 132.289 86.8757C134.283 86.8806 136.193 87.6761 137.6 89.0876C139.008 90.4992 139.798 92.4115 139.797 94.4048V117.912ZM47.5338 35.0818C47.5338 32.7722 48.4514 30.5571 50.0846 28.9239C51.7177 27.2907 53.9328 26.3732 56.2425 26.3732H131.088C133.398 26.3732 135.613 27.2907 137.246 28.9239C138.879 30.5571 139.797 32.7722 139.797 35.0818V43.7812H47.54L47.5338 35.0818ZM47.5338 46.3817H139.791V73.9349C139.791 76.2446 138.873 78.4597 137.24 80.0929C135.607 81.7261 133.392 82.6436 131.082 82.6436H56.2425C53.9328 82.6436 51.7177 81.7261 50.0846 80.0929C48.4514 78.4597 47.5338 76.2446 47.5338 73.9349V46.3817ZM47.5338 117.933V94.4048C47.5338 92.4112 48.3245 90.4989 49.7325 89.0875C51.1405 87.676 53.0508 86.8806 55.0444 86.8757C67.2762 86.8478 83.5264 86.8292 85.5851 86.8942C87.3653 86.95 88.3497 87.6311 88.8327 88.2595C89.1188 88.7223 89.2459 89.2658 89.1949 89.8074V97.1354C89.1953 99.4571 88.851 101.766 88.1733 103.987L84.0898 117.41C83.7963 118.374 83.2012 119.219 82.3921 119.819C81.5829 120.42 80.6024 120.746 79.5946 120.748H50.3573C49.6085 120.748 48.8903 120.45 48.3608 119.921C47.8313 119.391 47.5338 118.673 47.5338 117.924V117.933ZM78.282 135.889L73.0376 154.527C72.9426 154.865 72.7548 155.17 72.4956 155.407C72.2364 155.644 71.916 155.803 71.5707 155.868C71.2254 155.932 70.8689 155.899 70.5417 155.771C70.2144 155.643 69.9294 155.427 69.7188 155.146L55.7131 136.505C55.5033 136.226 55.3754 135.893 55.3439 135.545C55.3123 135.197 55.3784 134.847 55.5346 134.534C55.6908 134.222 55.931 133.959 56.2283 133.775C56.5255 133.591 56.8682 133.493 57.2177 133.493H76.4678C76.7565 133.494 77.0412 133.562 77.2998 133.69C77.5584 133.818 77.784 134.005 77.9593 134.234C78.1346 134.463 78.2549 134.73 78.3108 135.013C78.3668 135.297 78.3569 135.589 78.282 135.868V135.889ZM52.6606 130.744C52.3369 130.744 52.0185 130.661 51.7365 130.502C51.4544 130.343 51.2182 130.114 51.0507 129.837L49.2551 126.902C49.0823 126.616 48.9886 126.289 48.9836 125.955C48.9785 125.621 49.0623 125.292 49.2264 125.001C49.3905 124.71 49.629 124.468 49.9175 124.299C50.2059 124.131 50.534 124.042 50.8681 124.042H136.425C136.76 124.041 137.088 124.13 137.377 124.298C137.665 124.467 137.904 124.709 138.068 125.001C138.231 125.292 138.315 125.622 138.309 125.956C138.304 126.29 138.209 126.617 138.035 126.902L136.249 129.837C136.081 130.114 135.845 130.343 135.563 130.502C135.281 130.661 134.963 130.744 134.639 130.744H52.6606ZM169.954 187.163C165.725 187.733 159.942 188.073 151.865 188.073C136.716 188.073 115.222 197.067 103.176 212.484C113.649 194.996 133.658 177.953 168.929 176.786C170.777 176.664 172.54 175.962 173.966 174.78C174.477 177.876 173.458 182.965 169.954 187.163Z" fill="#1B1B1B"/>
<path d="M67.1894 99.331C67.1894 100.518 66.8372 101.679 66.1775 102.666C65.5177 103.654 64.58 104.423 63.483 104.877C62.3859 105.331 61.1788 105.45 60.0142 105.218C58.8497 104.986 57.7801 104.414 56.9407 103.575C56.1013 102.735 55.5298 101.665 55.2986 100.5C55.0673 99.3356 55.1866 98.1285 55.6414 97.0317C56.0962 95.9348 56.8661 94.9975 57.8537 94.3383C58.8413 93.6791 60.0022 93.3275 61.1896 93.3281C61.9777 93.3281 62.7582 93.4834 63.4863 93.7851C64.2144 94.0868 64.876 94.529 65.4332 95.0865C65.9903 95.644 66.4322 96.3058 66.7335 97.034C67.0349 97.7623 67.1898 98.5428 67.1894 99.331Z" fill="#1B1B1B"/>
<path d="M177.083 150.833C170.792 152.588 163.668 152.356 159.229 153.492C153.73 156.278 149.597 159.414 151.415 157.671C152.142 156.972 152.99 155.706 153.997 154.161C154.768 152.254 154.288 151.836 154.384 148.758C154.492 145.152 157.588 142.282 159.089 140.839L159.207 140.725C158.64 141.406 157.322 143.378 158.684 145.077C159.051 145.528 159.333 146.042 159.517 146.594C161.662 144.22 164.225 142.121 167.321 141.053C175.949 138.081 180.426 137.935 180.968 132.01C182.751 133.121 182.983 142.873 175.231 147.724C177.838 148.102 180.101 148.563 181.928 147.464C184.732 145.78 179.389 150.189 177.083 150.833Z" fill="#1B1B1B"/>
<path d="M23.7945 154.795C19.4108 153.464 12.281 153.38 6.07067 151.343C3.79521 150.597 -1.3594 145.956 1.38044 147.764C3.15746 148.94 5.43912 148.581 8.05822 148.321C0.529072 143.13 1.19468 133.396 3.02434 132.365C3.30297 138.309 7.77031 138.653 16.2561 142.006C19.3055 143.21 21.7729 145.411 23.8069 147.888C24.0148 147.344 24.3201 146.843 24.7078 146.408C26.1443 144.77 24.9121 142.743 24.3765 142.037L24.4911 142.157C25.9276 143.665 28.8903 146.668 28.8408 150.278C28.7974 153.374 28.299 153.755 28.9894 155.702C29.9181 157.284 30.7107 158.581 31.4072 159.312C33.1564 161.138 29.1596 157.819 23.7945 154.795Z" fill="#1B1B1B"/>
<path d="M110.592 2.16895C108.784 3.24465 107.226 4.41445 105.904 5.75586C102.991 8.71233 101.381 12.3122 100.465 16.9834H87.0977C86.2707 12.2569 84.569 8.70955 81.5781 5.7998C80.1884 4.44778 78.5487 3.26692 76.6611 2.16895H110.592Z" stroke="#1B1B1B" stroke-width="4.35734"/>
<path d="M247.413 18.2481L247.576 34.6239L229.451 35.5577L229.748 65.3604L221.403 65.4437L221.11 36.0174L202.985 36.9513L202.821 20.5127L220.946 19.5789L220.944 19.3907L225.085 19.3494L247.413 18.2481ZM289.476 35.649C289.621 50.2053 278.539 52.6376 264.548 52.9027L264.669 65.012L255.823 65.1003L255.363 19.0472L263.018 18.9709L263.016 18.8454C277.51 18.7008 289.326 20.5908 289.476 35.649ZM279.625 29.4725L279.609 27.7784L264.262 24.2293L264.414 39.413L279.625 29.4725ZM334.553 64.3147L331.591 50.4768L309.694 50.6953L305.378 64.6058L289.441 64.7648L304.033 17.8086L319.969 17.6496L319.97 17.7124L324.675 17.6654L324.675 17.6027L332.204 17.5276L342.082 64.2396L334.553 64.3147ZM312.003 43.1424L330.011 42.9627L327.901 32.8184L315.227 32.8822L312.003 43.1424ZM414.321 62.6403L404.228 63.6195L404.926 32.9911L393.745 63.2848L378.432 63.0611L378.244 63.063L368.457 38.0612L366.517 63.7448L350.08 64.0343L354.945 17.0497L367.25 17.6799L382.231 53.8619L397.547 16.6246L410.848 16.4919L414.321 62.6403ZM462.839 51.0497C462.933 60.461 452.414 62.7622 435.853 63.3039L422.301 63.4392L421.842 17.3861L427.99 17.3248L427.99 17.2621C430.06 17.2414 432.069 17.2841 434.076 17.2641L435.394 17.2509L435.395 17.3137C449.516 17.612 459.453 19.8346 459.548 29.3714C459.615 36.1476 453.307 39.097 446.167 40.4232C455.713 41.2065 462.772 44.3362 462.839 51.0497ZM453.264 28.4929L435.455 23.3997L435.587 36.5756L453.283 30.3752L453.264 28.4929ZM455.699 52.4386L455.675 50.0544L435.668 44.6694L435.791 57.0924L455.699 52.4386ZM515.982 62.5044L513.02 48.6665L491.123 48.885L486.807 62.7955L470.87 62.9545L485.461 15.9984L501.398 15.8394L501.399 15.9021L506.104 15.8551L506.104 15.7924L513.633 15.7173L523.511 62.4293L515.982 62.5044ZM493.432 41.3321L511.439 41.1524L509.33 31.0082L496.656 31.0719L493.432 41.3321ZM582.454 61.5274L567.581 61.3621L567.611 39.2742L531.51 62.3495L531.058 17.1121L538.641 16.0952L538.835 35.5454L581.992 15.2862L582.454 61.5274ZM557.9 21.8642L552.316 21.9199L548.816 10.7856L564.038 8.18648L557.9 21.8642ZM629.138 32.8247L619.562 28.9671L632.968 14.2128L643.726 16.9919L646.489 61.2022L628.043 61.3863L639.626 21.1115L629.138 32.8247ZM680.89 22.0175L657.843 26.4516L653.963 14.9446L688.606 15.5401L688.668 21.6889L670.711 33.2256C670.711 33.2256 687.239 29.4213 690.627 41.9372C693.952 54.4538 679.461 67.3991 656.292 59.6612L654.276 46.2531C654.276 46.2531 680.802 50.9456 680.091 42.5443C679.442 34.1425 659.852 39.1068 659.852 39.1068L659.04 33.2793L680.89 22.0175ZM699.133 60.677L698.989 46.3089L713.922 46.1599L712.99 59.5975L699.133 60.677ZM247.499 96.1141C247.781 103.432 239.506 108.409 231.239 109.914L231.574 114.177L220.156 114.459L220.198 110.233C211.866 109.48 203.293 105.591 203.001 97.3111C202.655 87.7349 213.154 83.4469 224.613 83.1234C234.984 82.8107 247.205 87.5832 247.499 96.1141ZM221.472 103.736L221.612 92.6075C213.838 93.3544 208.542 95.0387 208.961 99.2596C209.336 103.272 214.28 104.101 221.472 103.736ZM229.875 103.192C236.684 102.288 242.646 100.262 242.319 96.7933C241.99 93.199 235.453 92.0511 228.218 92.2906L229.875 103.192ZM280.274 93.4863L258.481 93.7037L258.526 98.1794L280.318 97.9619L279.12 103.663L258.582 103.868L258.628 108.427L280.128 108.213L280.184 113.86L253.623 114.125L252.996 114.131L252.688 83.3034L253.608 83.2942L280.163 82.4436L280.274 93.4863ZM292.89 92.2728C293.464 103.687 315.192 101.128 315.192 101.128L314.427 112.556C311.305 114.051 285.802 119.744 285.582 97.6584C285.376 77.0789 310.26 80.5955 314.404 85.1139L314.074 89.6769C311.325 86.6924 292.797 82.945 292.89 92.2728ZM350.082 81.8715L350.191 92.7887L338.108 93.4112L338.306 113.28L332.743 113.335L332.547 93.7177L320.464 94.3403L320.355 83.3812L332.438 82.7587L332.437 82.6332L335.197 82.6056L350.082 81.8715ZM360.573 95.2369L389.344 81.7307L389.652 112.558L379.736 112.448L379.757 97.7227L355.689 113.106L355.388 82.948L360.444 82.3119L360.573 95.2369ZM423.841 96.3625C427.996 97.6597 429.945 100.192 429.984 104.04C430.075 113.159 415.723 112.842 397.396 112.439L397.396 112.355L394.928 112.38L394.621 81.6362C412.935 80.826 427.278 80.2227 427.371 89.5505C427.401 92.5621 426.294 94.8321 423.841 96.3625ZM422.755 92.2738C422.725 89.304 406.706 89.5893 399.639 89.869L399.687 94.6374C407.141 95.4415 422.789 95.7456 422.755 92.2738ZM399.782 104.174C404.176 104.34 425.39 104.797 425.356 101.451C425.317 97.561 405.168 98.8915 399.74 99.9496L399.782 104.174ZM463.556 112.365L459.748 99.6437L449.542 99.7455L444.441 112.555L433.482 112.665L446.092 80.9553L459.351 80.823L468.701 112.313L463.556 112.365ZM451.624 94.5375L458.191 94.472L455.377 85.0459L451.624 94.5375ZM499.557 111.796L498.888 90.8867L492.405 90.9514C491.493 104.347 487.252 111.124 479.107 112.377C475.977 113.203 472.78 111.352 471.87 108.224C471.002 105.095 472.81 101.856 475.939 100.946C479.025 100.037 482.306 101.803 483.257 104.889C485.738 102.02 487.771 96.1012 487.649 83.9291L487.615 80.4574L501.627 80.3175L503.468 80.2992L504.491 111.622L499.557 111.796ZM518.463 88.8926C533.561 88.6164 547.158 88.7736 547.276 100.527C547.385 111.486 528.606 111.841 518.686 111.271L518.688 111.438L510.573 111.519L510.266 80.817L518.381 80.736L518.463 88.8926ZM518.594 102.068C526.963 102.361 540.934 102.18 540.889 97.7464C540.853 94.1074 530.605 94.2096 518.518 94.4139L518.594 102.068ZM231.882 132.472L231.975 141.758L209.513 141.982L211.146 163.133L205.587 163.606L203.355 132.756L231.882 132.472ZM257.314 131.13C268.398 131.02 277.494 137.078 277.597 147.41C277.7 157.741 268.727 163.939 257.642 164.049C246.516 164.16 237.475 159.44 237.359 147.811C237.243 136.183 246.187 131.241 257.314 131.13ZM257.536 153.425C266.194 153.338 273.206 151.679 273.164 147.454C273.121 143.188 266.078 141.668 257.42 141.755C248.719 141.841 241.703 142.999 241.751 147.768C241.798 152.536 248.836 153.512 257.536 153.425ZM284.204 132.117C301.688 131.942 319.489 129.924 319.639 144.941C319.748 155.858 300.975 156.882 291.059 156.688L291.119 162.753L283.005 162.834L282.698 132.132L284.204 132.117ZM290.954 146.231C299.614 146.228 314.5 145.661 314.464 141.98C314.418 137.379 303.374 137.364 290.868 137.572L290.954 146.231ZM344.906 130.256C355.991 130.146 365.087 136.204 365.19 146.536C365.293 156.867 356.319 163.065 345.235 163.175C334.108 163.286 325.067 158.566 324.951 146.937C324.835 135.309 333.78 130.367 344.906 130.256ZM345.129 152.551C353.787 152.464 360.799 150.805 360.756 146.58C360.714 142.314 353.671 140.794 345.012 140.881C336.312 140.967 329.296 142.125 329.343 146.894C329.391 151.662 336.428 152.638 345.129 152.551ZM408.694 157.271L409.62 166.256L404.397 166.81L403.935 162.506L371.346 162.287L370.989 168.44L365.757 168.158L366.357 157.024L372.339 157.048C375.138 152.46 378.167 141.554 379.546 133.09L380.102 130.114L397.127 129.944L402.353 129.725L403.423 157.24L408.694 157.271ZM387.473 139.327C386.48 144.65 385.538 150.809 383.007 157.109L398.193 157.209L397.47 139.228L387.473 139.327ZM420.908 139.998C421.482 151.412 443.21 148.853 443.21 148.853L442.445 160.281C439.323 161.776 413.82 167.469 413.6 145.384C413.394 124.804 438.278 128.321 442.422 132.839L442.091 137.402C439.343 134.418 420.815 130.67 420.908 139.998ZM479.987 130.038L466.021 143.187L480.145 154.216L472.232 161.908L454.341 146.483L454.532 161.457L448.676 161.516L448.362 130.102L454.137 130.296L454.3 142.384L468.275 130.155L479.987 130.038ZM490.429 142.944L519.2 129.437L519.508 160.265L509.592 160.155L509.613 145.429L485.545 160.813L485.244 130.655L490.3 130.019L490.429 142.944ZM554.47 154.394L548.085 160.189L538.358 149.535L530.851 160.194L527.312 157.719L535.396 146.218L524.526 134.279L530.952 128.484L540.469 138.972L547.812 128.566L551.35 131.041L543.472 142.247L554.47 154.394ZM209.035 194.754L237.807 181.248L238.114 212.075L228.199 211.965L228.219 197.24L204.152 212.623L203.851 182.465L208.906 181.829L209.035 194.754ZM250.541 190.7C251.116 202.115 272.843 199.555 272.843 199.555L272.078 210.983C268.956 212.479 243.453 218.171 243.233 196.086C243.027 175.506 267.911 179.023 272.056 183.541L271.725 188.104C268.976 185.12 250.448 181.372 250.541 190.7ZM307.734 180.299L307.842 191.216L295.759 191.839L295.957 211.707L290.394 211.763L290.198 192.145L278.115 192.768L278.006 181.809L290.089 181.186L290.088 181.061L292.848 181.033L307.734 180.299ZM333.141 179.376C344.225 179.265 353.322 185.324 353.425 195.656C353.528 205.987 344.554 212.184 333.469 212.295C322.343 212.406 313.302 207.685 313.186 196.057C313.07 184.429 322.014 179.487 333.141 179.376ZM333.363 201.671C342.022 201.584 349.033 199.925 348.991 195.7C348.948 191.433 341.905 189.914 333.247 190C324.547 190.087 317.53 191.245 317.578 196.013C317.625 200.782 324.663 201.757 333.363 201.671ZM360.031 180.363C377.516 180.188 395.316 178.17 395.466 193.186C395.575 204.104 376.802 205.128 366.886 204.934L366.947 210.999L358.832 211.08L358.526 180.378L360.031 180.363ZM366.782 194.477C375.441 194.474 390.328 193.907 390.291 190.226C390.245 185.625 379.201 185.61 366.695 185.818L366.782 194.477ZM405.816 192.79L434.588 179.284L434.896 210.112L424.98 210.001L425.001 195.276L400.933 210.66L400.632 180.501L405.688 179.865L405.816 192.79ZM458.777 179.377L463.712 179.328L464.019 210.03L459.083 210.079L458.941 195.9L446.785 210.202L441.85 210.251L441.543 179.549L446.479 179.5L446.591 190.71L458.777 179.377ZM454.565 180.758L450.843 180.795L448.551 173.33L458.658 171.64L454.565 180.758ZM469.327 209.977L469.232 200.399L479.187 200.299L478.565 209.258L469.327 209.977Z" fill="#1B1B1B"/>
</svg>
