<svg width="1353" height="132" viewBox="0 0 1353 132" fill="none" xmlns="http://www.w3.org/2000/svg">
<path d="M13.5 105V38.256L24.408 48.624H0.54V29.4H38.988V105H13.5ZM61.5566 106.08C57.5246 106.08 54.1406 104.784 51.4046 102.192C48.6686 99.528 47.3006 96.144 47.3006 92.04C47.3006 87.864 48.6686 84.516 51.4046 81.996C54.1406 79.476 57.5246 78.216 61.5566 78.216C65.5886 78.216 68.9726 79.476 71.7086 81.996C74.4446 84.516 75.8126 87.864 75.8126 92.04C75.8126 96.144 74.4446 99.528 71.7086 102.192C68.9726 104.784 65.5886 106.08 61.5566 106.08ZM113.727 106.728C107.031 106.728 101.091 105.18 95.9074 102.084C90.7954 98.988 86.7634 94.488 83.8114 88.584C80.9314 82.68 79.4914 75.552 79.4914 67.2C79.4914 58.848 80.9314 51.72 83.8114 45.816C86.7634 39.912 90.7954 35.412 95.9074 32.316C101.091 29.22 107.031 27.672 113.727 27.672C120.423 27.672 126.327 29.22 131.439 32.316C136.623 35.412 140.655 39.912 143.535 45.816C146.487 51.72 147.963 58.848 147.963 67.2C147.963 75.552 146.487 82.68 143.535 88.584C140.655 94.488 136.623 98.988 131.439 102.084C126.327 105.18 120.423 106.728 113.727 106.728ZM113.727 86.316C115.383 86.316 116.859 85.74 118.155 84.588C119.451 83.436 120.459 81.456 121.179 78.648C121.971 75.84 122.367 72.024 122.367 67.2C122.367 62.304 121.971 58.488 121.179 55.752C120.459 52.944 119.451 50.964 118.155 49.812C116.859 48.66 115.383 48.084 113.727 48.084C112.071 48.084 110.595 48.66 109.299 49.812C108.003 50.964 106.959 52.944 106.167 55.752C105.447 58.488 105.087 62.304 105.087 67.2C105.087 72.024 105.447 75.84 106.167 78.648C106.959 81.456 108.003 83.436 109.299 84.588C110.595 85.74 112.071 86.316 113.727 86.316ZM165.069 105L193.581 38.472L200.385 49.164H164.529L174.465 37.608V60.18H153.405V29.4H218.097V45.06L192.933 105H165.069Z" fill="#1B1B1B"/>
<path d="M1092.16 106.728C1086.98 106.728 1081.72 106.152 1076.39 105C1071.06 103.848 1066.38 102.156 1062.35 99.924L1070.99 81.132C1074.23 83.004 1077.62 84.408 1081.14 85.344C1084.74 86.208 1088.13 86.64 1091.3 86.64C1094.18 86.64 1096.52 86.172 1098.32 85.236C1100.19 84.228 1101.12 82.752 1101.12 80.808C1101.12 79.152 1100.44 77.892 1099.07 77.028C1097.7 76.092 1095.4 75.624 1092.16 75.624H1082.12V59.964L1101.66 40.092L1103.93 48.624H1066.24V29.4H1122.62V45.06L1103.07 64.932L1090.86 58.02H1097.56C1107.06 58.02 1114.3 60.144 1119.27 64.392C1124.24 68.64 1126.72 74.112 1126.72 80.808C1126.72 85.128 1125.5 89.268 1123.05 93.228C1120.67 97.188 1116.93 100.428 1111.82 102.948C1106.78 105.468 1100.22 106.728 1092.16 106.728ZM1142.84 105V38.256L1153.75 48.624H1129.88V29.4H1168.33V105H1142.84ZM1190.9 106.08C1186.86 106.08 1183.48 104.784 1180.74 102.192C1178.01 99.528 1176.64 96.144 1176.64 92.04C1176.64 87.864 1178.01 84.516 1180.74 81.996C1183.48 79.476 1186.86 78.216 1190.9 78.216C1194.93 78.216 1198.31 79.476 1201.05 81.996C1203.78 84.516 1205.15 87.864 1205.15 92.04C1205.15 96.144 1203.78 99.528 1201.05 102.192C1198.31 104.784 1194.93 106.08 1190.9 106.08ZM1243.07 106.728C1236.37 106.728 1230.43 105.18 1225.25 102.084C1220.14 98.988 1216.1 94.488 1213.15 88.584C1210.27 82.68 1208.83 75.552 1208.83 67.2C1208.83 58.848 1210.27 51.72 1213.15 45.816C1216.1 39.912 1220.14 35.412 1225.25 32.316C1230.43 29.22 1236.37 27.672 1243.07 27.672C1249.76 27.672 1255.67 29.22 1260.78 32.316C1265.96 35.412 1270 39.912 1272.88 45.816C1275.83 51.72 1277.3 58.848 1277.3 67.2C1277.3 75.552 1275.83 82.68 1272.88 88.584C1270 94.488 1265.96 98.988 1260.78 102.084C1255.67 105.18 1249.76 106.728 1243.07 106.728ZM1243.07 86.316C1244.72 86.316 1246.2 85.74 1247.5 84.588C1248.79 83.436 1249.8 81.456 1250.52 78.648C1251.31 75.84 1251.71 72.024 1251.71 67.2C1251.71 62.304 1251.31 58.488 1250.52 55.752C1249.8 52.944 1248.79 50.964 1247.5 49.812C1246.2 48.66 1244.72 48.084 1243.07 48.084C1241.41 48.084 1239.94 48.66 1238.64 49.812C1237.34 50.964 1236.3 52.944 1235.51 55.752C1234.79 58.488 1234.43 62.304 1234.43 67.2C1234.43 72.024 1234.79 75.84 1235.51 78.648C1236.3 81.456 1237.34 83.436 1238.64 84.588C1239.94 85.74 1241.41 86.316 1243.07 86.316ZM1294.41 105L1322.92 38.472L1329.72 49.164H1293.87L1303.8 37.608V60.18H1282.74V29.4H1347.44V45.06L1322.27 105H1294.41Z" fill="#1B1B1B"/>
<rect x="257" y="67" width="769" height="14" fill="#1B1B1B"/>
</svg>
