<svg width="1358" height="311" viewBox="0 0 1358 311" fill="none" xmlns="http://www.w3.org/2000/svg">
<path d="M621.508 140L581.821 217.226L647.185 274.379L512.888 300.041L444.838 243.401L487.21 165.662L621.508 140Z" fill="#FC4F2D"/>
<path d="M4.6875 248.801V172.895H62.4843V192.739H24.3146L29.8448 187.209V248.801H4.6875Z" fill="#1B1B1B"/>
<path d="M104.289 250.536C98.0722 250.536 92.3251 249.56 87.0478 247.608C81.8429 245.656 77.3247 242.909 73.4932 239.367C69.6618 235.752 66.6617 231.523 64.493 226.68C62.3965 221.836 61.3483 216.559 61.3483 210.848C61.3483 205.064 62.3965 199.787 64.493 195.016C66.6617 190.172 69.6618 185.98 73.4932 182.437C77.3247 178.823 81.8429 176.04 87.0478 174.088C92.3251 172.136 98.0361 171.16 104.181 171.16C110.398 171.16 116.109 172.136 121.314 174.088C126.519 176.04 131.037 178.823 134.868 182.437C138.7 185.98 141.664 190.172 143.76 195.016C145.929 199.787 147.013 205.064 147.013 210.848C147.013 216.559 145.929 221.836 143.76 226.68C141.664 231.523 138.7 235.752 134.868 239.367C131.037 242.909 126.519 245.656 121.314 247.608C116.109 249.56 110.434 250.536 104.289 250.536ZM104.181 229.824C106.566 229.824 108.771 229.39 110.795 228.523C112.892 227.655 114.699 226.427 116.217 224.836C117.808 223.173 119.037 221.185 119.904 218.872C120.772 216.486 121.205 213.812 121.205 210.848C121.205 207.884 120.772 205.245 119.904 202.932C119.037 200.546 117.808 198.558 116.217 196.968C114.699 195.305 112.892 194.04 110.795 193.173C108.771 192.305 106.566 191.871 104.181 191.871C101.795 191.871 99.5542 192.305 97.4578 193.173C95.4336 194.04 93.6263 195.305 92.0359 196.968C90.5178 198.558 89.325 200.546 88.4575 202.932C87.59 205.245 87.1563 207.884 87.1563 210.848C87.1563 213.812 87.59 216.486 88.4575 218.872C89.325 221.185 90.5178 223.173 92.0359 224.836C93.6263 226.427 95.4336 227.655 97.4578 228.523C99.5542 229.39 101.795 229.824 104.181 229.824Z" fill="#1B1B1B"/>
<path d="M156.224 248.801V172.895H192.767C199.852 172.895 205.96 174.052 211.093 176.365C216.298 178.678 220.31 182.004 223.129 186.341C225.949 190.606 227.358 195.667 227.358 201.522C227.358 207.378 225.949 212.438 223.129 216.703C220.31 220.969 216.298 224.294 211.093 226.68C205.96 228.993 199.852 230.15 192.767 230.15H170.429L181.815 219.197V248.801H156.224ZM181.815 222.017L170.429 210.414H191.14C194.683 210.414 197.285 209.619 198.948 208.028C200.683 206.438 201.55 204.269 201.55 201.522C201.55 198.775 200.683 196.606 198.948 195.016C197.285 193.426 194.683 192.63 191.14 192.63H170.429L181.815 181.028V222.017Z" fill="#1B1B1B"/>
<path d="M274.887 250.536C268.67 250.536 262.923 249.56 257.645 247.608C252.44 245.656 247.922 242.909 244.091 239.367C240.259 235.752 237.259 231.523 235.09 226.68C232.994 221.836 231.946 216.559 231.946 210.848C231.946 205.064 232.994 199.787 235.09 195.016C237.259 190.172 240.259 185.98 244.091 182.437C247.922 178.823 252.44 176.04 257.645 174.088C262.923 172.136 268.634 171.16 274.778 171.16C280.995 171.16 286.706 172.136 291.911 174.088C297.116 176.04 301.634 178.823 305.466 182.437C309.297 185.98 312.261 190.172 314.358 195.016C316.526 199.787 317.611 205.064 317.611 210.848C317.611 216.559 316.526 221.836 314.358 226.68C312.261 231.523 309.297 235.752 305.466 239.367C301.634 242.909 297.116 245.656 291.911 247.608C286.706 249.56 281.031 250.536 274.887 250.536ZM274.778 229.824C277.164 229.824 279.369 229.39 281.393 228.523C283.489 227.655 285.297 226.427 286.815 224.836C288.405 223.173 289.634 221.185 290.502 218.872C291.369 216.486 291.803 213.812 291.803 210.848C291.803 207.884 291.369 205.245 290.502 202.932C289.634 200.546 288.405 198.558 286.815 196.968C285.297 195.305 283.489 194.04 281.393 193.173C279.369 192.305 277.164 191.871 274.778 191.871C272.393 191.871 270.152 192.305 268.055 193.173C266.031 194.04 264.224 195.305 262.633 196.968C261.115 198.558 259.922 200.546 259.055 202.932C258.187 205.245 257.754 207.884 257.754 210.848C257.754 213.812 258.187 216.486 259.055 218.872C259.922 221.185 261.115 223.173 262.633 224.836C264.224 226.427 266.031 227.655 268.055 228.523C270.152 229.39 272.393 229.824 274.778 229.824Z" fill="#1B1B1B"/>
<path d="M348.993 231.993L321.992 228.957C324.378 228.957 326.33 228.162 327.848 226.571C329.438 224.908 330.703 222.631 331.643 219.74C332.583 216.776 333.27 213.306 333.704 209.33C334.21 205.281 334.571 200.835 334.788 195.992L335.655 172.895H399.85V237.957H374.693V192.739H357.234L357.017 198.161C356.873 202.137 356.62 205.86 356.258 209.33C355.897 212.8 355.391 215.98 354.74 218.872C354.162 221.764 353.403 224.33 352.463 226.571C351.523 228.74 350.367 230.547 348.993 231.993ZM319.824 263.657V228.957H409.826V263.657H386.404V248.801H343.246V263.657H319.824Z" fill="#1B1B1B"/>
<path d="M456.59 250.536C450.518 250.536 444.879 249.596 439.674 247.716C434.542 245.764 430.06 243.017 426.228 239.475C422.469 235.933 419.541 231.74 417.445 226.896C415.348 222.053 414.3 216.703 414.3 210.848C414.3 204.992 415.348 199.643 417.445 194.799C419.541 189.956 422.469 185.763 426.228 182.22C430.06 178.678 434.542 175.967 439.674 174.088C444.879 172.136 450.518 171.16 456.59 171.16C464.036 171.16 470.615 172.461 476.326 175.064C482.109 177.666 486.88 181.425 490.64 186.341L474.483 200.763C472.241 197.944 469.747 195.775 467 194.257C464.326 192.667 461.289 191.871 457.892 191.871C455.217 191.871 452.795 192.305 450.626 193.173C448.458 194.04 446.578 195.305 444.988 196.968C443.47 198.631 442.277 200.655 441.409 203.04C440.542 205.354 440.108 207.956 440.108 210.848C440.108 213.739 440.542 216.378 441.409 218.764C442.277 221.077 443.47 223.065 444.988 224.728C446.578 226.39 448.458 227.655 450.626 228.523C452.795 229.39 455.217 229.824 457.892 229.824C461.289 229.824 464.326 229.065 467 227.547C469.747 225.957 472.241 223.752 474.483 220.932L490.64 235.354C486.88 240.198 482.109 243.957 476.326 246.632C470.615 249.234 464.036 250.536 456.59 250.536Z" fill="#1B1B1B"/>
<path d="M544.999 248.801L526.131 213.233L546.518 201.305L573.844 248.801H544.999ZM497.721 248.801V172.895H523.312V248.801H497.721ZM515.938 221.366V201.197H544.674V221.366H515.938ZM549.012 213.559L525.481 211.173L547.277 172.895H573.952L549.012 213.559Z" fill="#1B1B1B"/>
<path d="M579.17 248.801V172.895H604.327V212.366L630.46 172.895H654.533V248.801H629.376V209.438L603.351 248.801H579.17Z" fill="#1B1B1B"/>
<path d="M659.5 248.801L686.176 210.197L661.127 172.786H690.405L701.465 190.679L712.526 172.786H742.129L717.514 209.004L744.406 248.801H714.261L701.465 229.174L688.887 248.801H659.5Z" fill="#1B1B1B"/>
<path d="M783.971 248.801V172.895H809.129V212.366L835.262 172.895H859.335V248.801H834.178V209.438L808.153 248.801H783.971Z" fill="#1B1B1B"/>
<path d="M910.987 250.536C904.915 250.536 899.276 249.596 894.071 247.716C888.939 245.764 884.456 243.017 880.625 239.475C876.866 235.933 873.938 231.74 871.842 226.896C869.745 222.053 868.697 216.703 868.697 210.848C868.697 204.992 869.745 199.643 871.842 194.799C873.938 189.956 876.866 185.763 880.625 182.22C884.456 178.678 888.939 175.967 894.071 174.088C899.276 172.136 904.915 171.16 910.987 171.16C918.433 171.16 925.012 172.461 930.723 175.064C936.506 177.666 941.277 181.425 945.036 186.341L928.879 200.763C926.638 197.944 924.144 195.775 921.397 194.257C918.723 192.667 915.686 191.871 912.289 191.871C909.614 191.871 907.192 192.305 905.023 193.173C902.855 194.04 900.975 195.305 899.385 196.968C897.867 198.631 896.674 200.655 895.806 203.04C894.939 205.354 894.505 207.956 894.505 210.848C894.505 213.739 894.939 216.378 895.806 218.764C896.674 221.077 897.867 223.065 899.385 224.728C900.975 226.39 902.855 227.655 905.023 228.523C907.192 229.39 909.614 229.824 912.289 229.824C915.686 229.824 918.723 229.065 921.397 227.547C924.144 225.957 926.638 223.752 928.879 220.932L945.036 235.354C941.277 240.198 936.506 243.957 930.723 246.632C925.012 249.234 918.433 250.536 910.987 250.536Z" fill="#1B1B1B"/>
<path d="M969.481 248.801V187.209L975.011 192.739H947.251V172.895H1016.87V192.739H989.108L994.638 187.209V248.801H969.481Z" fill="#1B1B1B"/>
<path d="M1062.96 250.536C1056.74 250.536 1051 249.56 1045.72 247.608C1040.51 245.656 1036 242.909 1032.16 239.367C1028.33 235.752 1025.33 231.523 1023.16 226.68C1021.07 221.836 1020.02 216.559 1020.02 210.848C1020.02 205.064 1021.07 199.787 1023.16 195.016C1025.33 190.172 1028.33 185.98 1032.16 182.437C1036 178.823 1040.51 176.04 1045.72 174.088C1051 172.136 1056.71 171.16 1062.85 171.16C1069.07 171.16 1074.78 172.136 1079.98 174.088C1085.19 176.04 1089.71 178.823 1093.54 182.437C1097.37 185.98 1100.33 190.172 1102.43 195.016C1104.6 199.787 1105.68 205.064 1105.68 210.848C1105.68 216.559 1104.6 221.836 1102.43 226.68C1100.33 231.523 1097.37 235.752 1093.54 239.367C1089.71 242.909 1085.19 245.656 1079.98 247.608C1074.78 249.56 1069.1 250.536 1062.96 250.536ZM1062.85 229.824C1065.24 229.824 1067.44 229.39 1069.47 228.523C1071.56 227.655 1073.37 226.427 1074.89 224.836C1076.48 223.173 1077.71 221.185 1078.57 218.872C1079.44 216.486 1079.88 213.812 1079.88 210.848C1079.88 207.884 1079.44 205.245 1078.57 202.932C1077.71 200.546 1076.48 198.558 1074.89 196.968C1073.37 195.305 1071.56 194.04 1069.47 193.173C1067.44 192.305 1065.24 191.871 1062.85 191.871C1060.47 191.871 1058.22 192.305 1056.13 193.173C1054.1 194.04 1052.3 195.305 1050.71 196.968C1049.19 198.558 1048 200.546 1047.13 202.932C1046.26 205.245 1045.83 207.884 1045.83 210.848C1045.83 213.812 1046.26 216.486 1047.13 218.872C1048 221.185 1049.19 223.173 1050.71 224.836C1052.3 226.427 1054.1 227.655 1056.13 228.523C1058.22 229.39 1060.47 229.824 1062.85 229.824Z" fill="#1B1B1B"/>
<path d="M1114.89 248.801V172.895H1151.44C1158.52 172.895 1164.63 174.052 1169.76 176.365C1174.97 178.678 1178.98 182.004 1181.8 186.341C1184.62 190.606 1186.03 195.667 1186.03 201.522C1186.03 207.378 1184.62 212.438 1181.8 216.703C1178.98 220.969 1174.97 224.294 1169.76 226.68C1164.63 228.993 1158.52 230.15 1151.44 230.15H1129.1L1140.49 219.197V248.801H1114.89ZM1140.49 222.017L1129.1 210.414H1149.81C1153.35 210.414 1155.96 209.619 1157.62 208.028C1159.35 206.438 1160.22 204.269 1160.22 201.522C1160.22 198.775 1159.35 196.606 1157.62 195.016C1155.96 193.426 1153.35 192.63 1149.81 192.63H1129.1L1140.49 181.028V222.017Z" fill="#1B1B1B"/>
<path d="M1193.79 248.801V172.895H1218.94V212.366L1245.08 172.895H1269.15V248.801H1243.99V209.438L1217.97 248.801H1193.79Z" fill="#1B1B1B"/>
<path d="M1282.63 248.801V172.895H1307.79V212.366L1333.92 172.895H1358V248.801H1332.84V209.438L1306.81 248.801H1282.63ZM1320.26 168.557C1311.66 168.557 1305.55 166.967 1301.93 163.786C1298.39 160.533 1296.62 155.906 1296.62 149.906H1313.65C1313.65 152.292 1314.12 154.063 1315.06 155.22C1316.07 156.304 1317.8 156.846 1320.26 156.846C1322.79 156.846 1324.56 156.304 1325.57 155.22C1326.59 154.063 1327.09 152.292 1327.09 149.906H1344.12C1344.12 155.906 1342.27 160.533 1338.59 163.786C1334.97 166.967 1328.86 168.557 1320.26 168.557Z" fill="#1B1B1B"/>
<rect x="159.234" y="63.9727" width="67.1072" height="110.656" transform="rotate(20.2156 159.234 63.9727)" fill="#F9CE38"/>
<rect x="159.273" y="63.8711" width="94.7523" height="94.7523" transform="rotate(-24.7844 159.273 63.8711)" fill="#F9CE38"/>
<path d="M48.2807 112.719C37.7984 112.719 28.9789 111.418 21.8221 108.815C14.7375 106.213 9.38797 102.381 5.77341 97.321C2.15884 92.2607 0.351562 86.0798 0.351562 78.7783C0.351562 71.4769 2.15884 65.3322 5.77341 60.3441C9.38797 55.2837 14.7737 51.4523 21.9305 48.8498C29.0873 46.2473 37.9069 44.946 48.3891 44.946C48.5337 44.946 49.112 44.946 50.1241 44.946C51.1362 44.946 52.1482 44.946 53.1603 44.946C54.1724 44.946 54.7146 44.946 54.7869 44.946C65.1245 44.946 73.7633 46.2834 80.7033 48.9582C87.7155 51.5607 92.9928 55.3921 96.535 60.4525C100.077 65.4406 101.848 71.5492 101.848 78.7783C101.848 85.9352 100.113 92.0438 96.6435 97.1042C93.2458 102.165 88.1493 106.032 81.3539 108.707C74.5585 111.382 66.1366 112.719 56.0881 112.719C55.8712 112.719 55.1483 112.719 53.9194 112.719C52.7627 112.719 51.606 112.719 50.4494 112.719C49.2927 112.719 48.5698 112.719 48.2807 112.719ZM50.5578 93.2004C50.7747 93.2004 51.1723 93.2004 51.7506 93.2004C52.329 93.2004 52.7266 93.2004 52.9434 93.2004C58.799 93.2004 63.498 92.7306 67.0402 91.7908C70.5825 90.7787 73.1488 89.2244 74.7392 87.128C76.3296 84.9592 77.1249 82.1399 77.1249 78.6699C77.1249 75.1999 76.2935 72.4529 74.6308 70.4287C72.9681 68.3323 70.3656 66.8141 66.8233 65.8744C63.3534 64.9346 58.8352 64.4647 53.2687 64.4647C52.9796 64.4647 52.5458 64.4647 51.9675 64.4647C51.3892 64.4647 50.9193 64.4647 50.5578 64.4647C44.3408 64.4647 39.3527 64.9346 35.5935 65.8744C31.9067 66.7419 29.2319 68.2238 27.5692 70.3203C25.9065 72.4167 25.0752 75.2361 25.0752 78.7783C25.0752 82.3206 26.0149 85.1761 27.8945 87.3449C29.7741 89.4413 32.5934 90.9594 36.3526 91.8992C40.184 92.7667 44.9191 93.2004 50.5578 93.2004ZM39.3888 120.96V37.3555H62.8112V120.96H39.3888Z" fill="#1B1B1B"/>
<path d="M111.008 117.057V41.1508H172.709V60.4525H136.165V97.7548H174.118V117.057H111.008ZM134.43 87.7786V69.3443H168.263V87.7786H134.43Z" fill="#1B1B1B"/>
<path d="M222.669 118.792C216.597 118.792 210.958 117.852 205.753 115.972C200.62 114.02 196.138 111.273 192.307 107.731C188.548 104.189 185.62 99.9958 183.523 95.1523C181.427 90.3088 180.379 84.9592 180.379 79.1037C180.379 73.2481 181.427 67.8985 183.523 63.055C185.62 58.2115 188.548 54.0186 192.307 50.4763C196.138 46.9341 200.62 44.2231 205.753 42.3436C210.958 40.3917 216.597 39.4158 222.669 39.4158C230.115 39.4158 236.694 40.717 242.405 43.3195C248.188 45.922 252.959 49.6811 256.718 54.5969L240.561 69.019C238.32 66.1997 235.826 64.0309 233.079 62.5128C230.404 60.9224 227.368 60.1272 223.97 60.1272C221.296 60.1272 218.874 60.561 216.705 61.4284C214.536 62.2959 212.657 63.561 211.066 65.2237C209.548 66.8864 208.355 68.9106 207.488 71.2962C206.62 73.6095 206.187 76.212 206.187 79.1037C206.187 81.9953 206.62 84.6339 207.488 87.0195C208.355 89.3329 209.548 91.3209 211.066 92.9836C212.657 94.6463 214.536 95.9114 216.705 96.7789C218.874 97.6464 221.296 98.0801 223.97 98.0801C227.368 98.0801 230.404 97.321 233.079 95.8029C235.826 94.2125 238.32 92.0076 240.561 89.1883L256.718 103.61C252.959 108.454 248.188 112.213 242.405 114.888C236.694 117.49 230.115 118.792 222.669 118.792Z" fill="#1B1B1B"/>
<path d="M281.162 117.057V55.4644L286.693 60.9947H258.933V41.1508H328.549V60.9947H300.789L306.32 55.4644V117.057H281.162Z" fill="#1B1B1B"/>
<path d="M336.989 117.057V41.1508H362.146V80.6218L388.279 41.1508H412.352V117.057H387.195V77.694L361.17 117.057H336.989Z" fill="#1B1B1B"/>
<path d="M425.835 117.057V41.1508H464.33C473.728 41.1508 480.993 42.8857 486.126 46.3557C491.331 49.8257 493.933 54.7054 493.933 60.9947C493.933 67.1395 491.548 72.0191 486.776 75.6337C482.005 79.1759 475.571 80.9471 467.475 80.9471L469.643 75.0915C478.246 75.0915 485.005 76.7903 489.921 80.188C494.837 83.5857 497.295 88.5377 497.295 95.0439C497.295 101.767 494.62 107.117 489.27 111.093C483.921 115.069 476.294 117.057 466.39 117.057H425.835ZM450.992 99.1645H465.197C467.294 99.1645 468.848 98.6584 469.86 97.6464C470.945 96.562 471.487 95.0439 471.487 93.092C471.487 91.1401 470.945 89.6943 469.86 88.7545C468.848 87.7425 467.294 87.2364 465.197 87.2364H450.992V99.1645ZM450.992 70.3203H461.836C464.005 70.3203 465.595 69.8504 466.607 68.9106C467.619 67.9708 468.125 66.5973 468.125 64.79C468.125 62.9104 467.619 61.5007 466.607 60.561C465.595 59.5489 464.005 59.0428 461.836 59.0428H450.992V70.3203Z" fill="#1B1B1B"/>
<path d="M500.023 117.057L533.205 41.1508H558.362L591.544 117.057H565.086L540.579 53.2957H550.555L526.048 117.057H500.023ZM519.759 103.827L526.265 85.393H561.182L567.688 103.827H519.759Z" fill="#1B1B1B"/>
<path d="M605.248 118.466C603.657 118.466 601.959 118.358 600.151 118.141C598.344 117.924 596.428 117.563 594.404 117.057L595.705 96.562C596.717 96.7789 597.657 96.8873 598.525 96.8873C601.344 96.8873 603.441 95.7306 604.814 93.4173C606.188 91.104 607.127 87.9955 607.633 84.0917C608.14 80.1157 608.465 75.6698 608.609 70.754L609.585 41.1508H673.672V117.057H648.514V55.5729L654.044 60.9947H626.393L631.381 55.2475L630.947 69.7781C630.731 77.0795 630.224 83.7303 629.429 89.7305C628.706 95.6583 627.441 100.791 625.634 105.128C623.827 109.394 621.26 112.683 617.935 114.996C614.682 117.31 610.453 118.466 605.248 118.466Z" fill="#1B1B1B"/>
<path d="M687.079 117.057V41.1508H712.236V64.4647H727.959C737.213 64.4647 744.442 66.5611 749.647 70.754C754.924 74.8746 757.563 81.1278 757.563 89.5136C757.563 98.55 754.599 105.418 748.671 110.117C742.743 114.743 734.755 117.057 724.706 117.057H687.079ZM712.236 99.1645H722.971C725.502 99.1645 727.598 98.3693 729.261 96.7789C730.996 95.1162 731.863 92.839 731.863 89.9473C731.863 87.0557 730.996 85.0677 729.261 83.9833C727.598 82.8989 725.502 82.3568 722.971 82.3568H712.236V99.1645Z" fill="#1B1B1B"/>
<path d="M961.312 0L988.005 82.4075L1091.24 63.7236L1014.92 219.326L1003.78 129.264L884.997 155.602L961.312 0Z" fill="#42873A"/>
</svg>
