<svg width="254" height="144" viewBox="0 0 254 144" fill="none" xmlns="http://www.w3.org/2000/svg">
<path d="M95.7812 91.5977L83.7221 115.064L103.584 132.43L62.7759 140.228L42.0983 123.017L54.9736 99.3953L95.7812 91.5977Z" fill="#FC4F2D"/>
<path d="M1.3125 75.2989V52.2342H18.8746V58.264H7.27637L8.9568 56.5836V75.2989H1.3125Z" fill="#1B1B1B"/>
<path d="M31.5775 75.8261C29.6884 75.8261 27.942 75.5296 26.3385 74.9365C24.7569 74.3434 23.384 73.5087 22.2198 72.4323C21.0556 71.334 20.144 70.049 19.485 68.5772C18.8479 67.1055 18.5294 65.5019 18.5294 63.7666C18.5294 62.0093 18.8479 60.4057 19.485 58.9559C20.144 57.4842 21.0556 56.2101 22.2198 55.1338C23.384 54.0355 24.7569 53.1898 26.3385 52.5967C27.942 52.0036 29.6774 51.707 31.5445 51.707C33.4336 51.707 35.169 52.0036 36.7505 52.5967C38.3321 53.1898 39.705 54.0355 40.8692 55.1338C42.0335 56.2101 42.9341 57.4842 43.5711 58.9559C44.2301 60.4057 44.5596 62.0093 44.5596 63.7666C44.5596 65.5019 44.2301 67.1055 43.5711 68.5772C42.9341 70.049 42.0335 71.334 40.8692 72.4323C39.705 73.5087 38.3321 74.3434 36.7505 74.9365C35.169 75.5296 33.4446 75.8261 31.5775 75.8261ZM31.5445 69.5328C32.2694 69.5328 32.9394 69.401 33.5544 69.1374C34.1915 68.8738 34.7406 68.5003 35.2019 68.0171C35.6852 67.5118 36.0586 66.9078 36.3222 66.2048C36.5858 65.48 36.7176 64.6672 36.7176 63.7666C36.7176 62.866 36.5858 62.0642 36.3222 61.3613C36.0586 60.6364 35.6852 60.0323 35.2019 59.549C34.7406 59.0438 34.1915 58.6594 33.5544 58.3958C32.9394 58.1322 32.2694 58.0004 31.5445 58.0004C30.8196 58.0004 30.1387 58.1322 29.5016 58.3958C28.8866 58.6594 28.3374 59.0438 27.8542 59.549C27.3929 60.0323 27.0304 60.6364 26.7668 61.3613C26.5032 62.0642 26.3714 62.866 26.3714 63.7666C26.3714 64.6672 26.5032 65.48 26.7668 66.2048C27.0304 66.9078 27.3929 67.5118 27.8542 68.0171C28.3374 68.5003 28.8866 68.8738 29.5016 69.1374C30.1387 69.401 30.8196 69.5328 31.5445 69.5328Z" fill="#1B1B1B"/>
<path d="M47.3582 75.2989V52.2342H58.4623C60.615 52.2342 62.4711 52.5857 64.0307 53.2886C65.6123 53.9915 66.8315 55.002 67.6881 56.32C68.5448 57.616 68.9732 59.1536 68.9732 60.9329C68.9732 62.7122 68.5448 64.2498 67.6881 65.5459C66.8315 66.8419 65.6123 67.8523 64.0307 68.5772C62.4711 69.2801 60.615 69.6316 58.4623 69.6316H51.6746L55.1343 66.3037V75.2989H47.3582ZM55.1343 67.1604L51.6746 63.6348H57.968C59.0444 63.6348 59.8352 63.3931 60.3404 62.9099C60.8676 62.4266 61.1312 61.7676 61.1312 60.9329C61.1312 60.0982 60.8676 59.4392 60.3404 58.9559C59.8352 58.4727 59.0444 58.231 57.968 58.231H51.6746L55.1343 54.7054V67.1604Z" fill="#1B1B1B"/>
<path d="M83.4151 75.8261C81.526 75.8261 79.7797 75.5296 78.1761 74.9365C76.5946 74.3434 75.2217 73.5087 74.0575 72.4323C72.8932 71.334 71.9816 70.049 71.3226 68.5772C70.6856 67.1055 70.3671 65.5019 70.3671 63.7666C70.3671 62.0093 70.6856 60.4057 71.3226 58.9559C71.9816 57.4842 72.8932 56.2101 74.0575 55.1338C75.2217 54.0355 76.5946 53.1898 78.1761 52.5967C79.7797 52.0036 81.515 51.707 83.3822 51.707C85.2713 51.707 87.0066 52.0036 88.5882 52.5967C90.1698 53.1898 91.5427 54.0355 92.7069 55.1338C93.8711 56.2101 94.7717 57.4842 95.4088 58.9559C96.0678 60.4057 96.3973 62.0093 96.3973 63.7666C96.3973 65.5019 96.0678 67.1055 95.4088 68.5772C94.7717 70.049 93.8711 71.334 92.7069 72.4323C91.5427 73.5087 90.1698 74.3434 88.5882 74.9365C87.0066 75.5296 85.2823 75.8261 83.4151 75.8261ZM83.3822 69.5328C84.1071 69.5328 84.777 69.401 85.3921 69.1374C86.0291 68.8738 86.5783 68.5003 87.0396 68.0171C87.5228 67.5118 87.8963 66.9078 88.1599 66.2048C88.4235 65.48 88.5553 64.6672 88.5553 63.7666C88.5553 62.866 88.4235 62.0642 88.1599 61.3613C87.8963 60.6364 87.5228 60.0323 87.0396 59.549C86.5783 59.0438 86.0291 58.6594 85.3921 58.3958C84.777 58.1322 84.1071 58.0004 83.3822 58.0004C82.6573 58.0004 81.9763 58.1322 81.3393 58.3958C80.7242 58.6594 80.1751 59.0438 79.6918 59.549C79.2305 60.0323 78.8681 60.6364 78.6045 61.3613C78.3409 62.0642 78.2091 62.866 78.2091 63.7666C78.2091 64.6672 78.3409 65.48 78.6045 66.2048C78.8681 66.9078 79.2305 67.5118 79.6918 68.0171C80.1751 68.5003 80.7242 68.8738 81.3393 69.1374C81.9763 69.401 82.6573 69.5328 83.3822 69.5328Z" fill="#1B1B1B"/>
<path d="M105.933 70.1917L97.7286 69.2692C98.4535 69.2692 99.0466 69.0275 99.5079 68.5443C99.9912 68.039 100.376 67.3471 100.661 66.4684C100.947 65.5678 101.155 64.5134 101.287 63.3053C101.441 62.0752 101.551 60.7242 101.617 59.2525L101.88 52.2342H121.386V72.004H113.742V58.264H108.437L108.371 59.9115C108.327 61.1196 108.251 62.2509 108.141 63.3053C108.031 64.3597 107.877 65.3262 107.679 66.2048C107.504 67.0835 107.273 67.8633 106.987 68.5443C106.702 69.2033 106.35 69.7524 105.933 70.1917ZM97.0696 79.813V69.2692H124.418V79.813H117.301V75.2989H104.187V79.813H97.0696Z" fill="#1B1B1B"/>
<path d="M138.628 75.8261C136.782 75.8261 135.069 75.5406 133.487 74.9694C131.928 74.3763 130.566 73.5416 129.402 72.4653C128.259 71.3889 127.37 70.1149 126.733 68.6431C126.096 67.1714 125.777 65.5459 125.777 63.7666C125.777 61.9873 126.096 60.3618 126.733 58.89C127.37 57.4183 128.259 56.1442 129.402 55.0679C130.566 53.9915 131.928 53.1678 133.487 52.5967C135.069 52.0036 136.782 51.707 138.628 51.707C140.89 51.707 142.889 52.1024 144.624 52.8932C146.382 53.684 147.831 54.8263 148.974 56.32L144.064 60.7023C143.383 59.8456 142.625 59.1866 141.791 58.7253C140.978 58.242 140.055 58.0004 139.023 58.0004C138.21 58.0004 137.474 58.1322 136.815 58.3958C136.156 58.6594 135.585 59.0438 135.102 59.549C134.641 60.0543 134.278 60.6693 134.015 61.3942C133.751 62.0971 133.619 62.8879 133.619 63.7666C133.619 64.6452 133.751 65.447 134.015 66.1719C134.278 66.8748 134.641 67.4789 135.102 67.9841C135.585 68.4894 136.156 68.8738 136.815 69.1374C137.474 69.401 138.21 69.5328 139.023 69.5328C140.055 69.5328 140.978 69.3021 141.791 68.8408C142.625 68.3576 143.383 67.6876 144.064 66.8309L148.974 71.2132C147.831 72.6849 146.382 73.8272 144.624 74.6399C142.889 75.4307 140.89 75.8261 138.628 75.8261Z" fill="#1B1B1B"/>
<path d="M165.491 75.2989L159.758 64.4915L165.953 60.867L174.256 75.2989H165.491ZM151.125 75.2989V52.2342H158.902V75.2989H151.125ZM156.661 66.9627V60.8341H165.393V66.9627H156.661ZM166.711 64.5903L159.561 63.8654L166.183 52.2342H174.289L166.711 64.5903Z" fill="#1B1B1B"/>
<path d="M175.874 75.2989V52.2342H183.519V64.2279L191.46 52.2342H198.774V75.2989H191.13V63.3382L183.222 75.2989H175.874Z" fill="#1B1B1B"/>
<path d="M200.284 75.2989L208.389 63.5689L200.778 52.2013H209.674L213.035 57.638L216.396 52.2013H225.391L217.912 63.2064L226.083 75.2989H216.923L213.035 69.3351L209.213 75.2989H200.284Z" fill="#1B1B1B"/>
<path d="M1.3125 113.148V90.0837H8.95678V102.077L16.8976 90.0837H24.2124V113.148H16.5681V101.188L8.66023 113.148H1.3125Z" fill="#1B1B1B"/>
<path d="M39.9075 113.676C38.0623 113.676 36.349 113.39 34.7674 112.819C33.2078 112.226 31.8459 111.391 30.6816 110.315C29.5394 109.238 28.6497 107.964 28.0127 106.493C27.3757 105.021 27.0572 103.395 27.0572 101.616C27.0572 99.8367 27.3757 98.2112 28.0127 96.7395C28.6497 95.2677 29.5394 93.9937 30.6816 92.9173C31.8459 91.841 33.2078 91.0172 34.7674 90.4461C36.349 89.853 38.0623 89.5565 39.9075 89.5565C42.1701 89.5565 44.169 89.9519 45.9043 90.7427C47.6616 91.5334 49.1114 92.6757 50.2537 94.1694L45.3442 98.5517C44.6632 97.695 43.9054 97.036 43.0707 96.5747C42.2579 96.0915 41.3353 95.8498 40.3029 95.8498C39.4901 95.8498 38.7543 95.9816 38.0953 96.2452C37.4363 96.5088 36.8652 96.8932 36.3819 97.3985C35.9206 97.9037 35.5582 98.5188 35.2946 99.2436C35.031 99.9466 34.8992 100.737 34.8992 101.616C34.8992 102.495 35.031 103.296 35.2946 104.021C35.5582 104.724 35.9206 105.328 36.3819 105.834C36.8652 106.339 37.4363 106.723 38.0953 106.987C38.7543 107.25 39.4901 107.382 40.3029 107.382C41.3353 107.382 42.2579 107.152 43.0707 106.69C43.9054 106.207 44.6632 105.537 45.3442 104.68L50.2537 109.063C49.1114 110.534 47.6616 111.677 45.9043 112.489C44.169 113.28 42.1701 113.676 39.9075 113.676Z" fill="#1B1B1B"/>
<path d="M57.6812 113.148V94.433L59.3617 96.1134H50.9266V90.0837H72.0802V96.1134H63.6451L65.3255 94.433V113.148H57.6812Z" fill="#1B1B1B"/>
<path d="M86.0858 113.676C84.1967 113.676 82.4504 113.379 80.8468 112.786C79.2652 112.193 77.8924 111.358 76.7282 110.282C75.5639 109.183 74.6523 107.898 73.9933 106.427C73.3563 104.955 73.0378 103.351 73.0378 101.616C73.0378 99.8587 73.3563 98.2552 73.9933 96.8054C74.6523 95.3336 75.5639 94.0596 76.7282 92.9832C77.8924 91.8849 79.2652 91.0392 80.8468 90.4461C82.4504 89.853 84.1857 89.5565 86.0528 89.5565C87.942 89.5565 89.6773 89.853 91.2589 90.4461C92.8405 91.0392 94.2134 91.8849 95.3776 92.9832C96.5418 94.0596 97.4425 95.3336 98.0795 96.8054C98.7385 98.2552 99.068 99.8587 99.068 101.616C99.068 103.351 98.7385 104.955 98.0795 106.427C97.4425 107.898 96.5418 109.183 95.3776 110.282C94.2134 111.358 92.8405 112.193 91.2589 112.786C89.6773 113.379 87.953 113.676 86.0858 113.676ZM86.0528 107.382C86.7777 107.382 87.4478 107.25 88.0628 106.987C88.6999 106.723 89.249 106.35 89.7103 105.867C90.1936 105.361 90.5669 104.757 90.8305 104.054C91.0941 103.329 91.2259 102.517 91.2259 101.616C91.2259 100.715 91.0941 99.9136 90.8305 99.2107C90.5669 98.4858 90.1936 97.8817 89.7103 97.3985C89.249 96.8932 88.6999 96.5088 88.0628 96.2452C87.4478 95.9816 86.7777 95.8498 86.0528 95.8498C85.328 95.8498 84.647 95.9816 84.01 96.2452C83.395 96.5088 82.8458 96.8932 82.3625 97.3985C81.9013 97.8817 81.5388 98.4858 81.2752 99.2107C81.0116 99.9136 80.8798 100.715 80.8798 101.616C80.8798 102.517 81.0116 103.329 81.2752 104.054C81.5388 104.757 81.9013 105.361 82.3625 105.867C82.8458 106.35 83.395 106.723 84.01 106.987C84.647 107.25 85.328 107.382 86.0528 107.382Z" fill="#1B1B1B"/>
<path d="M101.867 113.148V90.0837H112.971C115.123 90.0837 116.979 90.4351 118.539 91.138C120.121 91.841 121.34 92.8514 122.196 94.1694C123.053 95.4654 123.482 97.0031 123.482 98.7824C123.482 100.562 123.053 102.099 122.196 103.395C121.34 104.691 120.121 105.702 118.539 106.427C116.979 107.13 115.123 107.481 112.971 107.481H106.183L109.643 104.153V113.148H101.867ZM109.643 105.01L106.183 101.484H112.476C113.553 101.484 114.344 101.243 114.849 100.759C115.376 100.276 115.64 99.6171 115.64 98.7824C115.64 97.9476 115.376 97.2886 114.849 96.8054C114.344 96.3221 113.553 96.0805 112.476 96.0805H106.183L109.643 92.5549V105.01Z" fill="#1B1B1B"/>
<path d="M125.839 113.148V90.0837H133.483V102.077L141.424 90.0837H148.739V113.148H141.094V101.188L133.186 113.148H125.839Z" fill="#1B1B1B"/>
<path d="M152.835 113.148V90.0837H160.48V102.077L168.421 90.0837H175.735V113.148H168.091V101.188L160.183 113.148H152.835ZM164.269 88.7657C161.655 88.7657 159.799 88.2824 158.701 87.3159C157.624 86.3274 157.086 84.9216 157.086 83.0984H162.259C162.259 83.8232 162.402 84.3614 162.687 84.7129C162.995 85.0424 163.522 85.2071 164.269 85.2071C165.038 85.2071 165.576 85.0424 165.884 84.7129C166.191 84.3614 166.345 83.8232 166.345 83.0984H171.518C171.518 84.9216 170.958 86.3274 169.837 87.3159C168.739 88.2824 166.883 88.7657 164.269 88.7657Z" fill="#1B1B1B"/>
<rect x="46.7578" y="19.1367" width="20.3912" height="33.6237" transform="rotate(20.2156 46.7578 19.1367)" fill="#F9CE38"/>
<rect x="45.25" y="19.1016" width="28.7914" height="28.7914" transform="rotate(-24.7844 45.25 19.1016)" fill="#F9CE38"/>
<path d="M214.148 10.4375L222.259 35.4778L253.628 29.8005L230.439 77.0817L227.053 49.7157L190.959 57.7187L214.148 10.4375Z" fill="#42873A"/>
<path d="M14.5637 33.9507C11.3786 33.9507 8.69869 33.5553 6.52402 32.7646C4.37131 31.9738 2.7458 30.8095 1.64748 29.2719C0.54916 27.7342 0 25.8561 0 23.6375C0 21.4189 0.54916 19.5518 1.64748 18.0361C2.7458 16.4984 4.38229 15.3342 6.55697 14.5434C8.73164 13.7526 11.4115 13.3573 14.5967 13.3573C14.6406 13.3573 14.8163 13.3573 15.1239 13.3573C15.4314 13.3573 15.7389 13.3573 16.0464 13.3573C16.354 13.3573 16.5187 13.3573 16.5407 13.3573C19.6819 13.3573 22.3069 13.7636 24.4156 14.5764C26.5464 15.3672 28.1499 16.5314 29.2263 18.069C30.3026 19.5847 30.8408 21.4409 30.8408 23.6375C30.8408 25.8122 30.3136 27.6684 29.2592 29.206C28.2268 30.7436 26.6782 31.9188 24.6133 32.7316C22.5485 33.5444 19.9894 33.9507 16.9361 33.9507C16.8702 33.9507 16.6505 33.9507 16.2771 33.9507C15.9256 33.9507 15.5742 33.9507 15.2227 33.9507C14.8712 33.9507 14.6516 33.9507 14.5637 33.9507ZM15.2557 28.0198C15.3216 28.0198 15.4424 28.0198 15.6181 28.0198C15.7938 28.0198 15.9146 28.0198 15.9805 28.0198C17.7598 28.0198 19.1876 27.877 20.264 27.5915C21.3403 27.2839 22.1201 26.8117 22.6034 26.1746C23.0867 25.5156 23.3283 24.659 23.3283 23.6046C23.3283 22.5502 23.0757 21.7155 22.5705 21.1004C22.0652 20.4634 21.2744 20.0021 20.1981 19.7165C19.1437 19.431 17.7708 19.2882 16.0794 19.2882C15.9915 19.2882 15.8597 19.2882 15.684 19.2882C15.5083 19.2882 15.3655 19.2882 15.2557 19.2882C13.3665 19.2882 11.8509 19.431 10.7086 19.7165C9.58833 19.9801 8.77557 20.4304 8.27034 21.0675C7.76512 21.7045 7.5125 22.5612 7.5125 23.6375C7.5125 24.7139 7.79807 25.5815 8.36919 26.2405C8.94032 26.8776 9.79701 27.3389 10.9393 27.6244C12.1035 27.888 13.5423 28.0198 15.2557 28.0198ZM11.8618 36.4549V11.0508H18.979V36.4549H11.8618Z" fill="#1B1B1B"/>
<path d="M33.624 35.2687V12.204H52.3723V18.069H41.2683V29.4037H52.8007V35.2687H33.624ZM40.7411 26.3723V20.7709H51.0214V26.3723H40.7411Z" fill="#1B1B1B"/>
<path d="M67.5533 35.7959C65.7081 35.7959 63.9948 35.5104 62.4132 34.9392C60.8536 34.3461 59.4917 33.5114 58.3274 32.4351C57.1852 31.3587 56.2955 30.0847 55.6585 28.6129C55.0215 27.1412 54.703 25.5156 54.703 23.7364C54.703 21.9571 55.0215 20.3316 55.6585 18.8598C56.2955 17.3881 57.1852 16.114 58.3274 15.0377C59.4917 13.9613 60.8536 13.1376 62.4132 12.5665C63.9948 11.9734 65.7081 11.6768 67.5533 11.6768C69.8159 11.6768 71.8148 12.0722 73.5501 12.863C75.3075 13.6538 76.7572 14.796 77.8995 16.2898L72.99 20.6721C72.309 19.8154 71.5512 19.1564 70.7165 18.6951C69.9037 18.2118 68.9811 17.9702 67.9487 17.9702C67.136 17.9702 66.4001 18.102 65.7411 18.3656C65.0821 18.6292 64.511 19.0136 64.0277 19.5188C63.5664 20.024 63.204 20.6391 62.9404 21.364C62.6768 22.0669 62.545 22.8577 62.545 23.7364C62.545 24.615 62.6768 25.4168 62.9404 26.1417C63.204 26.8446 63.5664 27.4487 64.0277 27.9539C64.511 28.4591 65.0821 28.8436 65.7411 29.1071C66.4001 29.3707 67.136 29.5025 67.9487 29.5025C68.9811 29.5025 69.9037 29.2719 70.7165 28.8106C71.5512 28.3273 72.309 27.6574 72.99 26.8007L77.8995 31.183C76.7572 32.6547 75.3075 33.797 73.5501 34.6097C71.8148 35.4005 69.8159 35.7959 67.5533 35.7959Z" fill="#1B1B1B"/>
<path d="M85.327 35.2687V16.5534L87.0075 18.2338H78.5724V12.204H99.726V18.2338H91.2909L92.9713 16.5534V35.2687H85.327Z" fill="#1B1B1B"/>
<path d="M102.29 35.2687V12.204H109.935V24.1977L117.876 12.204H125.19V35.2687H117.546V23.308L109.638 35.2687H102.29Z" fill="#1B1B1B"/>
<path d="M129.287 35.2687V12.204H140.984C143.84 12.204 146.048 12.7312 147.607 13.7856C149.189 14.84 149.98 16.3227 149.98 18.2338C149.98 20.1009 149.255 21.5837 147.805 22.682C146.355 23.7583 144.4 24.2965 141.94 24.2965L142.599 22.5172C145.213 22.5172 147.267 23.0334 148.76 24.0659C150.254 25.0983 151.001 26.603 151.001 28.58C151.001 30.6228 150.188 32.2483 148.563 33.4565C146.937 34.6646 144.62 35.2687 141.61 35.2687H129.287ZM136.931 29.832H141.248C141.885 29.832 142.357 29.6783 142.665 29.3707C142.994 29.0412 143.159 28.58 143.159 27.9869C143.159 27.3938 142.994 26.9544 142.665 26.6689C142.357 26.3614 141.885 26.2076 141.248 26.2076H136.931V29.832ZM136.931 21.0675H140.226C140.885 21.0675 141.369 20.9247 141.676 20.6391C141.984 20.3535 142.138 19.9362 142.138 19.387C142.138 18.8159 141.984 18.3876 141.676 18.102C141.369 17.7945 140.885 17.6407 140.226 17.6407H136.931V21.0675Z" fill="#1B1B1B"/>
<path d="M151.83 35.2687L161.913 12.204H169.557L179.64 35.2687H171.6L164.153 15.8944H167.185L159.738 35.2687H151.83ZM157.827 31.2489L159.804 25.6474H170.414L172.391 31.2489H157.827Z" fill="#1B1B1B"/>
<path d="M183.804 35.6971C183.32 35.6971 182.804 35.6641 182.255 35.5982C181.706 35.5323 181.124 35.4225 180.509 35.2687L180.904 29.0412C181.211 29.1071 181.497 29.1401 181.761 29.1401C182.617 29.1401 183.254 28.7886 183.672 28.0857C184.089 27.3828 184.375 26.4382 184.528 25.252C184.682 24.0439 184.781 22.693 184.825 21.1993L185.122 12.204H204.595V35.2687H196.95V16.5863L198.631 18.2338H190.229L191.744 16.4875L191.613 20.9027C191.547 23.1213 191.393 25.1422 191.151 26.9654C190.932 28.7667 190.547 30.3263 189.998 31.6443C189.449 32.9403 188.669 33.9398 187.659 34.6427C186.67 35.3456 185.385 35.6971 183.804 35.6971Z" fill="#1B1B1B"/>
<path d="M208.669 35.2687V12.204H216.313V19.2882H221.091C223.902 19.2882 226.099 19.9252 227.681 21.1993C229.284 22.4513 230.086 24.3514 230.086 26.8995C230.086 29.6453 229.185 31.7321 227.384 33.1599C225.583 34.5658 223.155 35.2687 220.102 35.2687H208.669ZM216.313 29.832H219.575C220.344 29.832 220.981 29.5904 221.486 29.1071C222.013 28.6019 222.277 27.91 222.277 27.0313C222.277 26.1527 222.013 25.5486 221.486 25.2191C220.981 24.8896 220.344 24.7249 219.575 24.7249H216.313V29.832Z" fill="#1B1B1B"/>
</svg>
