<svg width="103" height="54" viewBox="0 0 103 54" fill="none" xmlns="http://www.w3.org/2000/svg">
<rect x="36.2031" y="17.7812" width="26.5398" height="3.24689" rx="1.62344" fill="#1B1B1B"/>
<rect x="37.5391" width="26.5398" height="1.97637" rx="0.564676" transform="rotate(42.731 37.5391 0)" fill="#1B1B1B"/>
<path d="M15.3561 23.1903C15.8641 20.9367 17.8659 19.3359 20.1761 19.3359H84.3765C86.7344 19.3359 88.7637 21.002 89.2228 23.3147L94.037 47.563C94.6437 50.6184 92.3058 53.4661 89.1907 53.4661H14.7099C11.5428 53.4661 9.19351 50.5282 9.88997 47.4386L15.3561 23.1903Z" fill="#FC4F2D"/>
<rect x="74.0391" y="22.8672" width="28.5161" height="19.9048" rx="3.10572" fill="white"/>
<rect x="48.6328" y="22.8672" width="23.0105" height="19.9048" rx="3.10572" fill="white"/>
<rect x="26.1875" y="22.8672" width="23.0105" height="19.9048" rx="3.10572" fill="white"/>
<rect x="0.773438" y="22.8672" width="23.0105" height="19.9048" rx="3.10572" fill="white"/>
<rect x="36.2031" y="24.418" width="25.4104" height="23.4341" rx="3.10572" fill="#FC4F2D"/>
<path d="M44.5508 46.4805H38.3676V27.9309L41.4733 26.7168H44.5508V46.4805ZM60.1875 37.1915V44.0241C60.1875 45.4641 59.171 46.4805 57.7311 46.4805H46.24V41.5678H54.0325V38.8291H49.5715V35.7516L52.8467 32.7306V31.686H47.2281L46.24 29.1731V26.7168H60.0745V31.4319L57.6746 34.6223C59.2275 34.7352 60.1875 35.5822 60.1875 37.1915Z" fill="white"/>
</svg>
