<svg width="296" height="35" viewBox="0 0 296 35" fill="none" xmlns="http://www.w3.org/2000/svg">
<path d="M3.55235 28V10.4372L6.42264 13.1654H0.142094V8.10686H10.2592V28H3.55235ZM16.1978 28.2842C15.1368 28.2842 14.2464 27.9432 13.5264 27.2611C12.8065 26.5601 12.4465 25.6697 12.4465 24.5897C12.4465 23.4909 12.8065 22.6099 13.5264 21.9468C14.2464 21.2837 15.1368 20.9521 16.1978 20.9521C17.2588 20.9521 18.1492 21.2837 18.8692 21.9468C19.5891 22.6099 19.9491 23.4909 19.9491 24.5897C19.9491 25.6697 19.5891 26.5601 18.8692 27.2611C18.1492 27.9432 17.2588 28.2842 16.1978 28.2842ZM29.9259 28.4547C28.1639 28.4547 26.6009 28.0474 25.2368 27.2327C23.8916 26.418 22.8306 25.2339 22.0539 23.6803C21.296 22.1268 20.9171 20.2511 20.9171 18.0534C20.9171 15.8557 21.296 13.9801 22.0539 12.4265C22.8306 10.873 23.8916 9.68884 25.2368 8.87417C26.6009 8.0595 28.1639 7.65216 29.9259 7.65216C31.6878 7.65216 33.2414 8.0595 34.5865 8.87417C35.9506 9.68884 37.0116 10.873 37.7694 12.4265C38.5462 13.9801 38.9346 15.8557 38.9346 18.0534C38.9346 20.2511 38.5462 22.1268 37.7694 23.6803C37.0116 25.2339 35.9506 26.418 34.5865 27.2327C33.2414 28.0474 31.6878 28.4547 29.9259 28.4547ZM29.9259 23.0836C30.3616 23.0836 30.75 22.932 31.091 22.6289C31.432 22.3257 31.6973 21.8047 31.8867 21.0658C32.0952 20.3269 32.1994 19.3228 32.1994 18.0534C32.1994 16.7651 32.0952 15.761 31.8867 15.041C31.6973 14.3022 31.432 13.7811 31.091 13.478C30.75 13.1749 30.3616 13.0233 29.9259 13.0233C29.4901 13.0233 29.1017 13.1749 28.7607 13.478C28.4197 13.7811 28.1449 14.3022 27.9365 15.041C27.7471 15.761 27.6523 16.7651 27.6523 18.0534C27.6523 19.3228 27.7471 20.3269 27.9365 21.0658C28.1449 21.8047 28.4197 22.3257 28.7607 22.6289C29.1017 22.932 29.4901 23.0836 29.9259 23.0836ZM43.4356 28L50.9382 10.494L52.7286 13.3075H43.2936L45.9081 10.2667V16.2062H40.3664V8.10686H57.3893V12.2276L50.7677 28H43.4356Z" fill="#1B1B1B"/>
<path d="M227.361 28.4547C225.996 28.4547 224.613 28.3031 223.211 28C221.809 27.6969 220.578 27.2516 219.517 26.6643L221.79 21.7195C222.643 22.212 223.534 22.5815 224.462 22.8278C225.409 23.0551 226.3 23.1688 227.133 23.1688C227.891 23.1688 228.507 23.0457 228.98 22.7994C229.473 22.5341 229.719 22.1457 229.719 21.6342C229.719 21.1984 229.539 20.8669 229.179 20.6395C228.819 20.3932 228.213 20.2701 227.361 20.2701H224.718V16.1494L229.861 10.9203L230.458 13.1654H220.54V8.10686H235.375V12.2276L230.231 17.4566L227.02 15.6378H228.782C231.282 15.6378 233.186 16.1967 234.494 17.3145C235.801 18.4323 236.455 19.8722 236.455 21.6342C236.455 22.7709 236.132 23.8603 235.488 24.9024C234.863 25.9444 233.878 26.7969 232.533 27.46C231.207 28.1231 229.483 28.4547 227.361 28.4547ZM240.696 28V10.4372L243.567 13.1654H237.286V8.10686H247.403V28H240.696ZM253.342 28.2842C252.281 28.2842 251.39 27.9432 250.67 27.2611C249.95 26.5601 249.59 25.6697 249.59 24.5897C249.59 23.4909 249.95 22.6099 250.67 21.9468C251.39 21.2837 252.281 20.9521 253.342 20.9521C254.403 20.9521 255.293 21.2837 256.013 21.9468C256.733 22.6099 257.093 23.4909 257.093 24.5897C257.093 25.6697 256.733 26.5601 256.013 27.2611C255.293 27.9432 254.403 28.2842 253.342 28.2842ZM267.07 28.4547C265.308 28.4547 263.745 28.0474 262.381 27.2327C261.036 26.418 259.975 25.2339 259.198 23.6803C258.44 22.1268 258.061 20.2511 258.061 18.0534C258.061 15.8557 258.44 13.9801 259.198 12.4265C259.975 10.873 261.036 9.68884 262.381 8.87417C263.745 8.0595 265.308 7.65216 267.07 7.65216C268.832 7.65216 270.385 8.0595 271.73 8.87417C273.095 9.68884 274.156 10.873 274.913 12.4265C275.69 13.9801 276.079 15.8557 276.079 18.0534C276.079 20.2511 275.69 22.1268 274.913 23.6803C274.156 25.2339 273.095 26.418 271.73 27.2327C270.385 28.0474 268.832 28.4547 267.07 28.4547ZM267.07 23.0836C267.506 23.0836 267.894 22.932 268.235 22.6289C268.576 22.3257 268.841 21.8047 269.031 21.0658C269.239 20.3269 269.343 19.3228 269.343 18.0534C269.343 16.7651 269.239 15.761 269.031 15.041C268.841 14.3022 268.576 13.7811 268.235 13.478C267.894 13.1749 267.506 13.0233 267.07 13.0233C266.634 13.0233 266.246 13.1749 265.905 13.478C265.564 13.7811 265.289 14.3022 265.08 15.041C264.891 15.761 264.796 16.7651 264.796 18.0534C264.796 19.3228 264.891 20.3269 265.08 21.0658C265.289 21.8047 265.564 22.3257 265.905 22.6289C266.246 22.932 266.634 23.0836 267.07 23.0836ZM280.58 28L288.082 10.494L289.873 13.3075H280.438L283.052 10.2667V16.2062H277.51V8.10686H294.533V12.2276L287.912 28H280.58Z" fill="#1B1B1B"/>
<rect x="61.7891" y="16.3086" width="153.612" height="5.14899" fill="#1B1B1B"/>
</svg>
