<svg width="88" height="32" viewBox="0 0 88 32" fill="none" xmlns="http://www.w3.org/2000/svg">
<path d="M16.5725 12.2969C16.4161 12.2968 16.2631 12.3431 16.133 12.43C16.0029 12.5168 15.9015 12.6403 15.8416 12.7848C15.7816 12.9293 15.7659 13.0883 15.7964 13.2417C15.8269 13.3952 15.9021 13.5361 16.0127 13.6467C16.1233 13.7574 16.2642 13.8327 16.4176 13.8633C16.5711 13.8938 16.7301 13.8782 16.8746 13.8184C17.0191 13.7585 17.1427 13.6572 17.2296 13.5271C17.3165 13.397 17.3629 13.2441 17.3629 13.0877C17.3629 12.878 17.2796 12.6769 17.1314 12.5286C16.9832 12.3803 16.7821 12.297 16.5725 12.2969ZM16.5725 12.2969C16.4161 12.2968 16.2631 12.3431 16.133 12.43C16.0029 12.5168 15.9015 12.6403 15.8416 12.7848C15.7816 12.9293 15.7659 13.0883 15.7964 13.2417C15.8269 13.3952 15.9021 13.5361 16.0127 13.6467C16.1233 13.7574 16.2642 13.8327 16.4176 13.8633C16.5711 13.8938 16.7301 13.8782 16.8746 13.8184C17.0191 13.7585 17.1427 13.6572 17.2296 13.5271C17.3165 13.397 17.3629 13.2441 17.3629 13.0877C17.3629 12.878 17.2796 12.6769 17.1314 12.5286C16.9832 12.3803 16.7821 12.297 16.5725 12.2969ZM16.5725 12.2969C16.4161 12.2968 16.2631 12.3431 16.133 12.43C16.0029 12.5168 15.9015 12.6403 15.8416 12.7848C15.7816 12.9293 15.7659 13.0883 15.7964 13.2417C15.8269 13.3952 15.9021 13.5361 16.0127 13.6467C16.1233 13.7574 16.2642 13.8327 16.4176 13.8633C16.5711 13.8938 16.7301 13.8782 16.8746 13.8184C17.0191 13.7585 17.1427 13.6572 17.2296 13.5271C17.3165 13.397 17.3629 13.2441 17.3629 13.0877C17.3629 12.878 17.2796 12.6769 17.1314 12.5286C16.9832 12.3803 16.7821 12.297 16.5725 12.2969ZM16.5725 12.2969C16.4161 12.2968 16.2631 12.3431 16.133 12.43C16.0029 12.5168 15.9015 12.6403 15.8416 12.7848C15.7816 12.9293 15.7659 13.0883 15.7964 13.2417C15.8269 13.3952 15.9021 13.5361 16.0127 13.6467C16.1233 13.7574 16.2642 13.8327 16.4176 13.8633C16.5711 13.8938 16.7301 13.8782 16.8746 13.8184C17.0191 13.7585 17.1427 13.6572 17.2296 13.5271C17.3165 13.397 17.3629 13.2441 17.3629 13.0877C17.3629 12.878 17.2796 12.6769 17.1314 12.5286C16.9832 12.3803 16.7821 12.297 16.5725 12.2969ZM16.5725 12.2969C16.4161 12.2968 16.2631 12.3431 16.133 12.43C16.0029 12.5168 15.9015 12.6403 15.8416 12.7848C15.7816 12.9293 15.7659 13.0883 15.7964 13.2417C15.8269 13.3952 15.9021 13.5361 16.0127 13.6467C16.1233 13.7574 16.2642 13.8327 16.4176 13.8633C16.5711 13.8938 16.7301 13.8782 16.8746 13.8184C17.0191 13.7585 17.1427 13.6572 17.2296 13.5271C17.3165 13.397 17.3629 13.2441 17.3629 13.0877C17.3629 12.878 17.2796 12.6769 17.1314 12.5286C16.9832 12.3803 16.7821 12.297 16.5725 12.2969ZM16.5725 12.2969C16.4161 12.2968 16.2631 12.3431 16.133 12.43C16.0029 12.5168 15.9015 12.6403 15.8416 12.7848C15.7816 12.9293 15.7659 13.0883 15.7964 13.2417C15.8269 13.3952 15.9021 13.5361 16.0127 13.6467C16.1233 13.7574 16.2642 13.8327 16.4176 13.8633C16.5711 13.8938 16.7301 13.8782 16.8746 13.8184C17.0191 13.7585 17.1427 13.6572 17.2296 13.5271C17.3165 13.397 17.3629 13.2441 17.3629 13.0877C17.3629 12.878 17.2796 12.6769 17.1314 12.5286C16.9832 12.3803 16.7821 12.297 16.5725 12.2969ZM16.5725 12.2969C16.4161 12.2968 16.2631 12.3431 16.133 12.43C16.0029 12.5168 15.9015 12.6403 15.8416 12.7848C15.7816 12.9293 15.7659 13.0883 15.7964 13.2417C15.8269 13.3952 15.9021 13.5361 16.0127 13.6467C16.1233 13.7574 16.2642 13.8327 16.4176 13.8633C16.5711 13.8938 16.7301 13.8782 16.8746 13.8184C17.0191 13.7585 17.1427 13.6572 17.2296 13.5271C17.3165 13.397 17.3629 13.2441 17.3629 13.0877C17.3629 12.878 17.2796 12.6769 17.1314 12.5286C16.9832 12.3803 16.7821 12.297 16.5725 12.2969ZM16.5725 12.2969C16.4161 12.2968 16.2631 12.3431 16.133 12.43C16.0029 12.5168 15.9015 12.6403 15.8416 12.7848C15.7816 12.9293 15.7659 13.0883 15.7964 13.2417C15.8269 13.3952 15.9021 13.5361 16.0127 13.6467C16.1233 13.7574 16.2642 13.8327 16.4176 13.8633C16.5711 13.8938 16.7301 13.8782 16.8746 13.8184C17.0191 13.7585 17.1427 13.6572 17.2296 13.5271C17.3165 13.397 17.3629 13.2441 17.3629 13.0877C17.3629 12.878 17.2796 12.6769 17.1314 12.5286C16.9832 12.3803 16.7821 12.297 16.5725 12.2969ZM16.5725 12.2969C16.4161 12.2968 16.2631 12.3431 16.133 12.43C16.0029 12.5168 15.9015 12.6403 15.8416 12.7848C15.7816 12.9293 15.7659 13.0883 15.7964 13.2417C15.8269 13.3952 15.9021 13.5361 16.0127 13.6467C16.1233 13.7574 16.2642 13.8327 16.4176 13.8633C16.5711 13.8938 16.7301 13.8782 16.8746 13.8184C17.0191 13.7585 17.1427 13.6572 17.2296 13.5271C17.3165 13.397 17.3629 13.2441 17.3629 13.0877C17.3629 12.878 17.2796 12.6769 17.1314 12.5286C16.9832 12.3803 16.7821 12.297 16.5725 12.2969ZM16.5725 12.2969C16.4161 12.2968 16.2631 12.3431 16.133 12.43C16.0029 12.5168 15.9015 12.6403 15.8416 12.7848C15.7816 12.9293 15.7659 13.0883 15.7964 13.2417C15.8269 13.3952 15.9021 13.5361 16.0127 13.6467C16.1233 13.7574 16.2642 13.8327 16.4176 13.8633C16.5711 13.8938 16.7301 13.8782 16.8746 13.8184C17.0191 13.7585 17.1427 13.6572 17.2296 13.5271C17.3165 13.397 17.3629 13.2441 17.3629 13.0877C17.3629 12.878 17.2796 12.6769 17.1314 12.5286C16.9832 12.3803 16.7821 12.297 16.5725 12.2969ZM16.5725 12.2969C16.4161 12.2968 16.2631 12.3431 16.133 12.43C16.0029 12.5168 15.9015 12.6403 15.8416 12.7848C15.7816 12.9293 15.7659 13.0883 15.7964 13.2417C15.8269 13.3952 15.9021 13.5361 16.0127 13.6467C16.1233 13.7574 16.2642 13.8327 16.4176 13.8633C16.5711 13.8938 16.7301 13.8782 16.8746 13.8184C17.0191 13.7585 17.1427 13.6572 17.2296 13.5271C17.3165 13.397 17.3629 13.2441 17.3629 13.0877C17.3629 12.878 17.2796 12.6769 17.1314 12.5286C16.9832 12.3803 16.7821 12.297 16.5725 12.2969ZM16.5725 12.2969C16.4161 12.2968 16.2631 12.3431 16.133 12.43C16.0029 12.5168 15.9015 12.6403 15.8416 12.7848C15.7816 12.9293 15.7659 13.0883 15.7964 13.2417C15.8269 13.3952 15.9021 13.5361 16.0127 13.6467C16.1233 13.7574 16.2642 13.8327 16.4176 13.8633C16.5711 13.8938 16.7301 13.8782 16.8746 13.8184C17.0191 13.7585 17.1427 13.6572 17.2296 13.5271C17.3165 13.397 17.3629 13.2441 17.3629 13.0877C17.3629 12.878 17.2796 12.6769 17.1314 12.5286C16.9832 12.3803 16.7821 12.297 16.5725 12.2969ZM16.5725 12.2969C16.4161 12.2968 16.2631 12.3431 16.133 12.43C16.0029 12.5168 15.9015 12.6403 15.8416 12.7848C15.7816 12.9293 15.7659 13.0883 15.7964 13.2417C15.8269 13.3952 15.9021 13.5361 16.0127 13.6467C16.1233 13.7574 16.2642 13.8327 16.4176 13.8633C16.5711 13.8938 16.7301 13.8782 16.8746 13.8184C17.0191 13.7585 17.1427 13.6572 17.2296 13.5271C17.3165 13.397 17.3629 13.2441 17.3629 13.0877C17.3629 12.878 17.2796 12.6769 17.1314 12.5286C16.9832 12.3803 16.7821 12.297 16.5725 12.2969ZM16.5725 12.2969C16.4161 12.2968 16.2631 12.3431 16.133 12.43C16.0029 12.5168 15.9015 12.6403 15.8416 12.7848C15.7816 12.9293 15.7659 13.0883 15.7964 13.2417C15.8269 13.3952 15.9021 13.5361 16.0127 13.6467C16.1233 13.7574 16.2642 13.8327 16.4176 13.8633C16.5711 13.8938 16.7301 13.8782 16.8746 13.8184C17.0191 13.7585 17.1427 13.6572 17.2296 13.5271C17.3165 13.397 17.3629 13.2441 17.3629 13.0877C17.3629 12.878 17.2796 12.6769 17.1314 12.5286C16.9832 12.3803 16.7821 12.297 16.5725 12.2969ZM16.5725 12.2969C16.4161 12.2968 16.2631 12.3431 16.133 12.43C16.0029 12.5168 15.9015 12.6403 15.8416 12.7848C15.7816 12.9293 15.7659 13.0883 15.7964 13.2417C15.8269 13.3952 15.9021 13.5361 16.0127 13.6467C16.1233 13.7574 16.2642 13.8327 16.4176 13.8633C16.5711 13.8938 16.7301 13.8782 16.8746 13.8184C17.0191 13.7585 17.1427 13.6572 17.2296 13.5271C17.3165 13.397 17.3629 13.2441 17.3629 13.0877C17.3629 12.878 17.2796 12.6769 17.1314 12.5286C16.9832 12.3803 16.7821 12.297 16.5725 12.2969ZM16.5725 12.2969C16.4161 12.2968 16.2631 12.3431 16.133 12.43C16.0029 12.5168 15.9015 12.6403 15.8416 12.7848C15.7816 12.9293 15.7659 13.0883 15.7964 13.2417C15.8269 13.3952 15.9021 13.5361 16.0127 13.6467C16.1233 13.7574 16.2642 13.8327 16.4176 13.8633C16.5711 13.8938 16.7301 13.8782 16.8746 13.8184C17.0191 13.7585 17.1427 13.6572 17.2296 13.5271C17.3165 13.397 17.3629 13.2441 17.3629 13.0877C17.3629 12.878 17.2796 12.6769 17.1314 12.5286C16.9832 12.3803 16.7821 12.297 16.5725 12.2969ZM16.5725 12.2969C16.4161 12.2968 16.2631 12.3431 16.133 12.43C16.0029 12.5168 15.9015 12.6403 15.8416 12.7848C15.7816 12.9293 15.7659 13.0883 15.7964 13.2417C15.8269 13.3952 15.9021 13.5361 16.0127 13.6467C16.1233 13.7574 16.2642 13.8327 16.4176 13.8633C16.5711 13.8938 16.7301 13.8782 16.8746 13.8184C17.0191 13.7585 17.1427 13.6572 17.2296 13.5271C17.3165 13.397 17.3629 13.2441 17.3629 13.0877C17.3629 12.878 17.2796 12.6769 17.1314 12.5286C16.9832 12.3803 16.7821 12.297 16.5725 12.2969ZM16.5725 12.2969C16.4161 12.2968 16.2631 12.3431 16.133 12.43C16.0029 12.5168 15.9015 12.6403 15.8416 12.7848C15.7816 12.9293 15.7659 13.0883 15.7964 13.2417C15.8269 13.3952 15.9021 13.5361 16.0127 13.6467C16.1233 13.7574 16.2642 13.8327 16.4176 13.8633C16.5711 13.8938 16.7301 13.8782 16.8746 13.8184C17.0191 13.7585 17.1427 13.6572 17.2296 13.5271C17.3165 13.397 17.3629 13.2441 17.3629 13.0877C17.3629 12.878 17.2796 12.6769 17.1314 12.5286C16.9832 12.3803 16.7821 12.297 16.5725 12.2969ZM16.5725 12.2969C16.4161 12.2968 16.2631 12.3431 16.133 12.43C16.0029 12.5168 15.9015 12.6403 15.8416 12.7848C15.7816 12.9293 15.7659 13.0883 15.7964 13.2417C15.8269 13.3952 15.9021 13.5361 16.0127 13.6467C16.1233 13.7574 16.2642 13.8327 16.4176 13.8633C16.5711 13.8938 16.7301 13.8782 16.8746 13.8184C17.0191 13.7585 17.1427 13.6572 17.2296 13.5271C17.3165 13.397 17.3629 13.2441 17.3629 13.0877C17.3629 12.878 17.2796 12.6769 17.1314 12.5286C16.9832 12.3803 16.7821 12.297 16.5725 12.2969ZM16.5725 12.2969C16.4161 12.2968 16.2631 12.3431 16.133 12.43C16.0029 12.5168 15.9015 12.6403 15.8416 12.7848C15.7816 12.9293 15.7659 13.0883 15.7964 13.2417C15.8269 13.3952 15.9021 13.5361 16.0127 13.6467C16.1233 13.7574 16.2642 13.8327 16.4176 13.8633C16.5711 13.8938 16.7301 13.8782 16.8746 13.8184C17.0191 13.7585 17.1427 13.6572 17.2296 13.5271C17.3165 13.397 17.3629 13.2441 17.3629 13.0877C17.3629 12.878 17.2796 12.6769 17.1314 12.5286C16.9832 12.3803 16.7821 12.297 16.5725 12.2969ZM16.5725 12.2969C16.4161 12.2968 16.2631 12.3431 16.133 12.43C16.0029 12.5168 15.9015 12.6403 15.8416 12.7848C15.7816 12.9293 15.7659 13.0883 15.7964 13.2417C15.8269 13.3952 15.9021 13.5361 16.0127 13.6467C16.1233 13.7574 16.2642 13.8327 16.4176 13.8633C16.5711 13.8938 16.7301 13.8782 16.8746 13.8184C17.0191 13.7585 17.1427 13.6572 17.2296 13.5271C17.3165 13.397 17.3629 13.2441 17.3629 13.0877C17.3629 12.878 17.2796 12.6769 17.1314 12.5286C16.9832 12.3803 16.7821 12.297 16.5725 12.2969ZM16.5725 12.2969C16.4161 12.2968 16.2631 12.3431 16.133 12.43C16.0029 12.5168 15.9015 12.6403 15.8416 12.7848C15.7816 12.9293 15.7659 13.0883 15.7964 13.2417C15.8269 13.3952 15.9021 13.5361 16.0127 13.6467C16.1233 13.7574 16.2642 13.8327 16.4176 13.8633C16.5711 13.8938 16.7301 13.8782 16.8746 13.8184C17.0191 13.7585 17.1427 13.6572 17.2296 13.5271C17.3165 13.397 17.3629 13.2441 17.3629 13.0877C17.3629 12.878 17.2796 12.6769 17.1314 12.5286C16.9832 12.3803 16.7821 12.297 16.5725 12.2969ZM16.5725 12.2969C16.4161 12.2968 16.2631 12.3431 16.133 12.43C16.0029 12.5168 15.9015 12.6403 15.8416 12.7848C15.7816 12.9293 15.7659 13.0883 15.7964 13.2417C15.8269 13.3952 15.9021 13.5361 16.0127 13.6467C16.1233 13.7574 16.2642 13.8327 16.4176 13.8633C16.5711 13.8938 16.7301 13.8782 16.8746 13.8184C17.0191 13.7585 17.1427 13.6572 17.2296 13.5271C17.3165 13.397 17.3629 13.2441 17.3629 13.0877C17.3629 12.878 17.2796 12.6769 17.1314 12.5286C16.9832 12.3803 16.7821 12.297 16.5725 12.2969ZM16.5725 12.2969C16.4161 12.2968 16.2631 12.3431 16.133 12.43C16.0029 12.5168 15.9015 12.6403 15.8416 12.7848C15.7816 12.9293 15.7659 13.0883 15.7964 13.2417C15.8269 13.3952 15.9021 13.5361 16.0127 13.6467C16.1233 13.7574 16.2642 13.8327 16.4176 13.8633C16.5711 13.8938 16.7301 13.8782 16.8746 13.8184C17.0191 13.7585 17.1427 13.6572 17.2296 13.5271C17.3165 13.397 17.3629 13.2441 17.3629 13.0877C17.3629 12.878 17.2796 12.6769 17.1314 12.5286C16.9832 12.3803 16.7821 12.297 16.5725 12.2969ZM16.5725 12.2969C16.4161 12.2968 16.2631 12.3431 16.133 12.43C16.0029 12.5168 15.9015 12.6403 15.8416 12.7848C15.7816 12.9293 15.7659 13.0883 15.7964 13.2417C15.8269 13.3952 15.9021 13.5361 16.0127 13.6467C16.1233 13.7574 16.2642 13.8327 16.4176 13.8633C16.5711 13.8938 16.7301 13.8782 16.8746 13.8184C17.0191 13.7585 17.1427 13.6572 17.2296 13.5271C17.3165 13.397 17.3629 13.2441 17.3629 13.0877C17.3629 12.878 17.2796 12.6769 17.1314 12.5286C16.9832 12.3803 16.7821 12.297 16.5725 12.2969ZM16.5725 12.2969C16.4161 12.2968 16.2631 12.3431 16.133 12.43C16.0029 12.5168 15.9015 12.6403 15.8416 12.7848C15.7816 12.9293 15.7659 13.0883 15.7964 13.2417C15.8269 13.3952 15.9021 13.5361 16.0127 13.6467C16.1233 13.7574 16.2642 13.8327 16.4176 13.8633C16.5711 13.8938 16.7301 13.8782 16.8746 13.8184C17.0191 13.7585 17.1427 13.6572 17.2296 13.5271C17.3165 13.397 17.3629 13.2441 17.3629 13.0877C17.3629 12.878 17.2796 12.6769 17.1314 12.5286C16.9832 12.3803 16.7821 12.297 16.5725 12.2969ZM16.5725 12.2969C16.4161 12.2968 16.2631 12.3431 16.133 12.43C16.0029 12.5168 15.9015 12.6403 15.8416 12.7848C15.7816 12.9293 15.7659 13.0883 15.7964 13.2417C15.8269 13.3952 15.9021 13.5361 16.0127 13.6467C16.1233 13.7574 16.2642 13.8327 16.4176 13.8633C16.5711 13.8938 16.7301 13.8782 16.8746 13.8184C17.0191 13.7585 17.1427 13.6572 17.2296 13.5271C17.3165 13.397 17.3629 13.2441 17.3629 13.0877C17.3629 12.878 17.2796 12.6769 17.1314 12.5286C16.9832 12.3803 16.7821 12.297 16.5725 12.2969ZM16.5725 12.2969C16.4161 12.2968 16.2631 12.3431 16.133 12.43C16.0029 12.5168 15.9015 12.6403 15.8416 12.7848C15.7816 12.9293 15.7659 13.0883 15.7964 13.2417C15.8269 13.3952 15.9021 13.5361 16.0127 13.6467C16.1233 13.7574 16.2642 13.8327 16.4176 13.8633C16.5711 13.8938 16.7301 13.8782 16.8746 13.8184C17.0191 13.7585 17.1427 13.6572 17.2296 13.5271C17.3165 13.397 17.3629 13.2441 17.3629 13.0877C17.3629 12.878 17.2796 12.6769 17.1314 12.5286C16.9832 12.3803 16.7821 12.297 16.5725 12.2969ZM16.5725 12.2969C16.4161 12.2968 16.2631 12.3431 16.133 12.43C16.0029 12.5168 15.9015 12.6403 15.8416 12.7848C15.7816 12.9293 15.7659 13.0883 15.7964 13.2417C15.8269 13.3952 15.9021 13.5361 16.0127 13.6467C16.1233 13.7574 16.2642 13.8327 16.4176 13.8633C16.5711 13.8938 16.7301 13.8782 16.8746 13.8184C17.0191 13.7585 17.1427 13.6572 17.2296 13.5271C17.3165 13.397 17.3629 13.2441 17.3629 13.0877C17.3629 12.878 17.2796 12.6769 17.1314 12.5286C16.9832 12.3803 16.7821 12.297 16.5725 12.2969ZM16.5725 12.2969C16.4161 12.2968 16.2631 12.3431 16.133 12.43C16.0029 12.5168 15.9015 12.6403 15.8416 12.7848C15.7816 12.9293 15.7659 13.0883 15.7964 13.2417C15.8269 13.3952 15.9021 13.5361 16.0127 13.6467C16.1233 13.7574 16.2642 13.8327 16.4176 13.8633C16.5711 13.8938 16.7301 13.8782 16.8746 13.8184C17.0191 13.7585 17.1427 13.6572 17.2296 13.5271C17.3165 13.397 17.3629 13.2441 17.3629 13.0877C17.3629 12.878 17.2796 12.6769 17.1314 12.5286C16.9832 12.3803 16.7821 12.297 16.5725 12.2969ZM16.5725 12.2969C16.4161 12.2968 16.2631 12.3431 16.133 12.43C16.0029 12.5168 15.9015 12.6403 15.8416 12.7848C15.7816 12.9293 15.7659 13.0883 15.7964 13.2417C15.8269 13.3952 15.9021 13.5361 16.0127 13.6467C16.1233 13.7574 16.2642 13.8327 16.4176 13.8633C16.5711 13.8938 16.7301 13.8782 16.8746 13.8184C17.0191 13.7585 17.1427 13.6572 17.2296 13.5271C17.3165 13.397 17.3629 13.2441 17.3629 13.0877C17.3629 12.878 17.2796 12.6769 17.1314 12.5286C16.9832 12.3803 16.7821 12.297 16.5725 12.2969ZM16.5725 12.2969C16.4161 12.2968 16.2631 12.3431 16.133 12.43C16.0029 12.5168 15.9015 12.6403 15.8416 12.7848C15.7816 12.9293 15.7659 13.0883 15.7964 13.2417C15.8269 13.3952 15.9021 13.5361 16.0127 13.6467C16.1233 13.7574 16.2642 13.8327 16.4176 13.8633C16.5711 13.8938 16.7301 13.8782 16.8746 13.8184C17.0191 13.7585 17.1427 13.6572 17.2296 13.5271C17.3165 13.397 17.3629 13.2441 17.3629 13.0877C17.3629 12.878 17.2796 12.6769 17.1314 12.5286C16.9832 12.3803 16.7821 12.297 16.5725 12.2969ZM16.5725 12.2969C16.4161 12.2968 16.2631 12.3431 16.133 12.43C16.0029 12.5168 15.9015 12.6403 15.8416 12.7848C15.7816 12.9293 15.7659 13.0883 15.7964 13.2417C15.8269 13.3952 15.9021 13.5361 16.0127 13.6467C16.1233 13.7574 16.2642 13.8327 16.4176 13.8633C16.5711 13.8938 16.7301 13.8782 16.8746 13.8184C17.0191 13.7585 17.1427 13.6572 17.2296 13.5271C17.3165 13.397 17.3629 13.2441 17.3629 13.0877C17.3629 12.878 17.2796 12.6769 17.1314 12.5286C16.9832 12.3803 16.7821 12.297 16.5725 12.2969Z" fill="#252525"/>
<path d="M23.8365 21.2595L23.8202 21.2774C23.3605 21.7371 23.2296 22.2534 19.6193 22.2534C17.2607 22.2518 13.6798 24.5292 12.6018 28.279C12.9187 26.3939 13.6325 24.3392 15.155 22.8138L15.228 22.7416C15.3022 22.6693 15.3783 22.5989 15.4564 22.5303C17.7269 20.5319 19.2632 19.5693 19.2632 18.577V4.45196C19.2632 3.39766 18.2709 2.29728 16.9687 2.29688H7.45638C6.15411 2.29688 5.16181 3.39807 5.16181 4.45196V18.5758C5.16181 19.3821 6.25322 20.5698 8.88263 22.6543C8.92342 22.6865 8.9642 22.7196 9.00499 22.7526C9.03231 22.775 9.05923 22.7983 9.08656 22.8215C9.11388 22.8448 9.13999 22.8684 9.16813 22.8921C9.19627 22.9158 9.21666 22.9361 9.24073 22.9586C9.26479 22.981 9.27825 22.9937 9.2966 23.0112L9.33127 23.0446L9.35085 23.0638L9.37042 23.0834L9.4365 23.149C10.8097 24.5382 11.521 26.5301 11.8542 28.2716C10.7094 24.6324 7.18802 22.2526 4.87102 22.2526C1.26072 22.2526 1.1298 21.7363 0.670157 21.2766L0.653843 21.2587L0.359375 23.8012C0.359375 23.8012 1.18079 25.7997 2.11313 25.9098C8.67014 25.526 10.7861 28.5494 12.1365 31.2286L12.1328 30.9178L12.1291 30.6323L12.1173 29.6583V29.6559L12.1136 29.3374V29.2856L12.0321 22.6107C12.0092 22.588 11.99 22.5621 11.975 22.5336L11.404 21.4532C11.3732 21.3945 11.3619 21.3276 11.3718 21.2621C11.3817 21.1966 11.4123 21.1359 11.459 21.089L12.0055 20.5429L11.9909 19.3234C11.9902 19.2706 12.0057 19.2189 12.0353 19.1751C12.0649 19.1314 12.1072 19.0977 12.1565 19.0787C12.1746 19.0713 12.1937 19.0663 12.2131 19.0636H12.2201C12.2304 19.0623 12.2407 19.0616 12.2511 19.0616C12.2703 19.0615 12.2895 19.0636 12.3082 19.0681C12.3665 19.0812 12.4186 19.1139 12.4557 19.1607C12.4928 19.2075 12.5127 19.2657 12.5121 19.3254L12.4958 20.549L13.0378 21.0906C13.0846 21.1376 13.1151 21.1982 13.125 21.2637C13.1349 21.3292 13.1237 21.3962 13.0929 21.4548L12.5219 22.5352C12.5075 22.5629 12.4889 22.5882 12.4668 22.6103L12.3832 28.8818V28.8879L12.3771 29.372L12.3665 29.9055L12.3559 30.689L12.3526 30.9537L12.3485 31.2424C13.6985 28.5592 15.81 25.5236 22.3817 25.9082C23.312 25.7997 24.1354 23.7996 24.1354 23.7996L23.8365 21.2595ZM4.55697 24.7788C3.4933 24.7788 2.73143 24.734 2.17431 24.6589C1.71262 24.1059 1.57803 23.4354 1.6441 23.0275C1.83193 23.1833 2.06417 23.2758 2.30768 23.2918C6.95432 23.4456 9.59311 25.6891 10.9696 27.9935C9.38225 25.9624 6.55218 24.7788 4.55697 24.7788ZM17.2583 17.9828L15.4135 20.4385C15.3858 20.4755 15.3483 20.5041 15.3051 20.5209C15.262 20.5377 15.2151 20.5421 15.1696 20.5336C15.1241 20.5251 15.0819 20.5041 15.0477 20.4728C15.0136 20.4416 14.9888 20.4015 14.9763 20.3569L14.2854 17.9016C14.275 17.8648 14.2733 17.826 14.2804 17.7884C14.2875 17.7507 14.3033 17.7152 14.3264 17.6847C14.3495 17.6542 14.3794 17.6294 14.4136 17.6123C14.4479 17.5953 14.4857 17.5864 14.524 17.5864H17.06C17.1061 17.5863 17.1512 17.5991 17.1904 17.6232C17.2296 17.6474 17.2613 17.682 17.2819 17.7232C17.3025 17.7644 17.3112 17.8105 17.307 17.8564C17.3028 17.9022 17.2859 17.946 17.2583 17.9828ZM18.3399 15.5357C18.3399 15.6344 18.3007 15.729 18.2309 15.7987C18.1612 15.8685 18.0666 15.9077 17.9679 15.9077H14.1174C13.9844 15.9076 13.855 15.8648 13.7482 15.7857C13.6414 15.7065 13.5628 15.5952 13.524 15.468L12.986 13.6996C12.8971 13.407 12.8518 13.1028 12.8518 12.797V11.8332C12.8518 11.7615 12.8559 11.6868 12.8991 11.6293C12.9628 11.5477 13.0929 11.4568 13.327 11.4494C13.5994 11.4409 15.739 11.4433 17.3508 11.447C17.6134 11.4476 17.8651 11.5525 18.0505 11.7384C18.2359 11.9244 18.34 12.1763 18.3399 12.4389V15.5357ZM6.18511 4.62366C6.18511 4.31938 6.30598 4.02757 6.52114 3.81241C6.7363 3.59725 7.02812 3.47638 7.33239 3.47638H17.1926C17.4969 3.47638 17.7887 3.59725 18.0038 3.81241C18.219 4.02757 18.3399 4.31938 18.3399 4.62366V5.76972H6.18593L6.18511 4.62366ZM6.18511 6.11232H18.3391V9.74219C18.3391 10.0465 18.2182 10.3383 18.003 10.5534C17.7879 10.7686 17.4961 10.8895 17.1918 10.8895H7.33239C7.02812 10.8895 6.7363 10.7686 6.52114 10.5534C6.30598 10.3383 6.18511 10.0465 6.18511 9.74219V6.11232ZM6.18511 15.5386V12.4389C6.18511 12.1763 6.28928 11.9243 6.47476 11.7384C6.66025 11.5524 6.91191 11.4476 7.17456 11.447C8.78597 11.4433 10.9268 11.4409 11.198 11.4494C11.4325 11.4568 11.5622 11.5465 11.6258 11.6293C11.6635 11.6903 11.6803 11.7619 11.6736 11.8332V12.7986C11.6736 13.1045 11.6283 13.4087 11.539 13.7012L11.001 15.4696C10.9623 15.5966 10.8839 15.7079 10.7773 15.787C10.6708 15.8662 10.5416 15.909 10.4088 15.9093H6.55707C6.45842 15.9093 6.36381 15.8701 6.29406 15.8003C6.2243 15.7306 6.18511 15.636 6.18511 15.5373V15.5386ZM10.2359 17.9041L9.54498 20.3593C9.53247 20.4039 9.50773 20.4441 9.47358 20.4753C9.43943 20.5065 9.39722 20.5276 9.35173 20.536C9.30624 20.5445 9.25928 20.5401 9.21617 20.5233C9.17306 20.5065 9.13551 20.478 9.10777 20.4409L7.26265 17.9853C7.23501 17.9484 7.21816 17.9046 7.21401 17.8588C7.20985 17.8129 7.21855 17.7668 7.23913 17.7256C7.25971 17.6844 7.29135 17.6497 7.33052 17.6255C7.36968 17.6013 7.41482 17.5884 7.46087 17.5884H9.99688C10.0349 17.5885 10.0724 17.5974 10.1065 17.6143C10.1406 17.6313 10.1703 17.6558 10.1934 17.686C10.2165 17.7162 10.2323 17.7514 10.2397 17.7887C10.2471 17.826 10.2458 17.8645 10.2359 17.9012V17.9041ZM6.86051 17.2262C6.81786 17.2263 6.77592 17.2153 6.73877 17.1944C6.70161 17.1734 6.67049 17.1432 6.64843 17.1067L6.41188 16.7201C6.38911 16.6824 6.37676 16.6394 6.3761 16.5954C6.37543 16.5514 6.38647 16.508 6.40809 16.4696C6.42971 16.4313 6.46113 16.3994 6.49913 16.3772C6.53713 16.355 6.58035 16.3433 6.62437 16.3432H17.8957C17.9398 16.3432 17.983 16.3549 18.021 16.3771C18.059 16.3993 18.0905 16.4312 18.1121 16.4696C18.1337 16.508 18.1446 16.5514 18.1439 16.5954C18.1431 16.6395 18.1307 16.6825 18.1078 16.7201L17.8725 17.1067C17.8504 17.1432 17.8193 17.1734 17.7821 17.1943C17.745 17.2152 17.703 17.2262 17.6604 17.2262H6.86051ZM22.3127 24.6589C21.7556 24.734 20.9938 24.7788 19.9297 24.7788C17.9341 24.7788 15.1024 25.9636 13.5154 27.9947C14.8952 25.6908 17.5311 23.4456 22.1777 23.2918C22.4213 23.2758 22.6535 23.1833 22.8413 23.0275C22.9086 23.4354 22.7744 24.1059 22.3127 24.6589Z" fill="#252525"/>
<path d="M8.77696 13.0877C8.77696 13.2441 8.73057 13.397 8.64365 13.5271C8.55674 13.6572 8.4332 13.7585 8.28867 13.8184C8.14415 13.8782 7.98512 13.8938 7.8317 13.8633C7.67829 13.8327 7.53738 13.7574 7.4268 13.6467C7.31621 13.5361 7.24093 13.3952 7.21046 13.2417C7.17999 13.0883 7.19571 12.9293 7.25563 12.7848C7.31555 12.6403 7.41697 12.5168 7.54707 12.43C7.67718 12.3431 7.83012 12.2968 7.98654 12.2969C8.09038 12.2969 8.19319 12.3173 8.28912 12.3571C8.38504 12.3968 8.47219 12.4551 8.54559 12.5285C8.619 12.602 8.67721 12.6891 8.71691 12.7851C8.75661 12.881 8.77701 12.9839 8.77696 13.0877Z" fill="#252525"/>
<path d="M23.2512 19.8704C22.4224 20.1016 21.484 20.071 20.8991 20.2207C20.1748 20.5878 19.6303 21.0009 19.8697 20.7713C19.9655 20.6791 20.0773 20.5123 20.2099 20.3088C20.3114 20.0576 20.2482 20.0025 20.2608 19.5971C20.2751 19.122 20.683 18.7439 20.8808 18.5538L20.8963 18.5387C20.8216 18.6285 20.6479 18.8883 20.8273 19.1122C20.8757 19.1716 20.9129 19.2393 20.9371 19.312C21.2197 18.9992 21.5574 18.7227 21.9652 18.582C23.1019 18.1904 23.6917 18.1713 23.763 17.3906C23.998 17.537 24.0286 18.8218 23.0073 19.4609C23.3507 19.5106 23.6488 19.5714 23.8895 19.4266C24.259 19.2047 23.555 19.7855 23.2512 19.8704Z" fill="#252525"/>
<path d="M3.05596 20.3924C2.47845 20.217 1.53917 20.206 0.721017 19.9376C0.421247 19.8393 -0.257824 19.228 0.103124 19.4661C0.33723 19.6211 0.637816 19.5738 0.982857 19.5396C-0.00903531 18.8556 0.0786528 17.5733 0.319692 17.4375C0.356399 18.2206 0.944927 18.2658 2.06285 18.7075C2.46458 18.8662 2.78964 19.1562 3.05759 19.4825C3.08498 19.4108 3.1252 19.3447 3.17628 19.2875C3.36552 19.0718 3.2032 18.8046 3.13264 18.7116L3.14773 18.7275C3.33697 18.9262 3.72728 19.3218 3.72076 19.7973C3.71505 20.2052 3.64938 20.2553 3.74033 20.5119C3.86269 20.7203 3.9671 20.8912 4.05887 20.9874C4.2893 21.2281 3.76277 20.7908 3.05596 20.3924Z" fill="#252525"/>
<path d="M17.5957 0.287109C17.3569 0.42903 17.151 0.582734 16.9766 0.759766C16.5929 1.14916 16.3805 1.62312 16.2598 2.23828H14.498C14.3891 1.61596 14.1653 1.14882 13.7715 0.765625C13.588 0.587083 13.3705 0.432049 13.1211 0.287109H17.5957Z" stroke="#252525" stroke-width="0.574037"/>
<path d="M34.6036 8.09933C34.1047 7.82864 33.6005 7.64376 33.0911 7.5447L33.1385 12.295L30.97 12.3167L30.9226 7.56633C30.4153 7.67554 29.9149 7.87044 29.4215 8.15104L28.6894 6.61457C29.146 6.33433 29.6585 6.11787 30.2267 5.96517C30.7949 5.81248 31.3822 5.7331 31.9886 5.72705C32.595 5.721 33.1838 5.78864 33.755 5.92997C34.3261 6.0713 34.8428 6.27749 35.3049 6.54856L34.6036 8.09933ZM38.2017 7.12614C39.0593 7.11758 39.7354 7.34363 40.2301 7.80427C40.7248 8.2588 40.9761 8.8934 40.9843 9.7081C40.9895 10.2288 40.8929 10.6861 40.6947 11.0802C40.4965 11.4742 40.2116 11.7803 39.8401 11.9984C39.4747 12.2165 39.05 12.3279 38.5661 12.3328C38.3027 12.3354 38.0727 12.304 37.876 12.2386C37.6793 12.167 37.5066 12.0554 37.3581 11.9037L37.3793 14.0354L35.3028 14.0561L35.2602 9.78359C35.2549 9.2568 35.3728 8.7931 35.6138 8.3925C35.8549 7.99189 36.1979 7.68217 36.643 7.46331C37.088 7.24446 37.6076 7.13207 38.2017 7.12614ZM38.1273 10.7198C38.3785 10.7173 38.5767 10.6296 38.722 10.4566C38.8672 10.2775 38.9383 10.0348 38.9353 9.72854C38.9323 9.42839 38.8564 9.19023 38.7076 9.01406C38.5588 8.83176 38.3588 8.74186 38.1076 8.74437C37.8565 8.74688 37.6583 8.84074 37.5131 9.02598C37.3679 9.20508 37.2968 9.44471 37.2998 9.74486C37.3028 10.0511 37.3787 10.2924 37.5275 10.4685C37.6763 10.6386 37.8762 10.7223 38.1273 10.7198ZM47.1128 7.12911L47.163 12.1551L45.1875 12.1748L45.1834 11.7613C44.8866 12.1012 44.4289 12.2743 43.8102 12.2804C43.3691 12.2848 42.9608 12.1848 42.585 11.9802C42.2154 11.7695 41.9183 11.4662 41.6938 11.0702C41.4754 10.6742 41.3636 10.2158 41.3584 9.69517C41.3532 9.17451 41.4559 8.71709 41.6664 8.32292C41.8829 7.92256 42.1739 7.61641 42.5394 7.40448C42.9109 7.18636 43.3172 7.0751 43.7582 7.0707C44.3156 7.06513 44.7428 7.20483 45.0397 7.4898L45.0363 7.14983L47.1128 7.12911ZM44.2902 10.6584C44.5291 10.656 44.7243 10.5683 44.8757 10.3952C45.0271 10.216 45.1012 9.97026 45.0981 9.65786C45.0949 9.34546 45.016 9.10427 44.8611 8.93428C44.7063 8.76429 44.5094 8.68049 44.2705 8.68288C44.0316 8.68526 43.8364 8.77297 43.685 8.94602C43.5336 9.11906 43.4594 9.36178 43.4626 9.67418C43.4657 9.98658 43.5447 10.2308 43.6996 10.4069C43.8544 10.5769 44.0513 10.6607 44.2902 10.6584ZM52.9534 12.0973L52.9217 9.84628L51.8744 11.7129L51.0015 11.7217L49.9535 9.82995L49.9764 12.127L48.1112 12.1456L48.061 7.11965L50.257 7.09774L51.4749 9.42883L52.8021 7.07235L54.7501 7.05291L54.8186 12.0787L52.9534 12.0973ZM60.0292 9.38942C60.5826 9.59219 60.8621 9.97841 60.8678 10.5481C60.8724 11.0075 60.6953 11.3707 60.3365 11.6377C59.9777 11.8986 59.4491 12.0325 58.7508 12.0395L55.783 12.0691L55.7328 7.04311L58.5536 7.01496C59.2274 7.00824 59.7523 7.1194 60.1283 7.34844C60.5042 7.57135 60.6943 7.89108 60.6984 8.30761C60.7007 8.54038 60.6446 8.74923 60.5301 8.93415C60.4155 9.11908 60.2486 9.27084 60.0292 9.38942ZM57.5719 9.00962L58.3897 9.00146C58.6898 8.99846 58.8387 8.87752 58.8363 8.63862C58.8352 8.52224 58.7975 8.43685 58.7235 8.38245C58.6556 8.32799 58.542 8.30156 58.3827 8.30315L57.5649 8.31131L57.5719 9.00962ZM58.5542 10.7549C58.8543 10.752 59.0032 10.6249 59.0007 10.3737C58.9983 10.1348 58.847 10.0169 58.5469 10.0199L57.5821 10.0295L57.5894 10.7646L58.5542 10.7549ZM66.9968 6.93072L67.0469 11.9567L65.0714 11.9764L65.0673 11.5629C64.7705 11.9028 64.3128 12.0759 63.6941 12.082C63.2531 12.0864 62.8447 11.9864 62.469 11.7818C62.0993 11.5711 61.8022 11.2678 61.5777 10.8718C61.3594 10.4758 61.2476 10.0174 61.2424 9.49677C61.2372 8.97611 61.3398 8.51869 61.5503 8.12452C61.7669 7.72416 62.0579 7.41801 62.4233 7.20608C62.7948 6.98796 63.2011 6.8767 63.6421 6.8723C64.1996 6.86673 64.6267 7.00644 64.9236 7.2914L64.9202 6.95143L66.9968 6.93072ZM64.1742 10.46C64.4131 10.4576 64.6082 10.3699 64.7596 10.1968C64.911 10.0176 64.9851 9.77186 64.982 9.45946C64.9789 9.14706 64.8999 8.90587 64.7451 8.73588C64.5902 8.5659 64.3933 8.48209 64.1544 8.48448C63.9156 8.48686 63.7204 8.57457 63.569 8.74762C63.4175 8.92066 63.3434 9.16338 63.3465 9.47578C63.3496 9.78818 63.4286 10.0324 63.5835 10.2085C63.7384 10.3785 63.9353 10.4623 64.1742 10.46ZM73.3385 6.86744L73.3886 11.8934L71.4131 11.9131L71.4084 11.4353C71.2265 11.6271 71.0135 11.7731 70.7695 11.8736C70.5254 11.9679 70.2655 12.0165 69.9899 12.0192C69.3528 12.0256 68.8394 11.8377 68.4497 11.4557C68.0598 11.0675 67.861 10.4814 67.8532 9.6973L67.8255 6.92245L69.9021 6.90173L69.9262 9.31824C69.9296 9.66127 69.9872 9.90574 70.0989 10.0516C70.2106 10.1976 70.3737 10.2694 70.5881 10.2673C70.7902 10.2653 70.9579 10.184 71.091 10.0234C71.2241 9.85664 71.289 9.59869 71.2855 9.24954L71.2619 6.88816L73.3385 6.86744ZM70.5135 6.48211C69.8765 6.48847 69.4097 6.36448 69.1131 6.11014C68.8164 5.84968 68.6653 5.4438 68.6598 4.89251L69.9921 4.87921C69.9942 5.08135 70.0294 5.23415 70.0978 5.33762C70.1723 5.43489 70.3045 5.48258 70.4944 5.48069C70.8374 5.47726 71.0069 5.27341 71.0029 4.86913L72.3535 4.85565C72.359 5.40695 72.213 5.81579 71.9155 6.08218C71.624 6.34238 71.1567 6.4757 70.5135 6.48211ZM79.8864 5.39616L79.9505 11.8279L77.7821 11.8496L77.7342 7.05331L76.6317 7.06431L76.6153 5.4288L79.8864 5.39616ZM84.3126 7.8974C84.81 8.01496 85.192 8.23475 85.4587 8.55677C85.7314 8.87261 85.87 9.25717 85.8745 9.71046C85.8784 10.0964 85.7748 10.4588 85.5637 10.7979C85.3588 11.1307 85.0368 11.4035 84.5978 11.6162C84.1589 11.8288 83.6117 11.9384 82.9563 11.945C82.503 11.9495 82.0492 11.905 81.5949 11.8115C81.1468 11.718 80.7533 11.5779 80.4145 11.3914L81.1336 9.78533C81.3986 9.93584 81.6815 10.0494 81.9824 10.126C82.2895 10.2026 82.5839 10.2395 82.8657 10.2367C83.1169 10.2342 83.3186 10.1893 83.4708 10.102C83.6231 10.0147 83.6985 9.89145 83.6969 9.73218C83.694 9.43816 83.4383 9.29369 82.9299 9.29876L82.0754 9.30728L82.0621 7.97499L82.9988 7.00078L80.7018 7.0237L80.6854 5.38819L85.4817 5.34033L85.495 6.67263L84.3126 7.8974Z" fill="#303030"/>
<path d="M31.6028 19.4924C31.1177 19.4972 30.7035 19.4352 30.3604 19.3063C30.021 19.1773 29.76 18.9888 29.5774 18.7407C29.3948 18.4889 29.3017 18.1847 29.2981 17.8282C29.2945 17.4644 29.3815 17.1566 29.5591 16.9049C29.7367 16.6532 29.9939 16.4595 30.3307 16.3238C30.6711 16.1881 31.084 16.1178 31.5691 16.1129C31.5764 16.1129 31.593 16.1127 31.6187 16.1124C31.6481 16.1121 31.6757 16.1119 31.7014 16.1116C31.7308 16.1113 31.7473 16.1112 31.751 16.1111C32.2325 16.1063 32.6429 16.1684 32.9824 16.2973C33.3218 16.4263 33.581 16.6166 33.76 16.8685C33.9389 17.1166 34.0301 17.4208 34.0337 17.781C34.0373 18.1338 33.9521 18.4379 33.7782 18.6933C33.608 18.9486 33.3563 19.1441 33.0232 19.2797C32.6937 19.4153 32.2901 19.4855 31.8123 19.4903C31.805 19.4904 31.7847 19.4906 31.7517 19.4909C31.7223 19.4912 31.691 19.4915 31.6579 19.4918C31.6285 19.4921 31.6102 19.4923 31.6028 19.4924ZM31.6689 18.9348C31.6763 18.9348 31.6873 18.9347 31.702 18.9345C31.7167 18.9344 31.7259 18.9343 31.7296 18.9342C32.086 18.927 32.3833 18.8799 32.6213 18.793C32.8631 18.7061 33.0438 18.5793 33.1634 18.4127C33.2867 18.2424 33.3471 18.0323 33.3446 17.7823C33.3421 17.5324 33.2775 17.3254 33.1509 17.1613C33.0243 16.9971 32.8411 16.874 32.6014 16.7918C32.3616 16.7097 32.0672 16.6703 31.718 16.6738C31.7144 16.6739 31.7033 16.674 31.685 16.6742C31.6666 16.6743 31.6537 16.6745 31.6464 16.6745C31.2825 16.6782 30.9761 16.7235 30.727 16.8105C30.4815 16.8938 30.2972 17.0206 30.1739 17.191C30.0543 17.3576 29.9957 17.5677 29.9983 17.8212C30.0008 18.0748 30.0672 18.2855 30.1975 18.4533C30.3315 18.6174 30.522 18.7405 30.7691 18.8225C31.0162 18.9009 31.3161 18.9384 31.6689 18.9348ZM31.3587 19.8973L31.3172 15.7295L31.9787 15.7229L32.0203 19.8907L31.3587 19.8973ZM36.1016 19.7342C35.7745 19.7374 35.4872 19.676 35.2397 19.5498C34.9958 19.4199 34.8047 19.2417 34.6664 19.0152C34.5319 18.7887 34.4631 18.5302 34.4602 18.2399C34.4573 17.9458 34.519 17.6861 34.6454 17.4606C34.7755 17.2314 34.9538 17.0514 35.1804 16.9205C35.4106 16.7895 35.6728 16.7226 35.9668 16.7196C36.2535 16.7168 36.5095 16.7767 36.7349 16.8994C36.9604 17.0222 37.1386 17.1968 37.2695 17.4234C37.4004 17.65 37.4674 17.9176 37.4705 18.2264C37.4708 18.2558 37.4692 18.2889 37.4659 18.3257C37.4663 18.3624 37.4648 18.3973 37.4615 18.4305L35.0082 18.4549L35.0036 17.9974L37.093 17.9765L36.8243 18.1225C36.8263 17.9534 36.7899 17.8049 36.7151 17.677C36.6404 17.5491 36.5383 17.4491 36.4089 17.3769C36.2832 17.3046 36.1377 17.2693 35.9723 17.2709C35.8032 17.2726 35.6547 17.3109 35.5268 17.3857C35.4026 17.4604 35.3044 17.5643 35.2322 17.6973C35.1637 17.8267 35.1303 17.9796 35.132 18.156L35.1331 18.2662C35.1349 18.4426 35.1769 18.5984 35.2591 18.7336C35.3413 18.8688 35.4563 18.9724 35.604 19.0444C35.7518 19.1165 35.9212 19.1516 36.1123 19.1496C36.2777 19.148 36.4263 19.1208 36.5581 19.068C36.6899 19.0152 36.8067 18.9332 36.9085 18.8219L37.2821 19.2427C37.1513 19.3984 36.9853 19.5195 36.784 19.6061C36.5864 19.6889 36.3589 19.7316 36.1016 19.7342ZM39.5787 19.6995C39.27 19.7026 38.9937 19.641 38.7499 19.5148C38.5097 19.3849 38.3204 19.2066 38.1822 18.9801C38.0439 18.7536 37.9733 18.4952 37.9704 18.2048C37.9675 17.9108 38.0329 17.651 38.1666 17.4255C38.3004 17.1963 38.486 17.0161 38.7236 16.8851C38.9649 16.7541 39.2399 16.687 39.5486 16.6839C39.8353 16.681 40.0877 16.7373 40.3057 16.8528C40.5273 16.9645 40.6962 17.1319 40.8124 17.355L40.2863 17.669C40.1967 17.5302 40.0872 17.4284 39.9579 17.3635C39.8323 17.2986 39.696 17.2669 39.549 17.2683C39.3799 17.27 39.2277 17.3083 39.0925 17.3832C38.9572 17.458 38.8517 17.5657 38.7759 17.7061C38.7001 17.8429 38.6631 18.0068 38.6651 18.1979C38.667 18.389 38.7072 18.554 38.7858 18.6929C38.8643 18.8281 38.9719 18.9318 39.1087 19.004C39.2454 19.0761 39.3983 19.1113 39.5673 19.1097C39.7143 19.1082 39.85 19.0738 39.9743 19.0064C40.1023 18.9389 40.2097 18.8349 40.2965 18.6944L40.8288 18.9978C40.7171 19.2195 40.5516 19.3921 40.3323 19.5155C40.1166 19.6353 39.8654 19.6966 39.5787 19.6995ZM42.0324 19.6364L42.0072 17.1115L42.1688 17.2753L40.9725 17.2872L40.9666 16.7028L43.7231 16.6753L43.7289 17.2597L42.5381 17.2716L42.6964 17.1046L42.7216 19.6295L42.0324 19.6364ZM44.2523 19.6143L44.223 16.6703L44.9121 16.6635L44.9315 18.604L46.5384 16.6472L47.1669 16.641L47.1963 19.5849L46.5071 19.5918L46.4878 17.6512L44.8863 19.6079L44.2523 19.6143ZM48.1233 19.5756L48.0939 16.6317L49.5328 16.6174C49.8893 16.6138 50.1692 16.6772 50.3727 16.8075C50.5798 16.9377 50.6846 17.1241 50.687 17.3667C50.6894 17.6056 50.5957 17.794 50.406 17.9319C50.2162 18.0661 49.9632 18.1348 49.6472 18.138L49.7282 17.9662C50.0847 17.9627 50.3499 18.0262 50.524 18.1568C50.7017 18.2836 50.7918 18.472 50.7943 18.722C50.7969 18.9829 50.7015 19.1879 50.5082 19.3368C50.3149 19.4821 50.0197 19.5567 49.6228 19.5607L48.1233 19.5756ZM48.7743 19.0674L49.5626 19.0595C49.7501 19.0577 49.8913 19.0269 49.9863 18.9671C50.0812 18.9037 50.128 18.8095 50.1268 18.6845C50.1255 18.5522 50.0804 18.4552 49.9916 18.3936C49.9027 18.332 49.7646 18.3022 49.5772 18.3041L48.7668 18.3121L48.7743 19.0674ZM48.7622 17.8546L49.4844 17.8474C49.6608 17.8456 49.7928 17.813 49.8804 17.7497C49.9716 17.6826 50.0166 17.5903 50.0155 17.4727C50.0142 17.3514 49.9674 17.2618 49.8749 17.2039C49.7861 17.146 49.6535 17.1179 49.4771 17.1196L48.7549 17.1269L48.7622 17.8546ZM53.3227 19.5238L53.3168 18.9284L53.2769 18.8019L53.2665 17.76C53.2645 17.5579 53.2023 17.4023 53.0799 17.2932C52.9575 17.1805 52.7732 17.1254 52.5269 17.1278C52.3616 17.1295 52.1983 17.1568 52.0371 17.2099C51.8795 17.2629 51.7461 17.3359 51.6368 17.4289L51.3616 16.9299C51.5184 16.8071 51.705 16.7152 51.9212 16.6542C52.1411 16.5895 52.3687 16.556 52.6039 16.5536C53.0303 16.5494 53.3602 16.649 53.5938 16.8525C53.8311 17.0523 53.9518 17.3654 53.9561 17.7917L53.9733 19.5173L53.3227 19.5238ZM52.3969 19.5716C52.1764 19.5738 51.9831 19.539 51.817 19.4671C51.6508 19.3916 51.5211 19.2881 51.4279 19.1567C51.3384 19.0216 51.2928 18.8695 51.2911 18.7005C51.2894 18.5351 51.3265 18.3858 51.4024 18.2528C51.4819 18.1196 51.6114 18.0136 51.7907 17.9346C51.97 17.8556 52.2085 17.8147 52.5062 17.8117L53.3607 17.8032L53.3653 18.2607L52.5604 18.2688C52.3252 18.2711 52.1675 18.3113 52.0874 18.3893C52.0073 18.4636 51.9678 18.5559 51.9689 18.6661C51.9701 18.7911 52.0207 18.8898 52.1207 18.9623C52.2207 19.0349 52.3589 19.0702 52.5353 19.0685C52.7043 19.0668 52.8546 19.0267 52.9862 18.9482C53.1214 18.8697 53.2177 18.7548 53.275 18.6035L53.3949 19.0158C53.3304 19.1892 53.2123 19.3245 53.0405 19.4218C52.8724 19.5191 52.6579 19.569 52.3969 19.5716ZM54.7769 19.5644C54.7218 19.5649 54.6611 19.56 54.5948 19.5497C54.5323 19.5393 54.466 19.5252 54.3959 19.5075L54.4232 18.9283C54.449 18.9318 54.4729 18.9352 54.495 18.9387C54.5171 18.9421 54.5373 18.9437 54.5557 18.9436C54.6697 18.9424 54.7575 18.9066 54.8193 18.8362C54.8811 18.7657 54.9261 18.6715 54.9543 18.5536C54.9862 18.432 55.0069 18.2977 55.0165 18.1505C55.0297 17.9997 55.0392 17.8489 55.045 17.6981L55.0833 16.562L57.4649 16.5382L57.4943 19.4821L56.8052 19.489L56.7797 16.942L56.9415 17.1279L55.5412 17.1418L55.6881 16.9474L55.6573 17.7251C55.6489 17.9862 55.6292 18.229 55.5984 18.4535C55.5712 18.6743 55.5253 18.8677 55.4608 19.0338C55.4 19.1998 55.3131 19.3293 55.2001 19.4223C55.0907 19.5153 54.9497 19.5627 54.7769 19.5644ZM59.8006 19.4646L58.4223 19.4729L58.393 16.529L59.0821 16.5221L59.0917 17.4869L59.8801 17.4845C60.2587 17.4807 60.548 17.5624 60.7482 17.7295C60.9483 17.8965 61.05 18.1344 61.053 18.4432C61.0562 18.7629 60.9485 19.0139 60.7297 19.1962C60.511 19.3748 60.2013 19.4643 59.8006 19.4646ZM59.7349 18.9581C59.9371 18.9597 60.0911 18.9159 60.1968 18.8266C60.3025 18.7374 60.3545 18.6082 60.3528 18.4391C60.3511 18.2701 60.2966 18.1493 60.1893 18.0769C60.0856 18.0007 59.9308 17.9618 59.725 17.9602L59.0965 17.961L59.1064 18.9588L59.7349 18.9581ZM29.6154 24.7606L29.586 21.8166L31.8463 21.7941L31.8522 22.3785L30.1211 22.3957L30.2794 22.2398L30.3045 24.7537L29.6154 24.7606ZM33.5605 24.7598C33.2591 24.7628 32.9902 24.7012 32.7537 24.5749C32.5171 24.4449 32.3297 24.2667 32.1915 24.0402C32.0532 23.8136 31.9826 23.5552 31.9798 23.2649C31.9768 22.9708 32.0422 22.711 32.176 22.4855C32.3097 22.2563 32.4935 22.0762 32.7274 21.9452C32.9614 21.8142 33.229 21.7472 33.5304 21.7442C33.8355 21.7412 34.1062 21.8028 34.3427 21.9291C34.5829 22.0553 34.7703 22.2299 34.9048 22.4528C35.0431 22.6756 35.1136 22.9359 35.1166 23.2336C35.1195 23.5239 35.0541 23.7837 34.9204 24.0129C34.7904 24.2421 34.6066 24.4241 34.369 24.5587C34.135 24.6897 33.8656 24.7567 33.5605 24.7598ZM33.5546 24.1699C33.7237 24.1682 33.874 24.13 34.0056 24.0551C34.1372 23.9803 34.239 23.8727 34.3111 23.7323C34.3869 23.5919 34.4239 23.4279 34.422 23.2405C34.4201 23.0494 34.3799 22.8862 34.3013 22.751C34.2264 22.6121 34.1224 22.5065 33.9894 22.4343C33.8564 22.3621 33.7071 22.3269 33.5418 22.3285C33.3727 22.3302 33.2224 22.3685 33.0908 22.4433C32.9629 22.5181 32.861 22.6257 32.7853 22.7661C32.7094 22.9029 32.6725 23.0668 32.6744 23.2579C32.6763 23.4454 32.7165 23.6085 32.7951 23.7474C32.8736 23.8863 32.9776 23.9919 33.107 24.0641C33.24 24.1363 33.3892 24.1716 33.5546 24.1699ZM37.4443 24.721C37.2054 24.7234 36.9862 24.6705 36.7866 24.5622C36.5907 24.4539 36.4329 24.29 36.313 24.0707C36.1969 23.8476 36.1371 23.5652 36.1337 23.2234C36.1302 22.8779 36.1825 22.5944 36.2906 22.3728C36.4023 22.1511 36.5551 21.986 36.7488 21.8775C36.9425 21.7653 37.1643 21.7079 37.4142 21.7055C37.7045 21.7026 37.9606 21.7625 38.1824 21.8852C38.4078 22.008 38.586 22.1808 38.7168 22.4037C38.8514 22.6266 38.9202 22.8905 38.9232 23.1956C38.9263 23.5006 38.8628 23.7677 38.7327 23.9969C38.6063 24.2224 38.4317 24.3988 38.2087 24.5259C37.9894 24.6531 37.7346 24.7181 37.4443 24.721ZM35.8227 25.7682L35.7827 21.7548L36.4387 21.7483L36.4457 22.4429L36.4314 23.226L36.4944 24.0082L36.5119 25.7614L35.8227 25.7682ZM37.3612 24.1319C37.5266 24.1303 37.6733 24.092 37.8012 24.0173C37.9327 23.9424 38.0364 23.8348 38.1122 23.6944C38.188 23.5539 38.225 23.39 38.2231 23.2026C38.2212 23.0114 38.181 22.8483 38.1024 22.7131C38.0238 22.5742 37.918 22.4686 37.785 22.3965C37.6556 22.3242 37.5082 22.2889 37.3428 22.2906C37.1775 22.2922 37.029 22.3305 36.8974 22.4053C36.7658 22.4801 36.6621 22.5878 36.5864 22.7282C36.5105 22.865 36.4736 23.0289 36.4755 23.22C36.4773 23.4074 36.5176 23.5706 36.5961 23.7095C36.6747 23.8484 36.7805 23.9539 36.9136 24.0261C37.0466 24.0983 37.1958 24.1336 37.3612 24.1319ZM40.9362 24.6862C40.6349 24.6892 40.3659 24.6276 40.1294 24.5013C39.8929 24.3713 39.7055 24.1931 39.5672 23.9666C39.429 23.74 39.3584 23.4816 39.3555 23.1913C39.3525 22.8972 39.4179 22.6375 39.5517 22.4119C39.6854 22.1827 39.8692 22.0026 40.1032 21.8716C40.3371 21.7406 40.6048 21.6736 40.9061 21.6706C41.2112 21.6676 41.482 21.7292 41.7185 21.8555C41.9586 21.9817 42.146 22.1563 42.2806 22.3792C42.4188 22.602 42.4894 22.8623 42.4923 23.16C42.4952 23.4503 42.4298 23.7101 42.2961 23.9393C42.1661 24.1685 41.9823 24.3505 41.7447 24.4852C41.5108 24.6161 41.2413 24.6831 40.9362 24.6862ZM40.9303 24.0963C41.0994 24.0946 41.2497 24.0564 41.3813 23.9815C41.5129 23.9067 41.6147 23.7991 41.6868 23.6587C41.7626 23.5183 41.7996 23.3543 41.7977 23.1669C41.7958 22.9758 41.7556 22.8126 41.677 22.6774C41.6021 22.5385 41.4982 22.4329 41.3651 22.3607C41.2321 22.2885 41.0829 22.2533 40.9175 22.2549C40.7484 22.2566 40.5981 22.2949 40.4665 22.3697C40.3386 22.4445 40.2368 22.5521 40.161 22.6925C40.0852 22.8293 40.0482 22.9932 40.0501 23.1843C40.052 23.3718 40.0922 23.5349 40.1708 23.6738C40.2493 23.8127 40.3533 23.9183 40.4827 23.9905C40.6157 24.0627 40.765 24.098 40.9303 24.0963ZM43.5256 24.1421L42.8409 24.0442C42.9512 24.0431 43.0391 24.0073 43.1045 23.9368C43.1736 23.8626 43.2259 23.7628 43.2614 23.6375C43.3006 23.5084 43.3285 23.363 43.3453 23.2011C43.362 23.0355 43.3732 22.8645 43.3788 22.688L43.4073 21.6787L45.833 21.6545L45.8592 24.2787L45.17 24.2856L45.1497 22.2458L44.0195 22.2571L44.0077 22.7313C44.0021 22.9005 43.9927 23.0641 43.9795 23.2223C43.9664 23.3768 43.9439 23.5204 43.9122 23.653C43.8804 23.782 43.8337 23.8891 43.772 23.9742C43.7104 24.0594 43.6282 24.1153 43.5256 24.1421ZM42.7486 25.2856L42.7362 24.0452L46.292 24.0097L46.3044 25.2501L45.6594 25.2566L45.6529 24.6005L43.3815 24.6232L43.3881 25.2792L42.7486 25.2856ZM48.2534 24.6132C47.9447 24.6163 47.6684 24.5547 47.4245 24.4285C47.1843 24.2986 46.9951 24.1203 46.8568 23.8938C46.7185 23.6673 46.648 23.4089 46.6451 23.1185C46.6421 22.8245 46.7075 22.5647 46.8413 22.3392C46.975 22.1099 47.1607 21.9298 47.3983 21.7988C47.6396 21.6677 47.9146 21.6007 48.2233 21.5976C48.51 21.5947 48.7623 21.651 48.9803 21.7665C49.202 21.8782 49.3709 22.0456 49.4871 22.2687L48.9609 22.5827C48.8713 22.4439 48.7618 22.3421 48.6326 22.2772C48.5069 22.2123 48.3706 22.1806 48.2236 22.182C48.0545 22.1837 47.9024 22.222 47.7671 22.2969C47.6319 22.3717 47.5264 22.4794 47.4506 22.6198C47.3747 22.7565 47.3378 22.9205 47.3397 23.1116C47.3416 23.3027 47.3818 23.4677 47.4604 23.6066C47.539 23.7418 47.6466 23.8455 47.7833 23.9177C47.92 23.9898 48.0729 24.025 48.242 24.0234C48.389 24.0219 48.5246 23.9875 48.6489 23.92C48.7769 23.8526 48.8843 23.7486 48.9711 23.6081L49.5035 23.9115C49.3917 24.1332 49.2262 24.3057 49.0069 24.4292C48.7912 24.549 48.54 24.6103 48.2534 24.6132ZM52.2281 24.5349L51.15 23.1342L51.7089 22.7813L53.0385 24.5268L52.2281 24.5349ZM50.1167 24.556L50.0873 21.6121L50.7764 21.6052L50.8058 24.5491L50.1167 24.556ZM50.59 23.3714L50.5843 22.798L51.5822 22.7881L51.5879 23.3614L50.59 23.3714ZM51.7787 23.15L51.133 23.0793L52.1988 21.591L52.9375 21.5836L51.7787 23.15ZM53.5246 24.522L53.4952 21.5781L54.1843 21.5712L54.2037 23.5118L55.8106 21.555L56.4391 21.5487L56.4685 24.4926L55.7794 24.4995L55.76 22.5589L54.1586 24.5157L53.5246 24.522ZM56.96 24.4877L58.2387 22.7878L58.2313 23.1573L56.9802 21.5433L57.7465 21.5357L58.6236 22.6847L58.3314 22.6877L59.1909 21.5212L59.9351 21.5138L58.7054 23.1526L58.7073 22.7832L60.0141 24.4572L59.2368 24.465L58.3149 23.2447L58.602 23.2804L57.7208 24.4801L56.96 24.4877ZM62.0309 24.4371L62.0015 21.4932L62.6906 21.4863L62.71 23.4269L64.317 21.4701L64.9454 21.4638L64.9748 24.4077L64.2857 24.4146L64.2663 22.4741L62.6649 24.4308L62.0309 24.4371ZM67.2418 24.4237C66.9331 24.4268 66.6568 24.3652 66.413 24.239C66.1727 24.1091 65.9835 23.9309 65.8453 23.7044C65.707 23.4778 65.6364 23.2194 65.6335 22.9291C65.6306 22.635 65.696 22.3753 65.8297 22.1497C65.9635 21.9205 66.1491 21.7404 66.3867 21.6093C66.628 21.4783 66.903 21.4112 67.2117 21.4081C67.4984 21.4053 67.7508 21.4616 67.9688 21.577C68.1904 21.6887 68.3593 21.8561 68.4755 22.0792L67.9494 22.3932C67.8598 22.2544 67.7503 22.1526 67.621 22.0877C67.4954 22.0228 67.3591 21.9911 67.2121 21.9926C67.043 21.9942 66.8908 22.0325 66.7556 22.1074C66.6203 22.1823 66.5148 22.2899 66.439 22.4303C66.3632 22.5671 66.3262 22.731 66.3281 22.9221C66.3301 23.1133 66.3703 23.2783 66.4489 23.4171C66.5274 23.5524 66.635 23.656 66.7718 23.7282C66.9085 23.8003 67.0614 23.8356 67.2304 23.8339C67.3774 23.8324 67.5131 23.798 67.6374 23.7306C67.7654 23.6631 67.8728 23.5592 67.9596 23.4186L68.4919 23.7221C68.3802 23.9437 68.2147 24.1163 67.9953 24.2398C67.7797 24.3595 67.5285 24.4209 67.2418 24.4237ZM69.6955 24.3606L69.6703 21.8357L69.8319 21.9995L68.6355 22.0114L68.6297 21.4271L71.3862 21.3996L71.392 21.9839L70.2012 21.9958L70.3595 21.8288L70.3846 24.3538L69.6955 24.3606ZM73.0987 24.3653C72.7973 24.3683 72.5284 24.3066 72.2919 24.1804C72.0553 24.0504 71.8679 23.8722 71.7297 23.6456C71.5914 23.4191 71.5208 23.1607 71.5179 22.8704C71.515 22.5763 71.5804 22.3165 71.7142 22.091C71.8479 21.8618 72.0317 21.6817 72.2656 21.5507C72.4996 21.4197 72.7672 21.3527 73.0686 21.3497C73.3737 21.3467 73.6444 21.4083 73.8809 21.5346C74.1211 21.6608 74.3085 21.8354 74.443 22.0583C74.5812 22.2811 74.6518 22.5414 74.6548 22.8391C74.6577 23.1294 74.5923 23.3892 74.4586 23.6184C74.3286 23.8476 74.1447 24.0295 73.9072 24.1642C73.6732 24.2952 73.4037 24.3622 73.0987 24.3653ZM73.0928 23.7754C73.2619 23.7737 73.4122 23.7355 73.5438 23.6606C73.6753 23.5858 73.7772 23.4782 73.8493 23.3378C73.9251 23.1974 73.962 23.0334 73.9602 22.846C73.9583 22.6549 73.918 22.4917 73.8395 22.3565C73.7646 22.2176 73.6606 22.112 73.5276 22.0398C73.3946 21.9676 73.2453 21.9324 73.0799 21.934C72.9109 21.9357 72.7606 21.974 72.629 22.0488C72.5011 22.1236 72.3992 22.2312 72.3234 22.3716C72.2476 22.5084 72.2107 22.6723 72.2126 22.8634C72.2144 23.0509 72.2547 23.214 72.3332 23.3529C72.4118 23.4918 72.5158 23.5974 72.6452 23.6696C72.7782 23.7418 72.9274 23.777 73.0928 23.7754ZM76.9825 24.3265C76.7436 24.3289 76.5244 24.276 76.3248 24.1677C76.1289 24.0594 75.971 23.8955 75.8512 23.6762C75.7351 23.4531 75.6753 23.1707 75.6719 22.8289C75.6684 22.4834 75.7207 22.1999 75.8288 21.9783C75.9405 21.7566 76.0932 21.5915 76.287 21.483C76.4807 21.3708 76.7025 21.3134 76.9524 21.3109C77.2427 21.308 77.4988 21.368 77.7206 21.4907C77.946 21.6135 78.1242 21.7863 78.255 22.0092C78.3896 22.2321 78.4584 22.496 78.4614 22.8011C78.4645 23.1061 78.401 23.3732 78.2709 23.6024C78.1445 23.8279 77.9699 24.0042 77.7469 24.1314C77.5276 24.2586 77.2728 24.3236 76.9825 24.3265ZM75.3609 25.3737L75.3209 21.3603L75.9769 21.3538L75.9839 22.0484L75.9696 22.8314L76.0326 23.6137L76.0501 25.3669L75.3609 25.3737ZM76.8994 23.7374C77.0648 23.7358 77.2114 23.6975 77.3394 23.6228C77.4709 23.5479 77.5746 23.4403 77.6504 23.2999C77.7262 23.1594 77.7631 22.9955 77.7613 22.8081C77.7594 22.6169 77.7191 22.4538 77.6406 22.3186C77.562 22.1797 77.4562 22.0741 77.3232 22.0019C77.1938 21.9297 77.0464 21.8944 76.881 21.8961C76.7157 21.8977 76.5672 21.936 76.4356 22.0108C76.304 22.0856 76.2003 22.1933 76.1245 22.3337C76.0487 22.4704 76.0118 22.6344 76.0137 22.8255C76.0155 23.0129 76.0558 23.1761 76.1343 23.315C76.2129 23.4539 76.3187 23.5594 76.4518 23.6316C76.5848 23.7038 76.734 23.7391 76.8994 23.7374ZM79.162 24.2662L79.1326 21.3223L79.8217 21.3154L79.8411 23.256L81.448 21.2992L82.0765 21.2929L82.1059 24.2368L81.4167 24.2437L81.3974 22.3031L79.7959 24.2599L79.162 24.2662ZM83.0329 24.2276L83.0035 21.2836L83.6926 21.2768L83.712 23.2173L85.3189 21.2605L85.9474 21.2543L85.9768 24.1982L85.2877 24.2051L85.2683 22.2645L83.6669 24.2212L83.0329 24.2276ZM84.4279 20.9221C84.1339 20.925 83.9071 20.8593 83.7477 20.7249C83.5883 20.5868 83.5054 20.3855 83.4991 20.1209L83.9567 20.1163C83.9617 20.2486 84.0032 20.3529 84.0811 20.4293C84.1627 20.5057 84.2752 20.5432 84.4186 20.5417C84.5582 20.5404 84.6681 20.5007 84.7482 20.4227C84.832 20.3446 84.875 20.2395 84.8774 20.1071L85.346 20.1024C85.3449 20.3671 85.2643 20.5701 85.1039 20.7113C84.9473 20.8489 84.7219 20.9192 84.4279 20.9221Z" fill="#303030"/>
</svg>
