<svg width="177" height="91" viewBox="0 0 177 91" fill="none" xmlns="http://www.w3.org/2000/svg">
<rect x="64.6406" y="29.9453" width="44.6807" height="5.46625" rx="2.73313" fill="#1B1B1B"/>
<rect x="66.8984" width="44.6807" height="3.32729" rx="0.950653" transform="rotate(42.731 66.8984 0)" fill="#1B1B1B"/>
<path d="M24.5602 39.0515C25.4155 35.2575 28.7855 32.5625 32.6748 32.5625H140.759C144.728 32.5625 148.145 35.3673 148.918 39.2609L157.022 80.0837C158.044 85.2277 154.108 90.0218 148.863 90.0218H23.4724C18.1404 90.0218 14.1853 85.0758 15.3578 79.8744L24.5602 39.0515Z" fill="#FC4F2D"/>
<rect x="128.336" y="38.5039" width="48.008" height="33.5105" rx="5.22859" fill="white"/>
<rect x="85.5547" y="38.5039" width="38.7391" height="33.5105" rx="5.22859" fill="white"/>
<rect x="42.7812" y="38.5039" width="38.7391" height="33.5105" rx="5.22859" fill="white"/>
<rect y="38.5039" width="38.7391" height="33.5105" rx="5.22859" fill="white"/>
<rect x="64.6406" y="41.1172" width="42.7794" height="39.4521" rx="5.22859" fill="#FC4F2D"/>
<path d="M78.143 78.7969H67.7333V47.5679L72.9619 45.524H78.143V78.7969ZM104.468 63.1586V74.6615C104.468 77.0857 102.757 78.7969 100.333 78.7969H80.9868V70.5262H94.1058V65.9155H86.5956V60.7345L92.1094 55.6485V53.8898H82.6504L80.9868 49.6594V45.524H104.278V53.462L100.237 58.8332C102.852 59.0233 104.468 60.4493 104.468 63.1586Z" fill="white"/>
</svg>
