<svg width="1354" height="115" viewBox="0 0 1354 115" fill="none" xmlns="http://www.w3.org/2000/svg">
<path d="M0.6875 99.8007V23.8949H58.4843V43.7388H20.3146L25.8448 38.2085V99.8007H0.6875Z" fill="#1B1B1B"/>
<path d="M100.289 101.536C94.0722 101.536 88.3251 100.56 83.0478 98.6078C77.8429 96.656 73.3247 93.9089 69.4932 90.3666C65.6618 86.7521 62.6617 82.5231 60.493 77.6795C58.3965 72.836 57.3483 67.5588 57.3483 61.8478C57.3483 56.0645 58.3965 50.7872 60.493 46.016C62.6617 41.1725 65.6618 36.9796 69.4932 33.4373C73.3247 29.8227 77.8429 27.0395 83.0478 25.0877C88.3251 23.1358 94.0361 22.1599 100.181 22.1599C106.398 22.1599 112.109 23.1358 117.314 25.0877C122.519 27.0395 127.037 29.8227 130.868 33.4373C134.7 36.9796 137.664 41.1725 139.76 46.016C141.929 50.7872 143.013 56.0645 143.013 61.8478C143.013 67.5588 141.929 72.836 139.76 77.6795C137.664 82.5231 134.7 86.7521 130.868 90.3666C127.037 93.9089 122.519 96.656 117.314 98.6078C112.109 100.56 106.434 101.536 100.289 101.536ZM100.181 80.8242C102.566 80.8242 104.771 80.3905 106.795 79.523C108.892 78.6555 110.699 77.4265 112.217 75.8361C113.808 74.1734 115.037 72.1854 115.904 69.8721C116.772 67.4865 117.205 64.8117 117.205 61.8478C117.205 58.8838 116.772 56.2452 115.904 53.9319C115.037 51.5463 113.808 49.5582 112.217 47.9678C110.699 46.3051 108.892 45.04 106.795 44.1726C104.771 43.3051 102.566 42.8713 100.181 42.8713C97.7952 42.8713 95.5542 43.3051 93.4578 44.1726C91.4336 45.04 89.6263 46.3051 88.0359 47.9678C86.5178 49.5582 85.325 51.5463 84.4575 53.9319C83.59 56.2452 83.1563 58.8838 83.1563 61.8478C83.1563 64.8117 83.59 67.4865 84.4575 69.8721C85.325 72.1854 86.5178 74.1734 88.0359 75.8361C89.6263 77.4265 91.4336 78.6555 93.4578 79.523C95.5542 80.3905 97.7952 80.8242 100.181 80.8242Z" fill="#1B1B1B"/>
<path d="M152.224 99.8007V23.8949H188.767C195.852 23.8949 201.96 25.0515 207.093 27.3648C212.298 29.6782 216.31 33.0036 219.129 37.341C221.949 41.6062 223.358 46.6666 223.358 52.5222C223.358 58.3778 221.949 63.4382 219.129 67.7034C216.31 71.9685 212.298 75.2939 207.093 77.6795C201.96 79.9929 195.852 81.1495 188.767 81.1495H166.429L177.815 70.1974V99.8007H152.224ZM177.815 73.0168L166.429 61.414H187.14C190.683 61.414 193.285 60.6188 194.948 59.0284C196.683 57.438 197.55 55.2693 197.55 52.5222C197.55 49.7751 196.683 47.6064 194.948 46.016C193.285 44.4256 190.683 43.6304 187.14 43.6304H166.429L177.815 32.0276V73.0168Z" fill="#1B1B1B"/>
<path d="M270.887 101.536C264.67 101.536 258.923 100.56 253.645 98.6078C248.44 96.656 243.922 93.9089 240.091 90.3666C236.259 86.7521 233.259 82.5231 231.09 77.6795C228.994 72.836 227.946 67.5588 227.946 61.8478C227.946 56.0645 228.994 50.7872 231.09 46.016C233.259 41.1725 236.259 36.9796 240.091 33.4373C243.922 29.8227 248.44 27.0395 253.645 25.0877C258.923 23.1358 264.634 22.1599 270.778 22.1599C276.995 22.1599 282.706 23.1358 287.911 25.0877C293.116 27.0395 297.634 29.8227 301.466 33.4373C305.297 36.9796 308.261 41.1725 310.358 46.016C312.526 50.7872 313.611 56.0645 313.611 61.8478C313.611 67.5588 312.526 72.836 310.358 77.6795C308.261 82.5231 305.297 86.7521 301.466 90.3666C297.634 93.9089 293.116 96.656 287.911 98.6078C282.706 100.56 277.031 101.536 270.887 101.536ZM270.778 80.8242C273.164 80.8242 275.369 80.3905 277.393 79.523C279.489 78.6555 281.297 77.4265 282.815 75.8361C284.405 74.1734 285.634 72.1854 286.502 69.8721C287.369 67.4865 287.803 64.8117 287.803 61.8478C287.803 58.8838 287.369 56.2452 286.502 53.9319C285.634 51.5463 284.405 49.5582 282.815 47.9678C281.297 46.3051 279.489 45.04 277.393 44.1726C275.369 43.3051 273.164 42.8713 270.778 42.8713C268.393 42.8713 266.152 43.3051 264.055 44.1726C262.031 45.04 260.224 46.3051 258.633 47.9678C257.115 49.5582 255.922 51.5463 255.055 53.9319C254.187 56.2452 253.754 58.8838 253.754 61.8478C253.754 64.8117 254.187 67.4865 255.055 69.8721C255.922 72.1854 257.115 74.1734 258.633 75.8361C260.224 77.4265 262.031 78.6555 264.055 79.523C266.152 80.3905 268.393 80.8242 270.778 80.8242Z" fill="#1B1B1B"/>
<path d="M344.993 82.9929L317.992 79.9567C320.378 79.9567 322.33 79.1615 323.848 77.5711C325.438 75.9084 326.703 73.6312 327.643 70.7396C328.583 67.7756 329.27 64.3057 329.704 60.3297C330.21 56.2813 330.571 51.8354 330.788 46.9919L331.655 23.8949H395.85V88.957H370.693V43.7388H353.234L353.017 49.1606C352.873 53.1367 352.62 56.8597 352.258 60.3297C351.897 63.7996 351.391 66.9804 350.74 69.8721C350.162 72.7637 349.403 75.3301 348.463 77.5711C347.523 79.7398 346.367 81.5471 344.993 82.9929ZM315.824 114.657V79.9567H405.826V114.657H382.404V99.8007H339.246V114.657H315.824Z" fill="#1B1B1B"/>
<path d="M452.59 101.536C446.518 101.536 440.879 100.596 435.674 98.7163C430.542 96.7644 426.06 94.0174 422.228 90.4751C418.469 86.9328 415.541 82.7399 413.445 77.8964C411.348 73.0529 410.3 67.7033 410.3 61.8478C410.3 55.9922 411.348 50.6426 413.445 45.7991C415.541 40.9556 418.469 36.7627 422.228 33.2204C426.06 29.6782 430.542 26.9672 435.674 25.0877C440.879 23.1358 446.518 22.1599 452.59 22.1599C460.036 22.1599 466.615 23.4611 472.326 26.0636C478.109 28.6661 482.88 32.4252 486.64 37.341L470.483 51.7631C468.241 48.9438 465.747 46.775 463 45.2569C460.326 43.6665 457.289 42.8713 453.892 42.8713C451.217 42.8713 448.795 43.3051 446.626 44.1726C444.458 45.04 442.578 46.3051 440.988 47.9678C439.47 49.6305 438.277 51.6547 437.409 54.0403C436.542 56.3536 436.108 58.9561 436.108 61.8478C436.108 64.7394 436.542 67.378 437.409 69.7636C438.277 72.077 439.47 74.065 440.988 75.7277C442.578 77.3904 444.458 78.6555 446.626 79.523C448.795 80.3905 451.217 80.8242 453.892 80.8242C457.289 80.8242 460.326 80.0652 463 78.547C465.747 76.9566 468.241 74.7517 470.483 71.9324L486.64 86.3545C482.88 91.198 478.109 94.9571 472.326 97.6319C466.615 100.234 460.036 101.536 452.59 101.536Z" fill="#1B1B1B"/>
<path d="M540.999 99.8007L522.131 64.2334L542.518 52.3053L569.844 99.8007H540.999ZM493.721 99.8007V23.8949H519.312V99.8007H493.721ZM511.938 72.3661V52.1969H540.674V72.3661H511.938ZM545.012 64.5587L521.481 62.1731L543.277 23.8949H569.952L545.012 64.5587Z" fill="#1B1B1B"/>
<path d="M575.17 99.8007V23.8949H600.327V63.3659L626.46 23.8949H650.533V99.8007H625.376V60.4381L599.351 99.8007H575.17Z" fill="#1B1B1B"/>
<path d="M655.5 99.8007L682.176 61.1971L657.127 23.7864H686.405L697.465 41.6785L708.526 23.7864H738.129L713.514 60.0043L740.406 99.8007H710.261L697.465 80.1736L684.887 99.8007H655.5Z" fill="#1B1B1B"/>
<path d="M779.971 99.8007V23.8949H805.129V63.3659L831.262 23.8949H855.335V99.8007H830.178V60.4381L804.153 99.8007H779.971Z" fill="#1B1B1B"/>
<path d="M906.987 101.536C900.915 101.536 895.276 100.596 890.071 98.7163C884.939 96.7644 880.456 94.0174 876.625 90.4751C872.866 86.9328 869.938 82.7399 867.842 77.8964C865.745 73.0529 864.697 67.7033 864.697 61.8478C864.697 55.9922 865.745 50.6426 867.842 45.7991C869.938 40.9556 872.866 36.7627 876.625 33.2204C880.456 29.6782 884.939 26.9672 890.071 25.0877C895.276 23.1358 900.915 22.1599 906.987 22.1599C914.433 22.1599 921.012 23.4611 926.723 26.0636C932.506 28.6661 937.277 32.4252 941.036 37.341L924.879 51.7631C922.638 48.9438 920.144 46.775 917.397 45.2569C914.723 43.6665 911.686 42.8713 908.289 42.8713C905.614 42.8713 903.192 43.3051 901.023 44.1726C898.855 45.04 896.975 46.3051 895.385 47.9678C893.867 49.6305 892.674 51.6547 891.806 54.0403C890.939 56.3536 890.505 58.9561 890.505 61.8478C890.505 64.7394 890.939 67.378 891.806 69.7636C892.674 72.077 893.867 74.065 895.385 75.7277C896.975 77.3904 898.855 78.6555 901.023 79.523C903.192 80.3905 905.614 80.8242 908.289 80.8242C911.686 80.8242 914.723 80.0652 917.397 78.547C920.144 76.9566 922.638 74.7517 924.879 71.9324L941.036 86.3545C937.277 91.198 932.506 94.9571 926.723 97.6319C921.012 100.234 914.433 101.536 906.987 101.536Z" fill="#1B1B1B"/>
<path d="M965.481 99.8007V38.2085L971.011 43.7388H943.251V23.8949H1012.87V43.7388H985.108L990.638 38.2085V99.8007H965.481Z" fill="#1B1B1B"/>
<path d="M1058.96 101.536C1052.74 101.536 1047 100.56 1041.72 98.6078C1036.51 96.656 1032 93.9089 1028.16 90.3666C1024.33 86.7521 1021.33 82.5231 1019.16 77.6795C1017.07 72.836 1016.02 67.5588 1016.02 61.8478C1016.02 56.0645 1017.07 50.7872 1019.16 46.016C1021.33 41.1725 1024.33 36.9796 1028.16 33.4373C1032 29.8227 1036.51 27.0395 1041.72 25.0877C1047 23.1358 1052.71 22.1599 1058.85 22.1599C1065.07 22.1599 1070.78 23.1358 1075.98 25.0877C1081.19 27.0395 1085.71 29.8227 1089.54 33.4373C1093.37 36.9796 1096.33 41.1725 1098.43 46.016C1100.6 50.7872 1101.68 56.0645 1101.68 61.8478C1101.68 67.5588 1100.6 72.836 1098.43 77.6795C1096.33 82.5231 1093.37 86.7521 1089.54 90.3666C1085.71 93.9089 1081.19 96.656 1075.98 98.6078C1070.78 100.56 1065.1 101.536 1058.96 101.536ZM1058.85 80.8242C1061.24 80.8242 1063.44 80.3905 1065.47 79.523C1067.56 78.6555 1069.37 77.4265 1070.89 75.8361C1072.48 74.1734 1073.71 72.1854 1074.57 69.8721C1075.44 67.4865 1075.88 64.8117 1075.88 61.8478C1075.88 58.8838 1075.44 56.2452 1074.57 53.9319C1073.71 51.5463 1072.48 49.5582 1070.89 47.9678C1069.37 46.3051 1067.56 45.04 1065.47 44.1726C1063.44 43.3051 1061.24 42.8713 1058.85 42.8713C1056.47 42.8713 1054.22 43.3051 1052.13 44.1726C1050.1 45.04 1048.3 46.3051 1046.71 47.9678C1045.19 49.5582 1044 51.5463 1043.13 53.9319C1042.26 56.2452 1041.83 58.8838 1041.83 61.8478C1041.83 64.8117 1042.26 67.4865 1043.13 69.8721C1044 72.1854 1045.19 74.1734 1046.71 75.8361C1048.3 77.4265 1050.1 78.6555 1052.13 79.523C1054.22 80.3905 1056.47 80.8242 1058.85 80.8242Z" fill="#1B1B1B"/>
<path d="M1110.89 99.8007V23.8949H1147.44C1154.52 23.8949 1160.63 25.0515 1165.76 27.3648C1170.97 29.6782 1174.98 33.0036 1177.8 37.341C1180.62 41.6062 1182.03 46.6666 1182.03 52.5222C1182.03 58.3778 1180.62 63.4382 1177.8 67.7034C1174.98 71.9685 1170.97 75.2939 1165.76 77.6795C1160.63 79.9929 1154.52 81.1495 1147.44 81.1495H1125.1L1136.49 70.1974V99.8007H1110.89ZM1136.49 73.0168L1125.1 61.414H1145.81C1149.35 61.414 1151.96 60.6188 1153.62 59.0284C1155.35 57.438 1156.22 55.2693 1156.22 52.5222C1156.22 49.7751 1155.35 47.6064 1153.62 46.016C1151.96 44.4256 1149.35 43.6304 1145.81 43.6304H1125.1L1136.49 32.0276V73.0168Z" fill="#1B1B1B"/>
<path d="M1189.79 99.8007V23.8949H1214.94V63.3659L1241.08 23.8949H1265.15V99.8007H1239.99V60.4381L1213.97 99.8007H1189.79Z" fill="#1B1B1B"/>
<path d="M1278.63 99.8007V23.8949H1303.79V63.3659L1329.92 23.8949H1354V99.8007H1328.84V60.4381L1302.81 99.8007H1278.63ZM1316.26 19.5574C1307.66 19.5574 1301.55 17.967 1297.93 14.7862C1294.39 11.5331 1292.62 6.90642 1292.62 0.90625H1309.65C1309.65 3.29186 1310.12 5.063 1311.06 6.21966C1312.07 7.30403 1313.8 7.84621 1316.26 7.84621C1318.79 7.84621 1320.56 7.30403 1321.57 6.21966C1322.59 5.063 1323.09 3.29186 1323.09 0.90625H1340.12C1340.12 6.90642 1338.27 11.5331 1334.59 14.7862C1330.97 17.967 1324.86 19.5574 1316.26 19.5574Z" fill="#1B1B1B"/>
</svg>
