<svg width="758" height="84" viewBox="0 0 758 84" fill="none" xmlns="http://www.w3.org/2000/svg">
<path d="M48.2807 75.7191C37.7984 75.7191 28.9789 74.4178 21.8221 71.8153C14.7375 69.2129 9.38797 65.3814 5.77341 60.321C2.15884 55.2607 0.351562 49.0798 0.351562 41.7783C0.351562 34.4769 2.15884 28.3322 5.77341 23.3441C9.38797 18.2837 14.7737 14.4523 21.9305 11.8498C29.0873 9.24729 37.9069 7.94605 48.3891 7.94605C48.5337 7.94605 49.112 7.94605 50.1241 7.94605C51.1362 7.94605 52.1482 7.94605 53.1603 7.94605C54.1724 7.94605 54.7146 7.94605 54.7869 7.94605C65.1245 7.94605 73.7633 9.28343 80.7033 11.9582C87.7155 14.5607 92.9928 18.3921 96.535 23.4525C100.077 28.4406 101.848 34.5492 101.848 41.7783C101.848 48.9352 100.113 55.0438 96.6435 60.1042C93.2458 65.1646 88.1493 69.0321 81.3539 71.7069C74.5585 74.3817 66.1366 75.7191 56.0881 75.7191C55.8712 75.7191 55.1483 75.7191 53.9194 75.7191C52.7627 75.7191 51.606 75.7191 50.4494 75.7191C49.2927 75.7191 48.5698 75.7191 48.2807 75.7191ZM50.5578 56.2004C50.7747 56.2004 51.1723 56.2004 51.7506 56.2004C52.329 56.2004 52.7266 56.2004 52.9434 56.2004C58.799 56.2004 63.498 55.7306 67.0402 54.7908C70.5825 53.7787 73.1488 52.2244 74.7392 50.128C76.3296 47.9592 77.1249 45.1399 77.1249 41.6699C77.1249 38.1999 76.2935 35.4529 74.6308 33.4287C72.9681 31.3323 70.3656 29.8141 66.8233 28.8744C63.3534 27.9346 58.8352 27.4647 53.2687 27.4647C52.9796 27.4647 52.5458 27.4647 51.9675 27.4647C51.3892 27.4647 50.9193 27.4647 50.5578 27.4647C44.3408 27.4647 39.3527 27.9346 35.5935 28.8744C31.9067 29.7419 29.2319 31.2238 27.5692 33.3203C25.9065 35.4167 25.0752 38.2361 25.0752 41.7783C25.0752 45.3206 26.0149 48.1761 27.8945 50.3449C29.7741 52.4413 32.5934 53.9594 36.3526 54.8992C40.184 55.7667 44.9191 56.2004 50.5578 56.2004ZM39.3888 83.9603V0.355469H62.8112V83.9603H39.3888Z" fill="#1B1B1B"/>
<path d="M111.008 80.0566V4.15075H172.709V23.4525H136.165V60.7548H174.118V80.0566H111.008ZM134.43 50.7786V32.3443H168.263V50.7786H134.43Z" fill="#1B1B1B"/>
<path d="M222.669 81.7915C216.597 81.7915 210.958 80.8518 205.753 78.9722C200.62 77.0203 196.138 74.2733 192.307 70.731C188.548 67.1887 185.62 62.9958 183.523 58.1523C181.427 53.3088 180.379 47.9592 180.379 42.1037C180.379 36.2481 181.427 30.8985 183.523 26.055C185.62 21.2115 188.548 17.0186 192.307 13.4763C196.138 9.93405 200.62 7.22313 205.753 5.34356C210.958 3.3917 216.597 2.41577 222.669 2.41577C230.115 2.41577 236.694 3.71701 242.405 6.3195C248.188 8.92198 252.959 12.6811 256.718 17.5969L240.561 32.019C238.32 29.1997 235.826 27.0309 233.079 25.5128C230.404 23.9224 227.368 23.1272 223.97 23.1272C221.296 23.1272 218.874 23.561 216.705 24.4284C214.536 25.2959 212.657 26.561 211.066 28.2237C209.548 29.8864 208.355 31.9106 207.488 34.2962C206.62 36.6095 206.187 39.212 206.187 42.1037C206.187 44.9953 206.62 47.6339 207.488 50.0195C208.355 52.3329 209.548 54.3209 211.066 55.9836C212.657 57.6463 214.536 58.9114 216.705 59.7789C218.874 60.6464 221.296 61.0801 223.97 61.0801C227.368 61.0801 230.404 60.321 233.079 58.8029C235.826 57.2125 238.32 55.0076 240.561 52.1883L256.718 66.6104C252.959 71.4539 248.188 75.213 242.405 77.8878C236.694 80.4903 230.115 81.7915 222.669 81.7915Z" fill="#1B1B1B"/>
<path d="M281.162 80.0566V18.4644L286.693 23.9947H258.933V4.15075H328.549V23.9947H300.789L306.32 18.4644V80.0566H281.162Z" fill="#1B1B1B"/>
<path d="M336.989 80.0566V4.15075H362.146V43.6218L388.279 4.15075H412.352V80.0566H387.195V40.694L361.17 80.0566H336.989Z" fill="#1B1B1B"/>
<path d="M425.835 80.0566V4.15075H464.33C473.728 4.15075 480.993 5.88575 486.126 9.35573C491.331 12.8257 493.933 17.7054 493.933 23.9947C493.933 30.1395 491.548 35.0191 486.776 38.6337C482.005 42.1759 475.571 43.9471 467.475 43.9471L469.643 38.0915C478.246 38.0915 485.005 39.7903 489.921 43.188C494.837 46.5857 497.295 51.5377 497.295 58.0439C497.295 64.767 494.62 70.1165 489.27 74.0925C483.921 78.0685 476.294 80.0566 466.39 80.0566H425.835ZM450.992 62.1645H465.197C467.294 62.1645 468.848 61.6584 469.86 60.6464C470.945 59.562 471.487 58.0439 471.487 56.092C471.487 54.1401 470.945 52.6943 469.86 51.7545C468.848 50.7425 467.294 50.2364 465.197 50.2364H450.992V62.1645ZM450.992 33.3203H461.836C464.005 33.3203 465.595 32.8504 466.607 31.9106C467.619 30.9708 468.125 29.5973 468.125 27.79C468.125 25.9104 467.619 24.5007 466.607 23.561C465.595 22.5489 464.005 22.0428 461.836 22.0428H450.992V33.3203Z" fill="#1B1B1B"/>
<path d="M500.023 80.0566L533.205 4.15075H558.362L591.544 80.0566H565.086L540.579 16.2957H550.555L526.048 80.0566H500.023ZM519.759 66.8273L526.265 48.393H561.182L567.688 66.8273H519.759Z" fill="#1B1B1B"/>
<path d="M605.248 81.4662C603.657 81.4662 601.959 81.3578 600.151 81.1409C598.344 80.924 596.428 80.5626 594.404 80.0566L595.705 59.562C596.717 59.7789 597.657 59.8873 598.525 59.8873C601.344 59.8873 603.441 58.7306 604.814 56.4173C606.188 54.104 607.127 50.9955 607.633 47.0917C608.14 43.1157 608.465 38.6698 608.609 33.754L609.585 4.15075H673.672V80.0566H648.514V18.5729L654.044 23.9947H626.393L631.381 18.2475L630.947 32.7781C630.731 40.0795 630.224 46.7303 629.429 52.7305C628.706 58.6583 627.441 63.791 625.634 68.1285C623.827 72.3937 621.26 75.6829 617.935 77.9962C614.682 80.3096 610.453 81.4662 605.248 81.4662Z" fill="#1B1B1B"/>
<path d="M687.079 80.0566V4.15075H712.236V27.4647H727.959C737.213 27.4647 744.442 29.5611 749.647 33.754C754.924 37.8746 757.563 44.1278 757.563 52.5136C757.563 61.55 754.599 68.4177 748.671 73.1166C742.743 77.7432 734.755 80.0566 724.706 80.0566H687.079ZM712.236 62.1645H722.971C725.502 62.1645 727.598 61.3693 729.261 59.7789C730.996 58.1162 731.863 55.839 731.863 52.9473C731.863 50.0557 730.996 48.0677 729.261 46.9833C727.598 45.8989 725.502 45.3568 722.971 45.3568H712.236V62.1645Z" fill="#1B1B1B"/>
</svg>
